<svg xmlns:x="http://ns.adobe.com/Extensibility/1.0/" xmlns:i="http://ns.adobe.com/AdobeIllustrator/10.0/" xmlns:graph="http://ns.adobe.com/Graphs/1.0/" xmlns="http://www.w3.org/2000/svg" xmlns:xlink="http://www.w3.org/1999/xlink" version="1.1" x="0px" y="0px" viewBox="0 0 100 100" enable-background="new 0 0 100 100" xml:space="preserve"><metadata><sfw xmlns="http://ns.adobe.com/SaveForWeb/1.0/"><slices></slices><sliceSourceBounds width="1449.4" height="1439" y="-1445.4" x="0.4" bottomLeftOrigin="true"></sliceSourceBounds></sfw></metadata><g><g><path d="M93,71.6V22.9c0-3.8-3.1-6.9-6.9-6.9H14C10.1,16,7,19.1,7,22.9v48.7H6.7H0.5v4.7c0,4.2,3.4,7.7,7.7,7.7h7.3h69h7.3    c4.2,0,7.7-3.4,7.7-7.7v-4.7h-6.2H93z M83.5,71.6H59.3v0.5c0,1.4-1.2,2.6-2.6,2.6H43.3c-1.4,0-2.6-1.2-2.6-2.6v-0.5H16.5V25.5h67    V71.6z M28.3,57.1c0.2-0.6,0.4-1.3,0.6-1.9c0.3-0.7,0.5-0.8,1.1-0.5c1.2,0.6,2.5,0.9,3.8,1.1c0.8,0.1,1.7,0,2.5-0.4    c1.5-0.6,1.8-2.3,0.5-3.3c-0.5-0.4-0.9-0.6-1.4-0.8c-1.3-0.6-2.7-1-3.9-1.8c-2-1.2-3.2-2.8-3.1-5.2c0.2-2.7,1.8-4.4,4.3-5.4    c1-0.4,1-0.4,1-1.4c0-0.4,0-0.7,0-1.1c0-0.8,0.2-0.9,0.9-1c0.3,0,0.5,0,0.7,0c1.8,0,1.8,0,1.8,1.8c0,1.2,0,1.2,1.2,1.4    c0.9,0.2,1.8,0.5,2.7,0.8c0.5,0.2,0.6,0.6,0.6,1c-0.2,0.7-0.5,1.5-0.6,2.2c-0.2,0.7-0.5,0.8-1.1,0.5c-1.4-0.6-2.8-0.9-4.3-0.8    c-0.4,0-0.7,0.1-1.1,0.2C33,43,32.9,44.4,34,45.3c0.6,0.5,1.2,0.7,1.8,1c1.1,0.5,2.3,0.9,3.4,1.5c3.3,1.9,4.3,6.3,1.8,9.2    c-0.9,1-2,1.8-3.3,2.1c-0.6,0.2-0.8,0.5-0.8,1s0,1.2,0,1.8c0,0.6-0.3,0.8-0.8,0.8c-0.6,0-1.3,0-1.9,0c-0.6,0-0.8-0.4-0.8-0.8    c0-0.5,0-0.8,0-1.3c0-0.9,0-1-0.9-1.1c-1.2-0.2-2.3-0.5-3.4-1C28.1,58.2,28,57.9,28.3,57.1z M49.1,59.3v-2.7    c0-0.4,0.3-0.8,0.8-0.8H71c0.4,0,0.8,0.3,0.8,0.8v2.7c0,0.4-0.3,0.8-0.8,0.8H49.8C49.4,60.1,49.1,59.8,49.1,59.3z M49.1,50.5v-2.7    c0-0.4,0.3-0.8,0.8-0.8H71c0.4,0,0.8,0.3,0.8,0.8v2.7c0,0.4-0.3,0.8-0.8,0.8H49.8C49.4,51.2,49.1,50.9,49.1,50.5z M49.1,41.6v-2.7    c0-0.4,0.3-0.8,0.8-0.8H71c0.4,0,0.8,0.3,0.8,0.8v2.7c0,0.4-0.3,0.8-0.8,0.8H49.8C49.4,42.3,49.1,42,49.1,41.6z"></path></g></g></svg>