<?xml version="1.0" encoding="utf-8"?>
<!-- Generator: Adobe Illustrator 22.0.1, SVG Export Plug-In . SVG Version: 6.00 Build 0)  -->
<svg version="1.1" id="Layer_1" xmlns="http://www.w3.org/2000/svg" xmlns:xlink="http://www.w3.org/1999/xlink" x="0px" y="0px"
	 viewBox="0 0 102.4 34.5" style="enable-background:new 0 0 102.4 34.5;" xml:space="preserve">
<style type="text/css">
	.st0{fill:#980539;}
	.st1{fill:#002E6D;}
</style>
<path class="st0" d="M100.8,29.7c0.5,0,0.8,0.3,0.8,0.7c0,0.1,0,0.2-0.1,0.3h-1.9C99.8,30.1,100.3,29.7,100.8,29.7 M102.2,31.2
	c0.1-0.3,0.1-0.5,0.1-0.8c0-0.9-0.6-1.4-1.5-1.4c-1.1,0-2,1-2,2.2c0,1,0.8,1.6,1.7,1.6c0.5,0,0.8-0.1,1.2-0.3l0.1-0.7
	c-0.5,0.2-0.8,0.3-1.2,0.3c-0.7,0-1.1-0.4-1.1-0.9v-0.1H102.2z M96.3,32.9c0.9,0,1.5-0.4,1.5-1.1c0-0.6-0.5-0.8-1-1.1
	c-0.4-0.2-0.8-0.4-0.8-0.6c0-0.3,0.3-0.4,0.7-0.4c0.2,0,0.4,0,0.5,0.1c0.1,0,0.1,0.1,0.1,0.1c-0.1,0.1-0.1,0.2-0.1,0.2
	c0,0.2,0.2,0.4,0.4,0.4c0.2,0,0.4-0.2,0.4-0.5c0-0.2-0.1-0.3-0.2-0.5c-0.2-0.2-0.7-0.4-1.2-0.4c-0.9,0-1.4,0.5-1.4,1.1
	c0,0.6,0.5,0.8,1,1.1c0.4,0.2,0.8,0.3,0.8,0.6c0,0.3-0.3,0.5-0.7,0.5c-0.3,0-0.5-0.1-0.7-0.1c-0.1,0-0.1-0.1-0.1-0.1
	c0.1-0.1,0.1-0.2,0.1-0.2c0-0.2-0.2-0.4-0.4-0.4c-0.2,0-0.4,0.2-0.4,0.5c0,0.2,0.1,0.3,0.2,0.5C95.3,32.7,95.8,32.9,96.3,32.9
	 M91.3,32.8h0.7l0.4-1.6c0.2-0.8,0.7-1.3,1-1.4c0,0.2,0.2,0.4,0.5,0.4c0.3,0,0.5-0.2,0.5-0.5c0-0.3-0.2-0.5-0.5-0.5
	c-0.4,0-0.8,0.4-1.3,1.1l0.2-1h-1.3l-0.2,0.6h0.7L91.3,32.8z M86.6,29.2l-0.2,0.6h0.7l-0.4,1.5c-0.1,0.2-0.1,0.4-0.1,0.6
	c0,0.6,0.4,1,1,1c0.5,0,0.9-0.3,1.2-0.8v0.1c0,0.5,0.3,0.8,0.7,0.8c0.4,0,0.8-0.2,1-1l-0.3-0.1c-0.2,0.5-0.3,0.6-0.5,0.6
	c-0.1,0-0.2-0.1-0.2-0.3c0-0.1,0-0.2,0.1-0.4l0.7-2.6h-0.7l-0.5,2c-0.2,0.7-0.6,1.1-1.1,1.1c-0.3,0-0.5-0.2-0.5-0.5
	c0-0.1,0-0.2,0.1-0.4l0.6-2.2H86.6z M83.5,32.3c-0.5,0-0.9-0.4-0.9-1c0-0.9,0.6-1.5,1.3-1.5c0.5,0,0.9,0.4,0.9,1
	C84.8,31.6,84.2,32.3,83.5,32.3 M83.4,32.9c1.2,0,2.1-1.1,2.1-2.2c0-0.9-0.6-1.6-1.6-1.6c-1.2,0-2.1,1.1-2.1,2.2
	C81.8,32.1,82.4,32.9,83.4,32.9 M78.6,32.9c0.8,0,1.6-0.3,2.2-1l-0.5-0.5c-0.5,0.5-1,0.7-1.7,0.7c-1,0-1.7-0.7-1.7-1.8
	c0-1.3,1-2.6,2.4-2.6c0.6,0,1.1,0.3,1.2,0.5c-0.1,0.1-0.2,0.2-0.2,0.4c0,0.3,0.2,0.5,0.5,0.5c0.3,0,0.6-0.3,0.6-0.7
	c0-0.6-0.8-1.4-2-1.4c-1.8,0-3.2,1.5-3.2,3.3C76.2,32,77.3,32.9,78.6,32.9 M71.6,29.7c0.5,0,0.8,0.3,0.8,0.7c0,0.1,0,0.2-0.1,0.3
	h-1.9C70.6,30.1,71,29.7,71.6,29.7 M72.9,31.2C73,31,73,30.7,73,30.5c0-0.9-0.6-1.4-1.5-1.4c-1.1,0-2,1-2,2.2c0,1,0.8,1.6,1.7,1.6
	c0.5,0,0.8-0.1,1.2-0.3l0.1-0.7c-0.5,0.2-0.8,0.3-1.2,0.3c-0.7,0-1.1-0.4-1.1-0.9v-0.1H72.9z M69,29.8l0.2-0.6H68l0.3-1.1l-0.8,0.3
	l-0.2,0.8h-0.7l-0.1,0.6h0.7l-0.5,1.9c0,0.2-0.1,0.3-0.1,0.4c0,0.5,0.4,0.8,0.8,0.8c0.4,0,0.8-0.1,1.2-0.5L68.3,32
	c-0.4,0.2-0.5,0.3-0.7,0.3c-0.2,0-0.3-0.1-0.3-0.3c0-0.1,0-0.2,0.1-0.3l0.5-1.9H69z M62.8,32.3c-0.5,0-0.8-0.4-0.8-0.9
	c0-0.8,0.5-1.6,1.3-1.6c0.6,0,0.8,0.4,0.8,0.9C64.1,31.5,63.5,32.3,62.8,32.3 M62.5,32.9c0.6,0,1-0.4,1.3-0.8v0
	c0,0.4,0.3,0.7,0.7,0.7c0.4,0,0.8-0.2,1-1l-0.3-0.1c-0.2,0.5-0.3,0.6-0.5,0.6c-0.1,0-0.2-0.1-0.2-0.3c0-0.1,0-0.2,0.1-0.4l0.6-2.6
	h-0.7L64.3,30c-0.1-0.5-0.5-0.9-1.1-0.9c-1.1,0-1.9,1.1-1.9,2.3C61.3,32.3,61.8,32.9,62.5,32.9 M56.5,29.2l-0.2,0.6H57l-0.4,1.5
	c-0.1,0.2-0.1,0.4-0.1,0.6c0,0.6,0.4,1,1,1c0.5,0,0.9-0.3,1.2-0.8v0.1c0,0.5,0.3,0.8,0.7,0.8c0.4,0,0.8-0.2,1-1l-0.3-0.1
	c-0.2,0.5-0.3,0.6-0.5,0.6c-0.1,0-0.2-0.1-0.2-0.3c0-0.1,0-0.2,0.1-0.4l0.7-2.6h-0.7l-0.5,2c-0.2,0.7-0.6,1.1-1.1,1.1
	c-0.3,0-0.5-0.2-0.5-0.5c0-0.1,0-0.2,0.1-0.4l0.6-2.2H56.5z M52.7,32.3c-0.5,0-0.8-0.4-0.8-0.9c0-0.8,0.5-1.6,1.3-1.6
	c0.6,0,0.9,0.4,0.9,0.9C54,31.5,53.5,32.3,52.7,32.3 M51.2,31.4c0,0.9,0.5,1.5,1.3,1.5c0.6,0,1-0.3,1.3-0.8v0c0,0.4,0.3,0.7,0.7,0.7
	c0.4,0,0.8-0.2,1-1l-0.3-0.1c-0.2,0.5-0.3,0.6-0.5,0.6c-0.1,0-0.2-0.1-0.2-0.3c0-0.1,0-0.2,0.1-0.4l1.2-5.2h-1.4l-0.2,0.6h0.7
	l-0.6,2.7c-0.1-0.4-0.6-0.8-1.1-0.8C52,29.1,51.2,30.2,51.2,31.4 M47.6,32.3c-0.5,0-0.8-0.4-0.8-0.9c0-0.8,0.5-1.6,1.2-1.6
	c0.6,0,0.8,0.4,0.8,0.9C48.9,31.5,48.4,32.3,47.6,32.3 M47.3,32.9c0.6,0,1-0.4,1.3-0.8v0c0,0.4,0.3,0.7,0.7,0.7c0.4,0,0.8-0.2,1-1
	L50,31.8c-0.2,0.5-0.3,0.6-0.5,0.6c-0.1,0-0.2-0.1-0.2-0.3c0-0.1,0-0.2,0.1-0.4l0.6-2.6h-0.7L49.1,30c-0.1-0.5-0.5-0.9-1.1-0.9
	c-1.1,0-1.9,1.1-1.9,2.3C46.1,32.3,46.6,32.9,47.3,32.9 M42.6,32.8h0.7l0.4-1.6c0.2-0.8,0.7-1.3,1-1.4c0,0.2,0.2,0.4,0.5,0.4
	c0.3,0,0.5-0.2,0.5-0.5c0-0.3-0.2-0.5-0.5-0.5c-0.4,0-0.8,0.4-1.3,1.1l0.2-1h-1.3l-0.2,0.6h0.7L42.6,32.8z M39.5,32.2
	c-0.5,0-0.9-0.3-0.9-0.9c0-0.8,0.5-1.5,1.3-1.5c0.5,0,0.9,0.3,0.9,0.9C40.7,31.4,40.2,32.2,39.5,32.2 M39.1,34.5
	c0.6,0,1-0.2,1.3-0.5c0.3-0.3,0.4-0.6,0.5-1.1l0.9-3.8h-0.7l-0.2,0.8c-0.1-0.4-0.5-0.8-1.1-0.8c-1.1,0-1.9,1-1.9,2.2
	c0,0.9,0.5,1.5,1.3,1.5c0.5,0,0.9-0.3,1.3-0.7l-0.2,0.7c-0.1,0.4-0.2,0.7-0.4,0.9C39.6,33.9,39.4,34,39,34c-0.3,0-0.5-0.1-0.6-0.1
	c0-0.1,0.1-0.1,0.1-0.2c0-0.2-0.2-0.5-0.5-0.5s-0.5,0.2-0.5,0.5c0,0.2,0.1,0.3,0.2,0.5C38,34.3,38.6,34.5,39.1,34.5 M37.2,29.8
	l0.2-0.6h-1.1l0.3-1.1l-0.8,0.3l-0.2,0.8h-0.7l-0.1,0.6h0.7l-0.5,1.9c0,0.2-0.1,0.3-0.1,0.4c0,0.5,0.4,0.8,0.8,0.8
	c0.4,0,0.8-0.1,1.2-0.5L36.6,32c-0.4,0.2-0.5,0.3-0.7,0.3c-0.2,0-0.3-0.1-0.3-0.3c0-0.1,0-0.2,0.1-0.3l0.5-1.9H37.2z M32,32.9
	c0.9,0,1.5-0.4,1.5-1.1c0-0.6-0.5-0.8-1-1.1c-0.4-0.2-0.8-0.4-0.8-0.6c0-0.3,0.3-0.4,0.7-0.4c0.2,0,0.4,0,0.5,0.1
	c0.1,0,0.1,0.1,0.1,0.1C33,29.9,32.9,30,32.9,30c0,0.2,0.2,0.4,0.4,0.4s0.4-0.2,0.4-0.5c0-0.2-0.1-0.3-0.2-0.5
	c-0.2-0.2-0.7-0.4-1.2-0.4c-0.9,0-1.4,0.5-1.4,1.1c0,0.6,0.5,0.8,1,1.1c0.4,0.2,0.8,0.3,0.8,0.6c0,0.3-0.3,0.5-0.7,0.5
	c-0.3,0-0.5-0.1-0.7-0.1c-0.1,0-0.1-0.1-0.1-0.1c0.1-0.1,0.1-0.2,0.1-0.2c0-0.2-0.2-0.4-0.4-0.4c-0.2,0-0.4,0.2-0.4,0.5
	c0,0.2,0.1,0.3,0.2,0.5C31,32.7,31.5,32.9,32,32.9 M27.8,32.3c-0.5,0-0.9-0.4-0.9-1c0-0.9,0.6-1.5,1.3-1.5c0.5,0,0.9,0.4,0.9,1
	C29.1,31.6,28.5,32.3,27.8,32.3 M27.7,32.9c1.2,0,2.1-1.1,2.1-2.2c0-0.9-0.6-1.6-1.6-1.6c-1.2,0-2.1,1.1-2.1,2.2
	C26.1,32.1,26.7,32.9,27.7,32.9 M23.6,30.2c-0.3,0-0.5,0-0.7,0l0.5-2.3h0.5c0.2,0,0.4,0,0.5,0.1c0.5,0.1,0.7,0.5,0.7,0.9
	C25.1,29.6,24.6,30.2,23.6,30.2 M20.8,32.8H23l0.2-0.7h-0.8l0.3-1.3c0.2,0,0.5,0,0.8,0c1.5,0,2.4-0.9,2.4-2c0-0.7-0.4-1.3-1.2-1.5
	c-0.2-0.1-0.5-0.1-0.7-0.1H22l-0.2,0.7h0.7l-1,4.2H21L20.8,32.8z M15.2,28.9c0-0.4,0.3-0.9,0.8-0.9c0.4,0,0.6,0.3,0.6,0.6
	c0,0.5-0.4,0.8-1.1,1.1C15.2,29.4,15.2,29.1,15.2,28.9 M14.9,32.3c-0.5,0-0.8-0.3-0.8-0.8c0-0.5,0.4-0.9,1.1-1.2
	c0.1,0.1,0.2,0.3,0.4,0.4l0.6,0.8C15.8,32,15.4,32.3,14.9,32.3 M13.3,31.6c0,0.8,0.6,1.3,1.5,1.3c0.8,0,1.3-0.4,1.8-0.9l0.8,0.9
	l0.5-0.4L17,31.6c0.3-0.4,0.5-0.7,0.7-0.7c0.1,0.2,0.2,0.3,0.4,0.3c0.3,0,0.5-0.2,0.5-0.5c0-0.3-0.2-0.5-0.6-0.5
	c-0.5,0-0.9,0.3-1.4,1L16,30.4l-0.3-0.3c0.9-0.4,1.5-0.8,1.5-1.6c0-0.6-0.5-1.1-1.3-1.1c-0.9,0-1.5,0.6-1.5,1.4c0,0.4,0.1,0.6,0.3,1
	C14,30.2,13.3,30.7,13.3,31.6"/>
<path class="st0" d="M100.1,24.4c-0.5,0-0.9-0.3-0.9-0.9c0-0.8,0.5-1.5,1.3-1.5c0.5,0,0.9,0.3,0.9,0.9
	C101.3,23.7,100.8,24.4,100.1,24.4 M99.7,26.8c0.6,0,1-0.2,1.3-0.5c0.3-0.3,0.4-0.6,0.5-1.1l0.9-3.8h-0.7l-0.2,0.8
	c-0.1-0.4-0.5-0.8-1.1-0.8c-1.1,0-1.9,1-1.9,2.2c0,0.9,0.5,1.5,1.3,1.5c0.5,0,0.9-0.3,1.3-0.7l-0.2,0.7c-0.1,0.4-0.2,0.7-0.4,0.9
	c-0.2,0.2-0.5,0.3-0.8,0.3c-0.3,0-0.5-0.1-0.6-0.1c0-0.1,0.1-0.1,0.1-0.2c0-0.2-0.2-0.5-0.4-0.5c-0.3,0-0.5,0.2-0.5,0.5
	c0,0.2,0.1,0.3,0.2,0.5C98.6,26.6,99.2,26.8,99.7,26.8 M96.7,25.2c0.4,0,0.8-0.3,1-1l-0.3-0.1c-0.2,0.5-0.3,0.6-0.5,0.6
	c-0.1,0-0.2-0.1-0.2-0.3c0-0.1,0-0.2,0.1-0.3L97,23c0.1-0.2,0.1-0.4,0.1-0.6c0-0.7-0.4-1-1-1c-0.5,0-1,0.4-1.3,0.9l0.2-0.9h-1.3
	l-0.2,0.6h0.7l-0.8,3h0.7l0.5-2c0.2-0.7,0.6-1.1,1.1-1.1c0.3,0,0.6,0.2,0.6,0.5c0,0.1,0,0.2-0.1,0.4L95.9,24c0,0.1-0.1,0.3-0.1,0.4
	C95.9,24.9,96.2,25.2,96.7,25.2 M91.6,25.2c0.5,0,0.8-0.2,1-1l-0.3-0.1c-0.2,0.5-0.3,0.6-0.5,0.6c-0.1,0-0.2-0.1-0.2-0.3
	c0-0.1,0-0.2,0.1-0.4l0.7-2.6h-1.4l-0.2,0.6h0.7l-0.5,2c0,0.1-0.1,0.3-0.1,0.4C90.8,24.9,91.1,25.2,91.6,25.2 M92,20.8
	c0.3,0,0.5-0.2,0.5-0.5c0-0.3-0.2-0.5-0.5-0.5c-0.3,0-0.5,0.2-0.5,0.5C91.5,20.6,91.7,20.8,92,20.8 M90,22.1l0.2-0.6H89l0.3-1.1
	l-0.8,0.3l-0.2,0.8h-0.7l-0.1,0.6h0.7L87.6,24c0,0.2-0.1,0.3-0.1,0.4c0,0.5,0.4,0.8,0.8,0.8c0.4,0,0.8-0.1,1.2-0.5l-0.3-0.4
	c-0.4,0.2-0.5,0.3-0.7,0.3c-0.2,0-0.3-0.1-0.3-0.3c0-0.1,0-0.2,0.1-0.3l0.5-1.9H90z M85,22c0.5,0,0.8,0.3,0.8,0.7
	c0,0.1,0,0.2-0.1,0.3h-1.9C84,22.4,84.4,22,85,22 M86.3,23.5c0.1-0.3,0.1-0.5,0.1-0.8c0-0.9-0.6-1.4-1.5-1.4c-1.1,0-2,1-2,2.2
	c0,1,0.8,1.6,1.7,1.6c0.5,0,0.8-0.1,1.2-0.3l0.1-0.7c-0.5,0.2-0.8,0.3-1.2,0.3c-0.7,0-1.1-0.4-1.1-0.9v-0.1H86.3z M80.6,22
	c0.5,0,0.8,0.3,0.8,0.7c0,0.1,0,0.2-0.1,0.3h-1.9C79.6,22.4,80.1,22,80.6,22 M82,23.5c0.1-0.3,0.1-0.5,0.1-0.8
	c0-0.9-0.6-1.4-1.5-1.4c-1.1,0-2,1-2,2.2c0,1,0.8,1.6,1.7,1.6c0.5,0,0.8-0.1,1.2-0.3l0.1-0.7c-0.5,0.2-0.8,0.3-1.2,0.3
	c-0.7,0-1.1-0.4-1.1-0.9v-0.1H82z M70.7,25.1h2.2l0.2-0.7h-0.8l0.9-3.5l1,3.4h0.1l2.4-3.4L76,24.4h-0.7l-0.2,0.7h2.2l0.2-0.7h-0.7
	l0.8-4.2h0.6l0.2-0.7H77l-2.5,3.5l-1-3.5h-1.4L72,20.2h0.7l-1.2,4.2h-0.6L70.7,25.1z M66.5,25.2c0.5,0,0.9-0.1,1.3-0.4l0-0.7
	c-0.4,0.3-0.8,0.5-1.2,0.5c-0.6,0-1-0.4-1-1c0-0.9,0.7-1.5,1.4-1.5c0.3,0,0.5,0.1,0.6,0.2c-0.1,0.1-0.2,0.2-0.2,0.3
	c0,0.3,0.2,0.4,0.4,0.4c0.3,0,0.5-0.3,0.5-0.6c0-0.5-0.5-1-1.3-1c-1.2,0-2.1,1-2.1,2.2C64.8,24.6,65.5,25.2,66.5,25.2 M62.9,25.2
	c0.5,0,0.8-0.2,1-1l-0.3-0.1c-0.2,0.5-0.3,0.6-0.5,0.6c-0.1,0-0.2-0.1-0.2-0.3c0-0.1,0-0.2,0.1-0.4l0.7-2.6h-1.4L62,22.1h0.7l-0.5,2
	c0,0.1-0.1,0.3-0.1,0.4C62.1,24.9,62.4,25.2,62.9,25.2 M63.3,20.8c0.3,0,0.5-0.2,0.5-0.5c0-0.3-0.2-0.5-0.5-0.5
	c-0.3,0-0.5,0.2-0.5,0.5C62.8,20.6,63.1,20.8,63.3,20.8 M59,25.1h0.7l0.7-3h0.9l0.2-0.6h-1l0.2-0.9c0.1-0.4,0.2-0.7,0.4-0.9
	c0.1-0.1,0.2-0.1,0.3-0.2c0,0.2,0.2,0.4,0.5,0.4c0.2,0,0.5-0.2,0.5-0.5s-0.2-0.6-0.7-0.6c-0.4,0-0.8,0.1-1,0.4
	c-0.3,0.3-0.5,0.6-0.6,1.2l-0.2,1h-0.6L59,22.1h0.6L59,25.1z M57,25.2c0.5,0,0.8-0.2,1-1l-0.3-0.1c-0.2,0.5-0.3,0.6-0.5,0.6
	c-0.1,0-0.2-0.1-0.2-0.3c0-0.1,0-0.2,0.1-0.4l0.7-2.6h-1.4l-0.2,0.6h0.7l-0.5,2c0,0.1-0.1,0.3-0.1,0.4C56.3,24.9,56.5,25.2,57,25.2
	 M57.5,20.8c0.3,0,0.5-0.2,0.5-0.5c0-0.3-0.2-0.5-0.5-0.5c-0.3,0-0.5,0.2-0.5,0.5C57,20.6,57.2,20.8,57.5,20.8 M55.4,22.1l0.2-0.6
	h-1.1l0.3-1.1l-0.8,0.3l-0.2,0.8H53l-0.1,0.6h0.7L53.1,24c0,0.2-0.1,0.3-0.1,0.4c0,0.5,0.4,0.8,0.8,0.8c0.4,0,0.8-0.1,1.2-0.5
	l-0.3-0.4c-0.4,0.2-0.5,0.3-0.7,0.3c-0.2,0-0.3-0.1-0.3-0.3c0-0.1,0-0.2,0.1-0.3l0.5-1.9H55.4z M51.1,25.2c0.5,0,0.8-0.3,1-1
	l-0.3-0.1c-0.2,0.5-0.3,0.6-0.5,0.6c-0.1,0-0.2-0.1-0.2-0.3c0-0.1,0-0.2,0.1-0.3l0.3-1.1c0.1-0.2,0.1-0.4,0.1-0.6c0-0.7-0.4-1-1-1
	c-0.5,0-1,0.4-1.3,0.9l0.2-0.9h-1.3L48,22.1h0.7l-0.8,3h0.7l0.5-2c0.2-0.7,0.6-1.1,1.1-1.1c0.3,0,0.6,0.2,0.6,0.5
	c0,0.1,0,0.2-0.1,0.4L50.4,24c0,0.1-0.1,0.3-0.1,0.4C50.3,24.9,50.6,25.2,51.1,25.2 M45.5,22c0.5,0,0.8,0.3,0.8,0.7
	c0,0.1,0,0.2-0.1,0.3h-1.9C44.5,22.4,45,22,45.5,22 M46.9,23.5c0.1-0.3,0.1-0.5,0.1-0.8c0-0.9-0.6-1.4-1.5-1.4c-1.1,0-2,1-2,2.2
	c0,1,0.8,1.6,1.7,1.6c0.5,0,0.8-0.1,1.2-0.3l0.1-0.7c-0.5,0.2-0.8,0.3-1.2,0.3c-0.7,0-1.1-0.4-1.1-0.9v-0.1H46.9z M41.6,25.2
	c0.5,0,0.8-0.2,1-1l-0.3-0.1c-0.2,0.5-0.3,0.6-0.5,0.6c-0.1,0-0.2-0.1-0.2-0.3c0-0.1,0-0.2,0.1-0.4l0.7-2.6h-1.4l-0.2,0.6h0.7
	l-0.5,2c0,0.1-0.1,0.3-0.1,0.4C40.9,24.9,41.1,25.2,41.6,25.2 M42.1,20.8c0.3,0,0.5-0.2,0.5-0.5c0-0.3-0.2-0.5-0.5-0.5
	c-0.3,0-0.5,0.2-0.5,0.5C41.6,20.6,41.8,20.8,42.1,20.8 M38.1,25.2c0.5,0,0.9-0.1,1.3-0.4l0-0.7c-0.4,0.3-0.8,0.5-1.2,0.5
	c-0.6,0-1-0.4-1-1c0-0.9,0.7-1.5,1.4-1.5c0.3,0,0.5,0.1,0.6,0.2c-0.1,0.1-0.2,0.2-0.2,0.3c0,0.3,0.2,0.4,0.4,0.4
	c0.3,0,0.5-0.3,0.5-0.6c0-0.5-0.5-1-1.3-1c-1.2,0-2.1,1-2.1,2.2C36.4,24.6,37.1,25.2,38.1,25.2 M33.4,25.2c1.2,0,2-0.7,2-1.6
	c0-0.8-0.6-1.2-1.3-1.6c-0.6-0.3-1-0.6-1-1.1c0-0.4,0.4-0.8,1.1-0.8c0.5,0,0.8,0.1,0.9,0.3c-0.1,0.1-0.2,0.3-0.2,0.4
	c0,0.3,0.2,0.5,0.5,0.5c0.3,0,0.6-0.3,0.6-0.7c0-0.6-0.7-1.2-1.8-1.2c-1.2,0-1.9,0.7-1.9,1.5c0,0.8,0.6,1.3,1.3,1.7
	c0.6,0.3,1,0.6,1,1c0,0.5-0.5,0.9-1.1,0.9c-0.6,0-1-0.2-1.2-0.4c0.1-0.1,0.2-0.3,0.2-0.4c0-0.3-0.2-0.5-0.5-0.5
	c-0.3,0-0.6,0.3-0.6,0.7C31.4,24.5,32.3,25.2,33.4,25.2 M27.5,25.2c0.4,0,0.8-0.2,1-1l-0.3-0.1c-0.2,0.5-0.3,0.6-0.5,0.6
	c-0.1,0-0.2-0.1-0.2-0.3c0-0.1,0-0.2,0.1-0.4l1.2-5.1h-1.4l-0.2,0.6h0.7L26.8,24c0,0.1-0.1,0.3-0.1,0.4C26.8,24.9,27,25.2,27.5,25.2
	 M23.1,24.5c-0.5,0-0.8-0.4-0.8-0.9c0-0.8,0.5-1.6,1.2-1.6c0.6,0,0.8,0.4,0.8,0.9C24.5,23.7,23.9,24.5,23.1,24.5 M22.8,25.2
	c0.6,0,1-0.4,1.3-0.8v0c0,0.4,0.3,0.7,0.7,0.7c0.4,0,0.8-0.2,1-1l-0.3-0.1c-0.2,0.5-0.3,0.6-0.5,0.6c-0.1,0-0.2-0.1-0.2-0.3
	c0-0.1,0-0.2,0.1-0.4l0.6-2.6h-0.7l-0.2,0.8c-0.1-0.5-0.5-0.9-1.1-0.9c-1.1,0-1.9,1.1-1.9,2.3C21.6,24.6,22.1,25.2,22.8,25.2
	 M16.8,21.4l-0.2,0.6h0.7L17,23.6c-0.1,0.2-0.1,0.4-0.1,0.6c0,0.6,0.4,1,1,1c0.5,0,0.9-0.3,1.2-0.8v0.1c0,0.5,0.3,0.8,0.7,0.8
	c0.4,0,0.8-0.2,1-1l-0.3-0.1c-0.2,0.5-0.3,0.6-0.5,0.6c-0.1,0-0.2-0.1-0.2-0.3c0-0.1,0-0.2,0.1-0.4l0.7-2.6h-0.7l-0.5,2
	c-0.2,0.7-0.6,1.1-1.1,1.1c-0.3,0-0.5-0.2-0.5-0.5c0-0.1,0-0.2,0.1-0.4l0.6-2.2H16.8z M14.8,25.2c0.5,0,0.8-0.3,1-1l-0.3-0.1
	c-0.2,0.5-0.3,0.6-0.5,0.6c-0.1,0-0.2-0.1-0.2-0.3c0-0.1,0-0.2,0.1-0.3l0.3-1.1c0.1-0.2,0.1-0.4,0.1-0.6c0-0.7-0.4-1-1-1
	c-0.5,0-1,0.4-1.3,0.9l0.2-0.9h-1.3l-0.2,0.6h0.7l-0.8,3h0.7l0.5-2c0.2-0.7,0.6-1.1,1.1-1.1c0.3,0,0.6,0.2,0.6,0.5
	c0,0.1,0,0.2-0.1,0.4L14.1,24c0,0.1-0.1,0.3-0.1,0.4C14.1,24.9,14.3,25.2,14.8,25.2 M9.9,25.2c0.5,0,0.8-0.3,1-1l-0.3-0.1
	c-0.2,0.5-0.3,0.6-0.5,0.6c-0.1,0-0.2-0.1-0.2-0.3c0-0.1,0-0.2,0.1-0.3l0.3-1.1c0.1-0.2,0.1-0.4,0.1-0.6c0-0.7-0.4-1-1-1
	c-0.5,0-1,0.4-1.3,0.9l0.2-0.9H6.9l-0.2,0.6h0.7l-0.8,3h0.7l0.5-2C8.1,22.4,8.5,22,9,22c0.3,0,0.6,0.2,0.6,0.5c0,0.1,0,0.2-0.1,0.4
	L9.1,24c0,0.1-0.1,0.3-0.1,0.4C9.1,24.9,9.4,25.2,9.9,25.2 M2.5,22.6L4,20.1l0.3,2.5H2.5z M0,25.1h2l0.2-0.7H1.4l0.7-1.2h2.2
	l0.1,1.2H3.9l-0.2,0.7h1.9l0.2-0.7H5.2l-0.5-4.2h0.6l0.2-0.7H2.7l-0.2,0.7h0.7l-2.5,4.2H0.2L0,25.1z"/>
<path class="st1" d="M102.2,11.7c-0.1-0.4-0.2-0.7-0.4-1c-0.2-0.3-0.4-0.6-0.8-0.8c-0.3-0.2-0.7-0.5-1.1-0.6
	c0.6-0.3,1.1-0.7,1.5-1.4s0.6-1.3,0.6-2c0-0.6-0.1-1.1-0.4-1.6c-0.2-0.5-0.6-0.9-1-1.3s-1-0.7-1.6-0.9c-0.6-0.2-1.3-0.3-2.1-0.3
	c-0.8,0-1.5,0.1-2.1,0.3c-0.6,0.2-1.1,0.5-1.6,0.9c-0.4,0.4-0.8,0.8-1,1.3c-0.2,0.5-0.4,1-0.4,1.6c0,0.7,0.2,1.4,0.5,2
	c0.3,0.6,0.8,1.1,1.5,1.4c-0.4,0.1-0.8,0.3-1.1,0.6c-0.3,0.2-0.5,0.5-0.7,0.8s-0.3,0.6-0.4,1c-0.1,0.4-0.1,0.7-0.1,1.1
	c0,0.6,0.1,1.1,0.4,1.6c0.3,0.5,0.6,0.9,1.1,1.3c0.5,0.4,1,0.7,1.7,0.9c0.7,0.2,1.4,0.3,2.2,0.3c0.8,0,1.6-0.1,2.3-0.3
	c0.7-0.2,1.2-0.5,1.7-0.9c0.5-0.4,0.8-0.8,1.1-1.3s0.4-1,0.4-1.6C102.3,12.5,102.3,12.1,102.2,11.7 M98.1,7.7
	c-0.3,0.3-0.7,0.4-1.2,0.4c-0.5,0-0.9-0.1-1.3-0.4c-0.3-0.3-0.5-0.7-0.5-1.2c0-0.5,0.2-1,0.5-1.3c0.3-0.3,0.7-0.5,1.3-0.5
	c0.6,0,1,0.2,1.3,0.5c0.3,0.3,0.4,0.8,0.4,1.3C98.6,7,98.4,7.4,98.1,7.7 M98.3,13.5c-0.3,0.3-0.8,0.5-1.4,0.5c-0.5,0-1-0.2-1.3-0.5
	s-0.5-0.7-0.5-1.2c0-0.5,0.2-1,0.5-1.3c0.3-0.3,0.8-0.5,1.3-0.5c0.6,0,1,0.2,1.4,0.5c0.3,0.3,0.5,0.7,0.5,1.2
	C98.8,12.7,98.6,13.1,98.3,13.5 M88.5,16.7V1.8h-1.3l-5.6,2.1l1,2.6l2.5-1v11.2H88.5z M79.6,6.4c-0.3-0.9-0.7-1.7-1.2-2.4
	c-0.5-0.7-1.2-1.2-2-1.6c-0.8-0.4-1.7-0.6-2.7-0.6c-1,0-1.9,0.2-2.7,0.6c-0.8,0.4-1.4,0.9-2,1.6c-0.5,0.7-0.9,1.5-1.2,2.4
	c-0.3,0.9-0.4,1.9-0.4,2.9s0.1,2,0.4,2.9c0.3,0.9,0.7,1.7,1.2,2.4s1.2,1.2,2,1.6c0.8,0.4,1.7,0.6,2.7,0.6c1,0,1.9-0.2,2.7-0.6
	c0.8-0.4,1.4-0.9,2-1.6c0.5-0.7,0.9-1.5,1.2-2.4c0.3-0.9,0.4-1.9,0.4-2.9S79.8,7.4,79.6,6.4 M75.6,12.9c-0.5,0.8-1.1,1.2-1.9,1.2
	c-0.8,0-1.4-0.4-1.9-1.2c-0.5-0.8-0.7-1.9-0.7-3.5s0.2-2.7,0.7-3.5c0.5-0.8,1.1-1.2,1.9-1.2c0.8,0,1.4,0.4,1.9,1.2
	c0.5,0.8,0.7,1.9,0.7,3.5S76,12.1,75.6,12.9 M65.2,16.7v-3h-5.3c0.6-0.6,1.2-1.1,1.7-1.6c0.5-0.5,0.9-1,1.3-1.4
	c0.6-0.7,1-1.5,1.4-2.2c0.4-0.7,0.5-1.4,0.5-2.1c0-0.6-0.1-1.2-0.3-1.8s-0.5-1-1-1.4c-0.4-0.4-1-0.7-1.6-1c-0.7-0.2-1.4-0.4-2.3-0.4
	c-0.5,0-0.9,0-1.3,0.1c-0.4,0-0.8,0.1-1.1,0.2c-0.4,0.1-0.7,0.2-1.1,0.4c-0.4,0.2-0.7,0.4-1.1,0.6l1.3,2.6c0.4-0.3,0.8-0.5,1.3-0.7
	c0.4-0.2,1-0.3,1.5-0.3c0.4,0,0.7,0.1,1,0.2c0.3,0.1,0.5,0.2,0.7,0.4c0.2,0.2,0.3,0.4,0.4,0.6c0.1,0.2,0.1,0.5,0.1,0.7
	c0,0.3-0.1,0.7-0.2,1c-0.1,0.4-0.3,0.7-0.5,1c-0.2,0.3-0.4,0.7-0.7,1c-0.2,0.3-0.5,0.6-0.7,0.9c-0.3,0.3-0.6,0.7-0.9,1
	c-0.3,0.3-0.6,0.6-0.9,0.9c-0.3,0.3-0.7,0.6-1.1,0.9C56,13.7,55.5,14,55,14.5v2.2H65.2z M41.4,7.5v3.2h3.3v2.4
	c-0.3,0.2-0.6,0.3-1,0.3c-0.4,0.1-0.8,0.1-1.4,0.1c-0.7,0-1.3-0.1-1.9-0.4c-0.6-0.2-1.1-0.6-1.5-1c-0.4-0.4-0.8-1-1-1.6
	c-0.2-0.6-0.4-1.3-0.4-2.1c0-0.7,0.1-1.4,0.3-2c0.2-0.6,0.5-1.1,1-1.6c0.4-0.4,0.9-0.8,1.6-1c0.6-0.2,1.3-0.4,2.2-0.4
	c1.3,0,2.5,0.3,3.7,0.9l1.6-3.1c-0.8-0.4-1.7-0.8-2.6-1C44.3,0.1,43.3,0,42.2,0c-1.2,0-2.4,0.2-3.5,0.6s-2,1-2.8,1.7
	C35.2,3.1,34.5,4,34.1,5c-0.5,1-0.7,2.2-0.7,3.5s0.2,2.4,0.7,3.4c0.4,1,1.1,1.9,1.8,2.7c0.8,0.7,1.7,1.3,2.7,1.7
	c1,0.4,2.2,0.6,3.4,0.6c1.3,0,2.4-0.1,3.4-0.4s1.9-0.7,2.9-1.2V7.5H41.4z M30.3,12.2c-0.6,0.4-1.3,0.7-2,0.9
	c-0.7,0.2-1.4,0.3-2.1,0.3c-0.8,0-1.5-0.1-2.1-0.3c-0.6-0.2-1.1-0.6-1.6-1s-0.8-0.9-1-1.5c-0.2-0.6-0.3-1.3-0.3-2.1s0.1-1.4,0.3-2.1
	c0.2-0.6,0.6-1.1,1-1.6c0.4-0.4,0.9-0.8,1.6-1c0.6-0.2,1.3-0.3,2.1-0.3c0.7,0,1.3,0.1,2,0.3c0.7,0.2,1.3,0.5,1.9,0.8l1.2-3.2
	c-0.7-0.4-1.6-0.8-2.4-1C28,0.1,27.1,0,26.2,0c-1.3,0-2.6,0.2-3.7,0.6c-1.1,0.4-2,1-2.8,1.8c-0.8,0.8-1.4,1.7-1.8,2.7
	c-0.4,1-0.6,2.2-0.6,3.4c0,1.2,0.2,2.3,0.6,3.4c0.4,1,1,1.9,1.8,2.7c0.8,0.8,1.7,1.3,2.8,1.8c1.1,0.4,2.3,0.6,3.7,0.6
	c0.9,0,1.9-0.1,2.8-0.4c0.9-0.3,1.8-0.6,2.5-1.1L30.3,12.2z M16.6,16.7L8.9,0.1H8.4L0.6,16.7h3.9l1.2-3h5.7l1.2,3H16.6z M10.2,10.8
	H7l1.6-3.9L10.2,10.8z"/>
</svg>
