<?xml version="1.0" encoding="utf-8"?>
<!-- Generator: Adobe Illustrator 22.0.1, SVG Export Plug-In . SVG Version: 6.00 Build 0)  -->
<svg version="1.1" id="Layer_1" xmlns="http://www.w3.org/2000/svg" xmlns:xlink="http://www.w3.org/1999/xlink" x="0px" y="0px"
	 viewBox="0 0 287.2 49.9" style="enable-background:new 0 0 287.2 49.9;" xml:space="preserve">
<style type="text/css">
	.st0{fill:#002E6D;}
</style>
<g>
	<path class="st0" d="M5.5,0.1h2.4l5.1,12h-2.7L9.2,9.4h-5l-1.1,2.7H0.4L5.5,0.1z M8.3,7.1L6.7,3.3L5.1,7.1H8.3z"/>
	<path class="st0" d="M14.8,0.2h2.8l3.1,5l3.1-5h2.8v11.9h-2.6V4.3l-3.3,5.1h-0.1l-3.3-5v7.7h-2.6V0.2z"/>
	<path class="st0" d="M29.7,0.2h9v2.3h-6.4v2.4h5.6v2.3h-5.6v2.5h6.5v2.3h-9.1V0.2z"/>
	<path class="st0" d="M41.3,0.2h5.4c1.5,0,2.7,0.4,3.5,1.2c0.7,0.7,1,1.6,1,2.7v0c0,1.9-1,3.1-2.5,3.7l2.9,4.2h-3.1L46,8.3h0h-2v3.8
		h-2.6V0.2z M46.6,6c1.3,0,2-0.7,2-1.7v0c0-1.1-0.8-1.7-2.1-1.7H44V6H46.6z"/>
	<path class="st0" d="M53.8,0.2h2.6v11.9h-2.6V0.2z"/>
	<path class="st0" d="M58.8,6.2L58.8,6.2C58.8,2.8,61.4,0,65,0c2.2,0,3.6,0.7,4.7,1.8l-1.7,1.9c-0.9-0.8-1.9-1.3-3-1.3
		c-2,0-3.5,1.7-3.5,3.7v0c0,2,1.4,3.7,3.5,3.7c1.4,0,2.2-0.5,3.1-1.4l1.7,1.7c-1.2,1.3-2.6,2.1-4.9,2.1C61.4,12.3,58.8,9.6,58.8,6.2
		z"/>
	<path class="st0" d="M76,0.1h2.4l5.1,12h-2.7l-1.1-2.7h-5l-1.1,2.7h-2.7L76,0.1z M78.7,7.1l-1.6-3.9l-1.6,3.9H78.7z"/>
	<path class="st0" d="M85.3,0.2h2.4l5.6,7.3V0.2h2.6v11.9h-2.2l-5.8-7.6v7.6h-2.6V0.2z"/>
	<path class="st0" d="M103.3,6.2L103.3,6.2c0-3.4,2.5-6.2,6.2-6.2c2.2,0,3.6,0.7,4.7,1.8l-1.7,1.9c-0.9-0.8-1.9-1.3-3-1.3
		c-2,0-3.5,1.7-3.5,3.7v0c0,2,1.4,3.7,3.5,3.7c1.4,0,2.2-0.5,3.1-1.4l1.7,1.7c-1.2,1.3-2.6,2.1-4.9,2.1
		C105.9,12.3,103.3,9.6,103.3,6.2z"/>
	<path class="st0" d="M115.4,6.2L115.4,6.2c0-3.4,2.7-6.2,6.3-6.2c3.7,0,6.3,2.7,6.3,6.1v0c0,3.4-2.7,6.2-6.3,6.2
		C118,12.3,115.4,9.6,115.4,6.2z M125.3,6.2L125.3,6.2c0-2.1-1.5-3.8-3.6-3.8c-2.1,0-3.6,1.7-3.6,3.7v0c0,2,1.5,3.7,3.6,3.7
		S125.3,8.2,125.3,6.2z"/>
	<path class="st0" d="M130.4,0.2h2.6v9.5h5.9v2.4h-8.6V0.2z"/>
	<path class="st0" d="M140.8,0.2h2.6v9.5h5.9v2.4h-8.5V0.2z"/>
	<path class="st0" d="M151.2,0.2h9v2.3h-6.4v2.4h5.6v2.3h-5.6v2.5h6.5v2.3h-9.1V0.2z"/>
	<path class="st0" d="M162,6.2L162,6.2c0-3.4,2.6-6.2,6.2-6.2c2.1,0,3.4,0.6,4.7,1.6l-1.6,2c-0.9-0.8-1.7-1.2-3.1-1.2
		c-1.9,0-3.4,1.7-3.4,3.7v0c0,2.2,1.5,3.8,3.6,3.8c1,0,1.8-0.2,2.5-0.7V7.5h-2.6V5.3h5.2v5.2c-1.2,1-2.9,1.9-5.1,1.9
		C164.6,12.3,162,9.7,162,6.2z"/>
	<path class="st0" d="M176.1,0.2h9v2.3h-6.4v2.4h5.6v2.3h-5.6v2.5h6.5v2.3h-9.1V0.2z"/>
	<path class="st0" d="M192,6.2L192,6.2c0-3.4,2.7-6.2,6.3-6.2s6.3,2.7,6.3,6.1v0c0,3.4-2.7,6.2-6.3,6.2C194.7,12.3,192,9.6,192,6.2z
		 M202,6.2L202,6.2c0-2.1-1.5-3.8-3.6-3.8c-2.1,0-3.6,1.7-3.6,3.7v0c0,2,1.5,3.7,3.6,3.7S202,8.2,202,6.2z"/>
	<path class="st0" d="M207.1,0.2h9.1v2.4h-6.4v2.5h5.7v2.4h-5.7v4.6h-2.6V0.2z"/>
	<path class="st0" d="M0.9,25.2L0.9,25.2c0-3.4,2.6-6.2,6.2-6.2c2.1,0,3.4,0.6,4.7,1.6l-1.6,2c-0.9-0.8-1.7-1.2-3.1-1.2
		c-1.9,0-3.4,1.7-3.4,3.7v0c0,2.2,1.5,3.8,3.6,3.8c1,0,1.8-0.2,2.5-0.7v-1.7H7.1v-2.3h5.2v5.2c-1.2,1-2.9,1.9-5.1,1.9
		C3.5,31.3,0.9,28.7,0.9,25.2z"/>
	<path class="st0" d="M18.7,19.1h2.4l5.1,12h-2.7l-1.1-2.7h-5l-1.1,2.7h-2.7L18.7,19.1z M21.4,26.1l-1.6-3.9l-1.6,3.9H21.4z"/>
	<path class="st0" d="M27.2,29.4l1.5-1.9c1.1,0.9,2.2,1.4,3.6,1.4c1.1,0,1.7-0.4,1.7-1.1v0c0-0.7-0.4-1-2.4-1.5
		c-2.4-0.6-3.9-1.3-3.9-3.6v0c0-2.2,1.7-3.6,4.2-3.6c1.7,0,3.2,0.5,4.4,1.5l-1.4,2c-1.1-0.7-2.1-1.2-3.1-1.2c-1,0-1.5,0.5-1.5,1v0
		c0,0.8,0.5,1,2.6,1.6c2.4,0.6,3.8,1.5,3.8,3.6v0c0,2.4-1.8,3.7-4.4,3.7C30.5,31.3,28.7,30.6,27.2,29.4z"/>
	<path class="st0" d="M41.7,21.6h-3.6v-2.4h9.9v2.4h-3.6v9.5h-2.6V21.6z"/>
	<path class="st0" d="M49.8,19.2h5.4c1.5,0,2.7,0.4,3.5,1.2c0.7,0.7,1,1.6,1,2.7v0c0,1.9-1,3.1-2.5,3.7l2.9,4.2H57l-2.5-3.8h0h-2
		v3.8h-2.6V19.2z M55.1,25c1.3,0,2-0.7,2-1.7v0c0-1.1-0.8-1.7-2.1-1.7h-2.6V25H55.1z"/>
	<path class="st0" d="M61.5,25.2L61.5,25.2c0-3.4,2.7-6.2,6.3-6.2c3.7,0,6.3,2.7,6.3,6.1v0c0,3.4-2.7,6.2-6.3,6.2
		C64.1,31.3,61.5,28.6,61.5,25.2z M71.4,25.2L71.4,25.2c0-2.1-1.5-3.8-3.6-3.8c-2.1,0-3.6,1.7-3.6,3.7v0c0,2,1.5,3.7,3.6,3.7
		S71.4,27.2,71.4,25.2z"/>
	<path class="st0" d="M76.5,19.2h9v2.3h-6.4v2.4h5.6v2.3h-5.6v2.5h6.5v2.3h-9.1V19.2z"/>
	<path class="st0" d="M88.1,19.2h2.4l5.6,7.3v-7.3h2.6v11.9h-2.2l-5.8-7.6v7.6h-2.6V19.2z"/>
	<path class="st0" d="M104.1,21.6h-3.6v-2.4h9.9v2.4h-3.6v9.5h-2.6V21.6z"/>
	<path class="st0" d="M112.2,19.2h9v2.3h-6.4v2.4h5.6v2.3h-5.6v2.5h6.5v2.3h-9.1V19.2z"/>
	<path class="st0" d="M123.9,19.2h5.4c1.5,0,2.7,0.4,3.5,1.2c0.7,0.7,1,1.6,1,2.7v0c0,1.9-1,3.1-2.5,3.7l2.9,4.2h-3.1l-2.5-3.8h0h-2
		v3.8h-2.6V19.2z M129.1,25c1.3,0,2-0.7,2-1.7v0c0-1.1-0.8-1.7-2.1-1.7h-2.6V25H129.1z"/>
	<path class="st0" d="M135.5,25.2L135.5,25.2c0-3.4,2.7-6.2,6.3-6.2c3.7,0,6.3,2.7,6.3,6.1v0c0,3.4-2.7,6.2-6.3,6.2
		C138.2,31.3,135.5,28.6,135.5,25.2z M145.4,25.2L145.4,25.2c0-2.1-1.5-3.8-3.6-3.8c-2.1,0-3.6,1.7-3.6,3.7v0c0,2,1.5,3.7,3.6,3.7
		C144,28.9,145.4,27.2,145.4,25.2z"/>
	<path class="st0" d="M150.6,19.2h2.6v9.5h5.9v2.4h-8.5V19.2z"/>
	<path class="st0" d="M160.2,25.2L160.2,25.2c0-3.4,2.7-6.2,6.3-6.2c3.7,0,6.3,2.7,6.3,6.1v0c0,3.4-2.7,6.2-6.3,6.2
		S160.2,28.6,160.2,25.2z M170.1,25.2L170.1,25.2c0-2.1-1.5-3.8-3.6-3.8s-3.6,1.7-3.6,3.7v0c0,2,1.5,3.7,3.6,3.7
		S170.1,27.2,170.1,25.2z"/>
	<path class="st0" d="M174.7,25.2L174.7,25.2c0-3.4,2.6-6.2,6.2-6.2c2.1,0,3.4,0.6,4.7,1.6l-1.6,2c-0.9-0.8-1.7-1.2-3.1-1.2
		c-1.9,0-3.4,1.7-3.4,3.7v0c0,2.2,1.5,3.8,3.6,3.8c1,0,1.8-0.2,2.5-0.7v-1.7h-2.6v-2.3h5.2v5.2c-1.2,1-2.9,1.9-5.1,1.9
		C177.2,31.3,174.7,28.7,174.7,25.2z"/>
	<path class="st0" d="M191.5,26.4l-4.6-7.2h3.1l2.8,4.8l2.9-4.8h3l-4.6,7.2v4.7h-2.6V26.4z"/>
</g>
<g>
	<path class="st0" d="M5.6,40.4h0.8l1.4,7.8H7l-0.4-2H2.4l-1.5,2H0L5.6,40.4z M6.5,45.3l-0.7-3.9L3,45.3H6.5z"/>
	<path class="st0" d="M9.3,45.9c0-2,1.5-3.5,3.2-3.5c1.2,0,1.8,0.7,2.1,1.4l1-3.6h0.8l-2.1,8h-0.8l0.3-1c-0.5,0.6-1.2,1.1-2.1,1.1
		C10.3,48.3,9.3,47.3,9.3,45.9z M14.3,44.8c0-1-0.7-1.8-1.8-1.8c-1.4,0-2.4,1.3-2.4,2.7c0,1.1,0.7,1.7,1.6,1.7
		C13.1,47.5,14.3,46.2,14.3,44.8z"/>
	<path class="st0" d="M17,42.5h0.9l0.6,4.7l3.1-4.7h1l-4,5.7h-0.7L17,42.5z"/>
	<path class="st0" d="M22.4,46.7c0-1.3,1.1-2.1,2.5-2.1c0.8,0,1.5,0.2,2,0.3l0-0.1c0-0.2,0.1-0.4,0.1-0.5c0-0.7-0.5-1.1-1.5-1.1
		c-0.6,0-1.1,0.1-1.6,0.3l-0.2-0.7c0.6-0.2,1.2-0.4,1.9-0.4c1.4,0,2.2,0.7,2.2,1.8c0,0.2,0,0.5-0.1,0.8l-0.9,3.2h-0.8l0.2-0.9
		c-0.5,0.6-1.2,1-2.1,1C23.2,48.3,22.4,47.7,22.4,46.7z M26.7,45.9l0.1-0.4c-0.5-0.1-1.1-0.3-1.8-0.3c-1,0-1.7,0.5-1.7,1.3
		c0,0.6,0.5,1,1.2,1C25.4,47.6,26.4,46.9,26.7,45.9z"/>
	<path class="st0" d="M30.2,42.5h0.8l-0.2,0.9c0.5-0.6,1.1-1,2-1c1.1,0,1.8,0.7,1.8,1.8c0,0.3-0.1,0.6-0.1,0.9l-0.8,3.2h-0.8
		l0.9-3.2c0.1-0.2,0.1-0.5,0.1-0.6c0-0.7-0.5-1.2-1.3-1.2c-0.9,0-1.8,0.8-2.1,1.8l-0.9,3.2h-0.8L30.2,42.5z"/>
	<path class="st0" d="M35.8,45.8c0-1.9,1.5-3.5,3.3-3.5c1.2,0,1.9,0.6,2.3,1.3l-0.7,0.4c-0.3-0.6-0.8-1-1.6-1
		c-1.3,0-2.4,1.3-2.4,2.7c0,1.1,0.8,1.8,1.7,1.8c0.7,0,1.2-0.3,1.7-0.7l0.5,0.6c-0.6,0.5-1.3,0.9-2.2,0.9
		C37,48.3,35.8,47.4,35.8,45.8z"/>
	<path class="st0" d="M43.3,42.5h0.8l-1.5,5.7h-0.8L43.3,42.5z M43.8,40.3h1l-0.3,0.9h-1L43.8,40.3z"/>
	<path class="st0" d="M46.1,42.5h0.8l-0.2,0.9c0.5-0.6,1.1-1,2-1c1.1,0,1.8,0.7,1.8,1.8c0,0.3-0.1,0.6-0.1,0.9l-0.8,3.2h-0.8
		l0.9-3.2c0.1-0.2,0.1-0.5,0.1-0.6c0-0.7-0.5-1.2-1.3-1.2c-0.9,0-1.8,0.8-2.1,1.8l-0.9,3.2h-0.8L46.1,42.5z"/>
	<path class="st0" d="M50.9,48.9l0.5-0.6c0.6,0.5,1.4,0.9,2.2,0.9c0.7,0,1.3-0.2,1.6-0.6c0.4-0.3,0.6-0.8,0.7-1.4l0.2-0.6
		c-0.6,0.6-1.2,1-2.2,1c-1.2,0-2.3-0.8-2.3-2.1c0-1.9,1.6-3.2,3.2-3.2c1.2,0,1.8,0.7,2.1,1.4l0.3-1.2h0.8l-1.3,4.9
		c-0.2,0.9-0.5,1.4-0.9,1.8c-0.5,0.5-1.2,0.8-2.2,0.8C52.6,49.9,51.6,49.6,50.9,48.9z M56.6,44.7c0-0.8-0.7-1.6-1.7-1.6
		c-1.2,0-2.3,1-2.3,2.4c0,1,0.8,1.5,1.7,1.5C55.5,47,56.6,45.9,56.6,44.7z"/>
	<path class="st0" d="M62.5,45c0-2.4,2-4.7,4.7-4.7c1.6,0,2.4,0.7,2.9,1.4l-0.7,0.5c-0.5-0.6-1.1-1.1-2.3-1.1
		c-2.1,0-3.7,1.9-3.7,3.9c0,1.6,1.1,2.5,2.6,2.5c0.8,0,1.5-0.2,2-0.5l0.6-2.1h-2.3l0.2-0.8h3.2l-1,3.5c-0.8,0.5-1.7,0.8-2.7,0.8
		C64.1,48.3,62.5,47.1,62.5,45z"/>
	<path class="st0" d="M70.5,46.7c0-1.3,1.1-2.1,2.5-2.1c0.8,0,1.5,0.2,2,0.3l0-0.1c0-0.2,0.1-0.4,0.1-0.5c0-0.7-0.5-1.1-1.5-1.1
		c-0.6,0-1.1,0.1-1.6,0.3l-0.2-0.7c0.6-0.2,1.2-0.4,1.9-0.4c1.4,0,2.2,0.7,2.2,1.8c0,0.2,0,0.5-0.1,0.8L75,48.1h-0.8l0.2-0.9
		c-0.5,0.6-1.2,1-2.1,1C71.3,48.3,70.5,47.7,70.5,46.7z M74.8,45.9l0.1-0.4c-0.5-0.1-1.1-0.3-1.8-0.3c-1,0-1.7,0.5-1.7,1.3
		c0,0.6,0.5,1,1.2,1C73.5,47.6,74.5,46.9,74.8,45.9z"/>
	<path class="st0" d="M76.6,47.3l0.5-0.5c0.6,0.6,1.3,0.8,2,0.8c0.6,0,1.3-0.4,1.3-0.9c0-0.4-0.3-0.6-1.1-1c-1-0.4-1.6-0.8-1.6-1.6
		c0-1,0.8-1.7,2.2-1.7c0.8,0,1.6,0.4,2.1,0.8l-0.5,0.6C81,43.3,80.4,43,79.8,43c-0.8,0-1.2,0.4-1.2,0.9c0,0.4,0.2,0.6,1.1,1
		c1,0.4,1.6,0.8,1.6,1.6c0,1.1-1,1.8-2.2,1.8C78.1,48.3,77.2,47.9,76.6,47.3z"/>
	<path class="st0" d="M82.9,47.1c0-0.2,0-0.4,0.1-0.6l0.9-3.3h-0.8l0.2-0.7h0.8l0.5-1.7h0.8l-0.5,1.7h1.8l-0.2,0.7h-1.8l-0.9,3.3
		c0,0.1,0,0.3,0,0.4c0,0.4,0.3,0.6,0.8,0.6c0.3,0,0.5-0.1,0.8-0.2l-0.2,0.8c-0.3,0.1-0.6,0.2-0.9,0.2C83.5,48.2,82.9,47.9,82.9,47.1
		z"/>
	<path class="st0" d="M88.1,42.5h0.8l-0.4,1.5c0.7-1,1.6-1.7,2.7-1.6L91,43.3h-0.1c-1.2,0-2.5,0.9-2.9,2.6l-0.6,2.2h-0.8L88.1,42.5z
		"/>
	<path class="st0" d="M91.3,45.7c0-1.8,1.5-3.4,3.3-3.4c1.6,0,2.6,1.1,2.6,2.5c0,1.8-1.6,3.4-3.4,3.4C92.3,48.3,91.3,47.2,91.3,45.7
		z M96.4,44.9c0-1.2-0.7-1.8-1.8-1.8c-1.3,0-2.4,1.3-2.4,2.6c0,1.2,0.7,1.8,1.8,1.8C95.2,47.5,96.4,46.3,96.4,44.9z"/>
	<path class="st0" d="M99.2,45.8c0,1,0.7,1.7,1.7,1.7c0.7,0,1.2-0.3,1.7-0.7l0.4,0.6c-0.6,0.5-1.2,0.8-2.2,0.8c-1.5,0-2.5-1-2.5-2.4
		c0-1.7,1.4-3.5,3.3-3.5c1.4,0,2.2,1,2.2,2.2c0,0.4-0.1,0.8-0.2,1.1h-4.4C99.2,45.7,99.2,45.8,99.2,45.8z M103,44.9
		c0-0.1,0-0.2,0-0.4c0-0.8-0.4-1.5-1.4-1.5c-1.1,0-2,0.8-2.3,1.9H103z"/>
	<path class="st0" d="M106.1,42.5h0.8l-0.2,0.9c0.5-0.6,1.1-1,2-1c1.1,0,1.8,0.7,1.8,1.8c0,0.3-0.1,0.6-0.1,0.9l-0.8,3.2h-0.8
		l0.9-3.2c0.1-0.2,0.1-0.5,0.1-0.6c0-0.7-0.5-1.2-1.3-1.2c-0.9,0-1.8,0.8-2.1,1.8l-0.9,3.2h-0.8L106.1,42.5z"/>
	<path class="st0" d="M111.8,47.1c0-0.2,0-0.4,0.1-0.6l0.9-3.3H112l0.2-0.7h0.8l0.5-1.7h0.8l-0.5,1.7h1.8l-0.2,0.7h-1.8l-0.9,3.3
		c0,0.1,0,0.3,0,0.4c0,0.4,0.3,0.6,0.8,0.6c0.3,0,0.5-0.1,0.8-0.2l-0.2,0.8c-0.3,0.1-0.6,0.2-0.9,0.2
		C112.4,48.2,111.8,47.9,111.8,47.1z"/>
	<path class="st0" d="M116.6,45.8c0,1,0.7,1.7,1.7,1.7c0.7,0,1.2-0.3,1.7-0.7l0.4,0.6c-0.6,0.5-1.2,0.8-2.2,0.8
		c-1.5,0-2.5-1-2.5-2.4c0-1.7,1.4-3.5,3.3-3.5c1.4,0,2.2,1,2.2,2.2c0,0.4-0.1,0.8-0.2,1.1h-4.4C116.6,45.7,116.6,45.8,116.6,45.8z
		 M120.4,44.9c0-0.1,0-0.2,0-0.4c0-0.8-0.4-1.5-1.4-1.5c-1.1,0-2,0.8-2.3,1.9H120.4z"/>
	<path class="st0" d="M123.5,42.5h0.8l-0.4,1.5c0.7-1,1.6-1.7,2.7-1.6l-0.2,0.9h-0.1c-1.2,0-2.5,0.9-2.9,2.6l-0.6,2.2H122
		L123.5,42.5z"/>
	<path class="st0" d="M126.7,45.7c0-1.8,1.5-3.4,3.3-3.4c1.6,0,2.6,1.1,2.6,2.5c0,1.8-1.6,3.4-3.4,3.4
		C127.7,48.3,126.7,47.2,126.7,45.7z M131.8,44.9c0-1.2-0.7-1.8-1.8-1.8c-1.3,0-2.4,1.3-2.4,2.6c0,1.2,0.7,1.8,1.8,1.8
		C130.6,47.5,131.8,46.3,131.8,44.9z"/>
	<path class="st0" d="M135.6,40.1h0.8l-2.2,8h-0.8L135.6,40.1z"/>
	<path class="st0" d="M136.6,45.7c0-1.8,1.5-3.4,3.3-3.4c1.6,0,2.6,1.1,2.6,2.5c0,1.8-1.6,3.4-3.4,3.4
		C137.6,48.3,136.6,47.2,136.6,45.7z M141.6,44.9c0-1.2-0.7-1.8-1.8-1.8c-1.3,0-2.4,1.3-2.4,2.6c0,1.2,0.7,1.8,1.8,1.8
		C140.5,47.5,141.6,46.3,141.6,44.9z"/>
	<path class="st0" d="M142.9,48.9l0.5-0.6c0.6,0.5,1.4,0.9,2.2,0.9c0.7,0,1.3-0.2,1.6-0.6c0.4-0.3,0.5-0.8,0.7-1.4l0.2-0.6
		c-0.6,0.6-1.2,1-2.2,1c-1.2,0-2.3-0.8-2.3-2.1c0-1.9,1.6-3.2,3.2-3.2c1.2,0,1.8,0.7,2.1,1.4l0.3-1.2h0.8l-1.3,4.9
		c-0.2,0.9-0.5,1.4-0.9,1.8c-0.5,0.5-1.2,0.8-2.2,0.8C144.6,49.9,143.6,49.6,142.9,48.9z M148.6,44.7c0-0.8-0.7-1.6-1.8-1.6
		c-1.2,0-2.3,1-2.3,2.4c0,1,0.8,1.5,1.7,1.5C147.5,47,148.6,45.9,148.6,44.7z"/>
	<path class="st0" d="M149.5,49.5l0.5-0.6c0.2,0.2,0.6,0.3,0.9,0.3c0.5,0,0.9-0.3,1.5-1.1l-1-5.7h0.9l0.8,4.7l3.1-4.7h1l-3.9,5.9
		c-0.8,1.2-1.5,1.6-2.3,1.6C150.2,49.9,149.8,49.8,149.5,49.5z"/>
	<path class="st0" d="M155.6,49.1c0.6-0.2,0.9-0.5,1-1h-0.4l0.3-1.2h1l-0.3,1c-0.3,1-0.7,1.3-1.6,1.5L155.6,49.1z"/>
	<path class="st0" d="M164.6,40.4h0.9l-2.1,7.7h-0.9L164.6,40.4z"/>
	<path class="st0" d="M167.1,42.5h0.8l-0.2,0.9c0.5-0.6,1.1-1,1.9-1c1,0,1.5,0.6,1.6,1.3c0.5-0.8,1.3-1.3,2.3-1.3
		c1,0,1.7,0.7,1.7,1.8c0,0.3-0.1,0.6-0.2,0.9l-0.8,3.2h-0.8l0.9-3.2c0-0.2,0.1-0.5,0.1-0.6c0-0.7-0.4-1.2-1.2-1.2
		c-0.8,0-1.7,0.8-2,1.8l-0.8,3.2h-0.8l0.9-3.2c0.1-0.2,0.1-0.5,0.1-0.6c0-0.7-0.5-1.2-1.2-1.2c-0.8,0-1.7,0.8-2,1.8l-0.9,3.2h-0.8
		L167.1,42.5z"/>
	<path class="st0" d="M177.6,42.5h0.8l-0.3,1c0.5-0.6,1.2-1.1,2.2-1.1c1.3,0,2.3,1,2.3,2.4c0,2-1.5,3.5-3.2,3.5
		c-1.2,0-1.8-0.7-2.1-1.4l-0.8,3h-0.8L177.6,42.5z M181.7,44.8c0-1.1-0.6-1.7-1.6-1.7c-1.3,0-2.5,1.3-2.5,2.7c0,1,0.7,1.8,1.8,1.8
		C180.7,47.5,181.7,46.3,181.7,44.8z"/>
	<path class="st0" d="M184.9,42.5h0.8l-0.4,1.5c0.7-1,1.6-1.7,2.7-1.6l-0.2,0.9h-0.1c-1.2,0-2.5,0.9-2.9,2.6l-0.6,2.2h-0.8
		L184.9,42.5z"/>
	<path class="st0" d="M188.1,45.7c0-1.8,1.5-3.4,3.3-3.4c1.6,0,2.6,1.1,2.6,2.5c0,1.8-1.6,3.4-3.4,3.4
		C189.1,48.3,188.1,47.2,188.1,45.7z M193.2,44.9c0-1.2-0.7-1.8-1.8-1.8c-1.3,0-2.4,1.3-2.4,2.6c0,1.2,0.7,1.8,1.8,1.8
		C192,47.5,193.2,46.3,193.2,44.9z"/>
	<path class="st0" d="M195.3,42.5h0.9l0.6,4.7l3.1-4.7h1l-4,5.7h-0.7L195.3,42.5z"/>
	<path class="st0" d="M202.3,42.5h0.8l-1.5,5.7h-0.8L202.3,42.5z M202.8,40.3h1l-0.3,0.9h-1L202.8,40.3z"/>
	<path class="st0" d="M205.1,42.5h0.8l-0.2,0.9c0.5-0.6,1.1-1,2-1c1.1,0,1.8,0.7,1.8,1.8c0,0.3-0.1,0.6-0.1,0.9l-0.8,3.2h-0.8
		l0.9-3.2c0.1-0.2,0.1-0.5,0.1-0.6c0-0.7-0.5-1.2-1.3-1.2c-0.9,0-1.8,0.8-2.1,1.8l-0.9,3.2h-0.8L205.1,42.5z"/>
	<path class="st0" d="M209.9,48.9l0.5-0.6c0.6,0.5,1.4,0.9,2.2,0.9c0.7,0,1.3-0.2,1.6-0.6c0.4-0.3,0.6-0.8,0.7-1.4l0.2-0.6
		c-0.6,0.6-1.2,1-2.2,1c-1.2,0-2.3-0.8-2.3-2.1c0-1.9,1.6-3.2,3.2-3.2c1.2,0,1.8,0.7,2.1,1.4l0.3-1.2h0.8l-1.3,4.9
		c-0.2,0.9-0.5,1.4-0.9,1.8c-0.5,0.5-1.2,0.8-2.2,0.8C211.6,49.9,210.6,49.6,209.9,48.9z M215.6,44.7c0-0.8-0.7-1.6-1.8-1.6
		c-1.2,0-2.3,1-2.3,2.4c0,1,0.8,1.5,1.7,1.5C214.5,47,215.6,45.9,215.6,44.7z"/>
	<path class="st0" d="M223,40.4h2.4c1,0,1.7,0.2,2.2,0.7c0.4,0.4,0.6,0.8,0.6,1.4c0,1.8-1.5,2.8-3.8,2.8h-1.8l-0.7,2.7h-0.9
		L223,40.4z M224.4,44.6c1.8,0,2.8-0.7,2.8-2c0-0.4-0.1-0.7-0.4-0.9c-0.3-0.3-0.8-0.5-1.5-0.5h-1.7l-0.9,3.4H224.4z"/>
	<path class="st0" d="M228.3,46.7c0-1.3,1.1-2.1,2.5-2.1c0.8,0,1.5,0.2,2,0.3l0-0.1c0-0.2,0.1-0.4,0.1-0.5c0-0.7-0.5-1.1-1.5-1.1
		c-0.6,0-1.1,0.1-1.6,0.3l-0.2-0.7c0.6-0.2,1.2-0.4,1.9-0.4c1.4,0,2.2,0.7,2.2,1.8c0,0.2,0,0.5-0.1,0.8l-0.9,3.2h-0.8l0.2-0.9
		c-0.5,0.6-1.2,1-2.1,1C229.1,48.3,228.3,47.7,228.3,46.7z M232.5,45.9l0.1-0.4c-0.5-0.1-1.1-0.3-1.8-0.3c-1,0-1.7,0.5-1.7,1.3
		c0,0.6,0.5,1,1.2,1C231.3,47.6,232.3,46.9,232.5,45.9z"/>
	<path class="st0" d="M235.1,47.1c0-0.2,0-0.4,0.1-0.6l0.9-3.3h-0.8l0.2-0.7h0.8l0.5-1.7h0.8l-0.5,1.7h1.8l-0.2,0.7h-1.8l-0.9,3.3
		c0,0.1,0,0.3,0,0.4c0,0.4,0.3,0.6,0.8,0.6c0.3,0,0.5-0.1,0.8-0.2l-0.2,0.8c-0.3,0.1-0.6,0.2-0.9,0.2
		C235.7,48.2,235.1,47.9,235.1,47.1z"/>
	<path class="st0" d="M240.3,42.5h0.8l-1.5,5.7h-0.8L240.3,42.5z M240.8,40.3h1l-0.3,0.9h-1L240.8,40.3z"/>
	<path class="st0" d="M242.7,45.8c0,1,0.7,1.7,1.7,1.7c0.7,0,1.2-0.3,1.8-0.7l0.4,0.6c-0.6,0.5-1.2,0.8-2.2,0.8
		c-1.5,0-2.5-1-2.5-2.4c0-1.7,1.4-3.5,3.3-3.5c1.4,0,2.2,1,2.2,2.2c0,0.4-0.1,0.8-0.2,1.1h-4.4C242.7,45.7,242.7,45.8,242.7,45.8z
		 M246.5,44.9c0-0.1,0-0.2,0-0.4c0-0.8-0.4-1.5-1.4-1.5c-1.1,0-2,0.8-2.3,1.9H246.5z"/>
	<path class="st0" d="M249.6,42.5h0.8l-0.2,0.9c0.5-0.6,1.1-1,2-1c1.1,0,1.8,0.7,1.8,1.8c0,0.3-0.1,0.6-0.1,0.9l-0.8,3.2h-0.8
		l0.9-3.2c0.1-0.2,0.1-0.5,0.1-0.6c0-0.7-0.5-1.2-1.3-1.2c-0.9,0-1.8,0.8-2.1,1.8l-0.9,3.2h-0.8L249.6,42.5z"/>
	<path class="st0" d="M255.4,47.1c0-0.2,0-0.4,0.1-0.6l0.9-3.3h-0.8l0.2-0.7h0.8l0.5-1.7h0.8l-0.5,1.7h1.8l-0.2,0.7h-1.8l-0.9,3.3
		c0,0.1,0,0.3,0,0.4c0,0.4,0.3,0.6,0.8,0.6c0.3,0,0.5-0.1,0.8-0.2l-0.2,0.8c-0.3,0.1-0.6,0.2-0.9,0.2
		C255.9,48.2,255.4,47.9,255.4,47.1z"/>
	<path class="st0" d="M263.2,45.1c0-2.5,2.1-4.8,4.6-4.8c1.4,0,2.4,0.7,2.9,1.7l-0.7,0.5c-0.5-0.8-1.1-1.3-2.2-1.3
		c-2,0-3.6,1.9-3.6,3.9c0,1.5,1,2.4,2.4,2.4c1,0,1.7-0.4,2.4-1l0.6,0.6c-0.7,0.7-1.6,1.3-3,1.3C264.6,48.3,263.2,47.1,263.2,45.1z"
		/>
	<path class="st0" d="M270.7,46.7c0-1.3,1.1-2.1,2.5-2.1c0.8,0,1.5,0.2,2,0.3l0-0.1c0-0.2,0.1-0.4,0.1-0.5c0-0.7-0.5-1.1-1.5-1.1
		c-0.6,0-1.1,0.1-1.6,0.3l-0.2-0.7c0.6-0.2,1.2-0.4,1.9-0.4c1.4,0,2.2,0.7,2.2,1.8c0,0.2,0,0.5-0.1,0.8l-0.9,3.2h-0.8l0.2-0.9
		c-0.5,0.6-1.2,1-2.1,1C271.5,48.3,270.7,47.7,270.7,46.7z M275,45.9l0.1-0.4c-0.5-0.1-1.1-0.3-1.8-0.3c-1,0-1.7,0.5-1.7,1.3
		c0,0.6,0.5,1,1.2,1C273.7,47.6,274.7,46.9,275,45.9z"/>
	<path class="st0" d="M278.5,42.5h0.8l-0.4,1.5c0.7-1,1.6-1.7,2.7-1.6l-0.2,0.9h-0.1c-1.2,0-2.5,0.9-2.9,2.6l-0.6,2.2H277
		L278.5,42.5z"/>
	<path class="st0" d="M282.6,45.8c0,1,0.7,1.7,1.7,1.7c0.7,0,1.2-0.3,1.8-0.7l0.4,0.6c-0.6,0.5-1.2,0.8-2.2,0.8
		c-1.5,0-2.5-1-2.5-2.4c0-1.7,1.4-3.5,3.3-3.5c1.4,0,2.2,1,2.2,2.2c0,0.4-0.1,0.8-0.2,1.1h-4.4C282.6,45.7,282.6,45.8,282.6,45.8z
		 M286.4,44.9c0-0.1,0-0.2,0-0.4c0-0.8-0.4-1.5-1.4-1.5c-1.1,0-2,0.8-2.3,1.9H286.4z"/>
</g>
</svg>
