<?xml version="1.0" encoding="utf-8"?>
<!-- Generator: Adobe Illustrator 22.0.1, SVG Export Plug-In . SVG Version: 6.00 Build 0)  -->
<svg version="1.1" id="Layer_1" xmlns="http://www.w3.org/2000/svg" xmlns:xlink="http://www.w3.org/1999/xlink" x="0px" y="0px"
	 viewBox="0 0 198.1 178.6" style="enable-background:new 0 0 198.1 178.6;" xml:space="preserve">
<style type="text/css">
	.st0{fill:#FFFFFF;}
	.st1{fill:#E0F1F9;}
	.st2{fill:#002E6D;}
	.st3{fill:none;stroke:#002E6D;stroke-width:0.5;stroke-miterlimit:10;}
	.st4{fill:#980539;stroke:#980539;stroke-width:0.2609;stroke-miterlimit:10;}
	.st5{fill:#980539;}
	.st6{fill:#00437C;}
	.st7{fill:none;stroke:#00437C;stroke-width:0.172;}
	.st8{fill:none;stroke:#00437C;stroke-width:0.172;stroke-linecap:round;stroke-linejoin:round;}
	.st9{fill:none;stroke:#00437C;stroke-width:0.172;stroke-miterlimit:1;}
	.st10{fill:#00437C;stroke:#00437C;stroke-width:5.119964e-02;}
</style>
<g>
	<path class="st0" d="M195.7,103.6c-0.6,0-1,0.2-1.4,0.3c-0.1-0.8-0.2-1.7-0.8-2.4c0,0-0.1-0.1-0.1-0.1c0.2-0.4,0.3-0.9,0.3-1.4
		c0-2.1-1.8-3.6-4.5-3.6c-2.4,0-4,0.9-4.4,2.5c0,0,0-0.1,0-0.1c-0.1,0.2-0.2,0.5-0.2,1c0,0.9,0.4,1.7,1,2.3
		c-0.4,0.4-0.8,0.8-1.3,1.3c-0.1,0.1-0.2,0.2-0.3,0.3c-0.2,0.2-0.4,0.4-0.6,0.6c-0.9,0.5-2.1,1-2.9,1.3c0.3-0.8,0.7-1.8,0.7-2.9
		c0-0.4-0.1-0.8-0.2-1.1c2.2-0.5,3.9-3.4,4.2-5.1c0.1-0.5,0.1-1.1,0.1-1.7c0-1.4-1-2.6-2.4-2.6c-1.4,0-3.1,1.6-4.3,3c0,0,0,0,0,0
		l-0.2,0.2c-0.9,1-1,1.5-1,2.9c0,0.7,0.1,1.3,0.4,1.7c-0.9,0.3-1.8,1-2.8,2.3l-3.3-4.4c0.1-0.2,0.2-0.4,0.4-0.7c0.5-1,1.1-2,1.5-3.1
		c0.5-1.1,0.7-2.2,0.9-3.2c0,0,0-0.1,0-0.1c0-0.2,0.1-0.5,0.1-0.8c0-1.6-1.1-2.7-2.6-2.7c-1.8,0-3.5,1.1-5.1,3.4
		c-0.1,0.1-0.2,0.3-0.3,0.4l-7-9.2c0,0,0,0,0-0.1c0-0.9-0.2-1.8-0.6-2.6l24.3-55.5c0.3-0.7,0.2-1.6-0.4-2.2s-1.4-0.8-2.1-0.5
		l-58.4,20.4L76.1,0.5c-0.6-0.5-1.4-0.7-2.2-0.3c-0.7,0.3-1.2,1.1-1.2,1.9l1.4,61.9l-3.4,2c-0.5-0.8-0.9-1.7-1.4-2.5
		c-3.5-6.3-7.2-12.8-12.8-16.5c-0.1-0.1-0.2-0.2-0.4-0.3c-0.1,0-0.1-0.1-0.2-0.1c-0.1,0-0.1-0.1-0.2-0.1c-0.2-0.1-0.4-0.2-0.6-0.3
		c-2.1-1.1-4.2-1.5-4.2-1.5L50,43.2c-0.4-0.6-0.8-1.3-1.4-1.9C60.5,42,68,49.1,68.1,49.1c0.7,0.6,1.6,0.7,2.4,0.3
		c0.8-0.5,1.1-1.4,0.9-2.3l-6-20.7c-0.1-0.6-0.7-2.6-2.8-3.9c-1.9-1.2-4.4-1.3-7.3-0.5c-1.4,0.4-14.5,4.2-26.8,7.8L6.4,36.2
		c-2.7,0.8-4.6,2.1-5.6,4c-1.3,2.4-0.7,4.7-0.6,4.9l6,20.9c0.2,0.9,1,1.4,1.9,1.4c0,0,0,0,0,0c0.9,0,1.7-0.6,1.9-1.4
		c0-0.1,3.4-10.8,14.4-18c-0.3,1.6-0.2,3.1-0.1,4c-10.2,9.4-3.6,40.8-4.5,48.4l-0.4,2.4c-0.1,0.8-1.4,5.3-1.6,6.8
		c-0.3,1.7,0.2,3,0.7,3.7c0.5,0.7,1.4,2.1,4.7,2.9l-9.2,0.5c-0.8,0-1.5,0.6-1.8,1.3c-0.3,0.7-0.1,1.6,0.5,2.1l17,16.4l-6,22.8
		c-0.2,0.8,0.1,1.6,0.7,2.1c0.6,0.5,1.5,0.6,2.2,0.2l20.8-11.1l19.8,12.8c0.7,0.4,1.5,0.4,2.2,0c0.7-0.4,1-1.2,0.9-2l-1.5-8.2
		c0,0,0.1,0,0.1,0h1c0.5,0,1-0.2,1.4-0.6c0.4,0.3,0.8,0.6,1.4,0.6h0.9c1,0,1.8-0.7,2-1.7c0.7,1,1.9,1.7,3.3,1.7
		c0.7,0,1.4-0.2,1.9-0.5c0.6,0.3,1.3,0.5,2,0.5c0.7,0,1.3-0.2,1.8-0.4c0.4,0.3,0.9,0.4,1.5,0.4c0.6,0.9,1.6,1.5,2.7,1.7l4.8,22.2
		c0.2,0.8,0.8,1.4,1.6,1.5c0.1,0,0.3,0,0.4,0c0.6,0,1.3-0.3,1.6-0.9l17.2-24.8c0.2-0.1,0.4-0.1,0.6-0.2c0.5,0.2,1.1,0.4,1.8,0.4
		c1.1,0,2.1-0.4,2.9-1.1c0.2-0.2,0.4-0.5,0.5-0.8c0.9,1.2,2.3,1.9,3.9,1.9c0.9,0,1.8-0.3,2.6-0.7c0.6,0.4,1.4,0.7,2.3,0.7
		c0.8,0,1.5-0.2,2.1-0.6c0.5,0.4,1.2,0.6,1.9,0.6c0.3,0,0.6,0,0.8-0.1c0.1,0,0.2,0,0.3,0h0.8c0.2,0,0.4,0,0.5-0.1
		c0.2,0,0.3,0.1,0.5,0.1h0.8c0.5,0,0.9-0.2,1.3-0.5c0.6,0.4,1.3,0.6,2.1,0.6c0.8,0,1.4-0.2,1.9-0.5c0.6,0.3,1.3,0.5,2,0.5
		c1.1,0,2.1-0.4,2.9-1.1c0.4-0.4,0.6-0.9,0.6-1.5c0.1-0.2,0.2-0.5,0.2-0.8c0.1-1.2-0.3-2.3-1.1-3.1c-0.7-0.7-1.7-1.1-2.7-1.1
		c-0.7,0-1.4,0.2-2,0.6c-0.6-0.4-1.2-0.6-1.9-0.6c-0.4,0-0.9,0.1-1.2,0.2c-0.6-0.2-1.2-0.3-1.8-0.1c-0.1,0-0.2,0-0.3,0h-0.8
		c-0.2,0-0.4,0-0.5,0.1c-0.2,0-0.3-0.1-0.5-0.1h-0.8c-0.3,0-0.6,0.1-0.8,0.2c-0.2-0.1-0.5-0.2-0.8-0.2h-0.8c-0.4,0-0.7,0.1-1,0.3
		c-0.5-0.2-1.1-0.4-1.7-0.4c-0.3,0-0.5,0-0.8,0.1c0-0.1-0.1-0.1-0.1-0.2c-0.3-0.4-0.7-0.9-1.3-1.3c0.1,0,0.2,0,0.3,0
		c0.1,0,0.2,0,0.3,0h0.8c0.2,0,0.4,0,0.5-0.1c0.2,0,0.3,0.1,0.5,0.1h0.8c0.6,0,1.2-0.3,1.6-0.8c0.4,0.5,0.9,0.8,1.6,0.8h0.8
		c0.9,0,1.6-0.6,1.9-1.3c0,0,0,0,0.1,0c0.3,0.8,1,1.3,1.9,1.3h0.8c0.4,0,0.8-0.1,1.1-0.3c0.5,0.3,1.1,0.4,1.8,0.4
		c0.8,0,1.5-0.2,2.2-0.6c0.6,0.4,1.4,0.6,2.2,0.6c0.8,0,1.5-0.2,2.1-0.5c0.5,0.3,1.1,0.5,1.8,0.5c0.4,0,0.7-0.1,1.1-0.2
		c0.2,0.1,0.4,0.1,0.6,0.1h0.8c0.2,0,0.4,0,0.5-0.1c0.2,0,0.4,0.1,0.5,0.1h0.8c0.3,0,0.6-0.1,0.8-0.2c0.2,0.1,0.5,0.2,0.8,0.2h0.1
		c0.7,1.2,2,1.8,3.5,1.8c2.3,0,3.8-1.5,3.8-3.8v-3.5c0-1.1-0.9-2-2-2H160c-0.1,0-0.2,0-0.3,0c-0.3-0.1-0.6-0.1-0.9-0.1
		c-0.7,0-1.3,0.2-1.9,0.6c-0.5-0.4-1.2-0.6-1.9-0.6c-0.3,0-0.6,0-0.8,0.1c-0.1,0-0.1,0-0.2,0c-0.3-1.1-1.3-1.9-2.5-1.9
		c-0.6,0-1.2,0.2-1.7,0.6c-0.2-0.1-0.4-0.1-0.6-0.1h-0.8c-0.9,0-1.6,0.6-1.9,1.4c-0.3-0.1-0.6-0.1-1-0.1c-0.8,0-1.6,0.2-2.2,0.6
		c-0.6-0.4-1.4-0.6-2.2-0.6c-0.3,0-0.5,0-0.8,0.1v-0.2c0-1.1-1-2-2.1-2c-0.6,0-1.1,0.3-1.5,0.7l-1.1,1.3l-1.2-1.4
		c-0.4-0.4-1-0.7-1.6-0.7c-0.6,0-1.1,0.2-1.4,0.6c-0.4-0.6-1-0.9-1.7-0.9H129c-1.1,0-2,0.9-2,2v0.5c-0.2,0-0.3,0-0.5,0
		c-0.2,0-0.5,0-0.7,0.1l2.5-3.7h64.8l0.9,0.1c0.3,0,0.5,0,0.8-0.1h0.3l-0.2-0.1c0.4-0.2,0.8-0.5,1-0.9c0.4-0.7,0.3-1.6-0.2-2.2
		l-14.4-18.9c0.7-0.2,1.3-0.4,1.4-0.5c0,0,0,0,0,0c0.3-0.1,0.6-0.3,1-0.5c0.8,0.6,1.8,1,3,1c1.5,0,2.9-0.5,4.3-1.5
		c0.4,0.2,0.9,0.3,1.5,0.3c1.6,0,3.6-1,4.7-2.2c0,0,0.1-0.1,0.1-0.1c0.2-0.2,0.6-0.8,0.6-1.6C198.1,104.6,197,103.6,195.7,103.6z
		 M128.8,149.1c0.1,0,0.1,0.1,0.1,0.2c0,0.1-0.1,0.2-0.1,0.2c-0.1,0-0.1-0.1-0.1-0.2C128.7,149.3,128.7,149.2,128.8,149.1z
		 M124,148.4C124,148.4,124,148.4,124,148.4C124,148.3,124,148.3,124,148.4c0-0.1,0-0.1,0-0.1C124,148.3,124,148.3,124,148.4
		C124,148.3,124,148.3,124,148.4z"/>
	<g>
		<g>
			<polygon class="st1" points="156.1,80.9 181.4,23.1 121.9,43.9 74.8,2 76.2,65 21.8,96.9 45.4,104 38.9,117.3 14.2,118.7 
				32,135.9 25.7,159.9 47.6,148.2 68.4,161.6 64,137.2 83.2,121.5 95.6,176.6 131.5,124.8 194.3,131 			"/>
		</g>
		<g>
			<path class="st2" d="M43.2,98.2c0-0.1,1.5-0.9,1.6-0.9c0.3,1.1,2.5,3.7,8.9,3.6c-4.6-0.6-6.4-4.6-4-5.8c0.6-0.3,10.9-4,11.2-2.4
				c1,5.8-3.7,9.6-7.8,10.2C49.7,103.3,45.2,102.6,43.2,98.2"/>
			<g>
				<path class="st2" d="M72,103.2c-1.2,0.6-2.2,1-3.5,1.1c-0.8,0.1-1.7,0-2.5,0.1c-1.1,1.8-1.9,3.6-2.6,5.6
					c-0.6,1.6-0.5,3.6-1.3,5.1c-0.4,0.7-1.1,1.1-1.9,1.1c-0.3,0-0.8-0.1-1-0.5c-0.1-0.2,1.2-2.9,1.4-3.4c0.5-1.5,1.1-2.9,1.6-4.3
					c0.4-1.1,0.8-2.3,1.2-3.4c-0.6-0.1-2.1-0.3-3-0.7c-0.5-0.2-0.9-0.6-0.9-1.1c0-0.7,0.9-1,1.5-1c1.2,0,2.3,0.5,3.5,0.4
					c0.5-0.4,1.2-3.7,1.6-4.4c0.3-0.7,1.2-1.8,2.1-1.8c0.7,0,1.2,0.6,1.2,1.3c0,1-1.6,3.7-2.1,4.8c0.9-0.1,2.1,0,2.9-0.4
					c1.3-0.6,2.5-2.2,2.5-3.7c0-0.7-0.2-1.3-0.7-1.8c-1.5-1.8-2.2-2.8-4.6-3.2c-0.6-0.1-1.6-0.2-2.1-0.5c-0.2-0.1-0.2-0.2-0.2-0.4
					c0-0.5,0.3-0.7,0.3-1.1c0-0.5,1.2-0.5,1.5-0.5c1,0,1.9,0.3,2.8,0.7c2.7,1.3,6.4,3,6.4,6.5C75.9,100.4,74.4,102.1,72,103.2"/>
				<path class="st2" d="M96.7,96.3c-0.2,1.1-1.6,3.4-2.9,3.4c-0.8,0-0.9-0.7-0.9-1.3c0-1.1,0-1,0.8-1.8c1-1.1,2.3-2.3,2.7-2.3
					c0.3,0,0.4,0.4,0.4,0.6C96.8,95.4,96.8,95.9,96.7,96.3 M99.1,106.5c-0.9,0.9-2.6,1.8-3.3,2.1c-0.7,0.3-3.5,1.1-4.1,1.1
					c-0.9,0-2.3-0.6-2.8-1.4c-0.2-0.4-0.2-0.6-0.3-1c0.2-0.9,0.4-2.2,0.9-3c0.5-0.7,1.7-2.4,2.6-2.4c0.4,0,0.5,0.4,0.5,0.7
					c0,1.5-1.1,2.9-1.1,3.8c0,0.8,1.1,1.2,1.7,1.2c1.4,0,4.4-1.3,5.4-2.2c0.2-0.2,0.4-0.4,0.6-0.4c0.2,0,0.3,0.1,0.3,0.3
					C99.6,105.8,99.4,106.1,99.1,106.5"/>
				<path class="st2" d="M105.3,95.3c-0.7,0.3-2.2,3-3.1,5c-0.5,1.1-0.7,1.9-0.7,2.5c0.5-0.4,1.9-1.7,2.5-2.6
					c1.1-1.8,1.4-3.7,1.4-4.6C105.4,95.6,105.4,95.4,105.3,95.3 M107.6,106.7c0,0-2.4,1.6-2.7,1.8c-0.9,0.6-2.5,1.2-3.5,1.2
					c-0.6,0-2.1-0.8-2.5-1.3c-0.3-0.4-0.3-1-0.4-1.5c-0.3,0.2-0.8,0.3-1.2,0.3c-0.1,0-0.4,0-0.4-0.2c0-0.3,1.3-1.2,1.5-1.5
					c0.2-1.4,0.5-2.7,0.9-3.9c1.2-3.2,3.6-6.8,5.8-9.3c0.4-0.4,0.9-0.8,1.4-0.8c0.6,0,0.7,1,0.7,1.5c0,2.2-1.5,7-3,8.5
					c-1,1.1-2.8,2.4-3.4,3.2c0,0.3,0,0.6,0,0.9c0,1.1,0.3,2.3,1.6,2.3c1.7,0,4-2,4.8-2c0.2,0,0.4,0,0.4,0.3
					C107.9,106.3,107.7,106.6,107.6,106.7"/>
				<path class="st2" d="M118.2,106.3c-0.7,0.8-2.2,1.5-3.2,1.5c-0.7,0-1.2-0.3-1.5-0.9c-1.1,1.2-2.6,2.1-4.2,2.1
					c-1.2,0-2.5-0.6-2.5-2c0-1.3,0.6-1.5,1.3-2.2c1-1.1,1.6-1.6,2.8-2.3c0.7-0.4,1.1-0.9,1.6-1.6c0.1-0.1,0.2-0.7-0.1-0.6
					c-0.7,0.2-1.3,1-2.1,1c-0.7,0-1.4-0.6-1.4-1.3c0-0.2,0.1-0.4,0.1-0.5c0.2-0.9,1.9-0.9,2.4-0.9c1,0,2.5,0.3,2.5,1.6
					c0,1.2-1.3,2.6-1.9,3.6c-0.5,0.9-2,1.4-2,2.6c0,0.3,0.1,0.8,0.5,0.8c1,0,2.3-2,2.5-2.9c0.1-0.3,0.2-1.6,0.7-1.6
					c0.2,0,0.3,0.2,0.4,0.3c0.5,0.7,0.3,2.4,0.8,3.3c0.2,0.3,0.5,0.5,1,0.5c0.1,0,0.3,0,0.4-0.1c0.5-0.3,0.9-0.9,1.6-0.9
					c0.2,0,0.4,0.1,0.4,0.3C118.4,106,118.3,106.2,118.2,106.3"/>
				<path class="st2" d="M125.4,92.9c-1.1,0-1.2,2.5-1.2,3.2c0,1,0.1,1.9,0.4,2.9c0.2,0.7,0.8,2.9,1.2,3.4c1-1.5,1.5-3.2,1.5-4.9
					C127.4,96.4,126.9,92.9,125.4,92.9 M129.8,107.1c-0.3,0.2-0.7,0.2-1.1,0.2c-1.9,0-2.2-0.4-3.5-1.6c-0.4,1.5-3.9,4.2-5.4,4.6
					c-0.3,0.1-0.6,0.1-0.9,0.1c-1.8,0-2.2-1.1-2.2-2.6c0-4,2.2-5.8,3.6-5.8c0.8,0,1.5,0.4,1.5,1.3c0,0.5-0.4,0.6-0.8,0.6
					c-0.8,0-1.2,1.7-1.2,2.3c0,0.6,0.2,1.2,0.9,1.2c0.6,0,2.5-1.1,3.3-1.9c0.3-0.3,0.5-0.6,0.4-0.8c-0.8-1.6-1.6-2.9-2.1-4.6
					c-0.3-0.9-0.3-2-0.3-3c0-1.2,0.1-2.5,0.4-3.7c0.4-1.5,1.7-2.8,3.3-2.8c1.9,0,2.9,3.8,2.9,5.4c0,2-0.8,6.2-2,7.9
					c0,1.3,1.6,2.4,2.7,2.4c0.7,0,1.1-0.7,1.6-0.7c0.2,0,0.3,0.2,0.3,0.3C131.2,106.1,130.2,106.9,129.8,107.1"/>
				<path class="st2" d="M135.8,100.7c-0.5,0-1,0.4-1.5,1c-0.5,0.6-1.1,1.5-1.1,2.3c0.5-0.1,1.3-0.5,2.1-1c0.8-0.6,1.2-1,1.1-2
					C136.4,100.7,136,100.7,135.8,100.7 M142.2,105.9c-0.6,0.8-2.1,1.7-2.7,2.1c-1.3,0.8-2.7,1.9-4.3,1.9c-0.3,0-0.6,0-0.9-0.1
					c-2.1-0.5-2.7-1.5-3.6-3.4c-0.5,0.3-1,0.8-1.7,0.8c-0.1,0-0.4-0.1-0.4-0.2c0-0.4,1.6-1.5,1.9-2c0-0.8,0.3-1.7,0.6-2.6
					c0.8-1.8,2.3-3.5,4.2-3.5c1.4,0,2.8,0.9,2.8,2.5c0,2.2-3.1,3-4.6,3.8c-0.5,0.2-0.7,0.5-0.7,0.7c0,0.7,1.6,2.2,2.2,2.3
					c0.3,0,0.5,0,0.8,0c1.7,0,2.5-0.6,3.8-1.5c0.2-0.1,1.2-0.9,1.9-1.4c0.3-0.2,0.5-0.4,0.5-0.4c0.2,0,0.3,0.1,0.3,0.3
					C142.5,105.4,142.4,105.7,142.2,105.9"/>
				<path class="st2" d="M148.1,95.3c-0.7,0.3-2.2,3-3.1,5c-0.5,1.1-0.7,1.9-0.7,2.5c0.5-0.4,1.5-1.3,2.1-2.2
					c1.1-1.8,1.8-4.1,1.8-4.9C148.2,95.6,148.2,95.4,148.1,95.3 M150.4,106.7c0,0-2.4,1.6-2.7,1.8c-0.9,0.6-2.5,1.2-3.5,1.2
					c-0.6,0-2.1-0.8-2.5-1.3c-0.3-0.4-0.3-1-0.4-1.5c-0.3,0.2-0.8,0.3-1.2,0.3c-0.1,0-0.4,0-0.4-0.2c0-0.3,1.3-1.2,1.5-1.5
					c0.2-1.4,0.5-2.7,0.9-3.9c1.2-3.2,3.6-6.8,5.8-9.3c0.4-0.4,0.9-0.8,1.4-0.8c0.6,0,0.7,1,0.7,1.5c0,2.2-1.5,7-3,8.5
					c-1,1.1-2.8,2.4-3.4,3.2c0,0.3,0,0.6,0,0.9c0,1.1,0.3,2.3,1.6,2.3c1.7,0,4-2,4.8-2c0.2,0,0.4,0,0.4,0.3
					C150.7,106.3,150.5,106.6,150.4,106.7"/>
				<path class="st2" d="M162.3,106.7c-0.5,0.6-2.7,1.2-3.6,1.7c-0.6,0.4-2.7,1.4-3.4,1.5c-0.3,0-0.6,0-0.9,0c-0.6,0-1-0.2-1-0.9
					c0-0.2,0.1-0.5,0.2-0.6c0.4-0.6,1.4-1.1,1.9-1.7c0.6-0.6,2.6-3.7,2.6-4.6c0-0.2-0.2-0.3-0.4-0.3c-0.1,0-0.3,0-0.4,0
					c-1.3,0.4-3.7,2.5-4.4,3.7c-1.7,3-3.2,6.1-4.4,9.3c-0.4,1-0.6,1.9-0.9,2.9c-0.3,0.9-1.6,0.7-2.2,0.9c-0.3,0.1-0.9,0.6-1.3,0.6
					c-0.2,0-0.2-0.2-0.2-0.3c0-0.3,0.1-0.7,0.3-0.9c1-1.9,2-3.8,3-5.8c0.9-1.7,1.7-3.5,2.4-5.2c-0.2,0.1-0.3,0.1-0.5,0.1
					c-0.2,0-0.4,0-0.4-0.3c0-0.6,1.4-1,1.7-1.6c0.5-0.9,1.4-3.8,2-4.5c0.2-0.2,1.2-1,1.4-1.1c0.2,0,0.4-0.1,0.5-0.1
					c0.3,0,0.8,0.1,0.8,0.5c0,0.8-1.3,2-1.2,2.6c1.1-0.3,3.3-3,4.3-3c0.4,0,0.8-0.1,1.3-0.1c0.6,0,1,0.1,1,0.8c0,1.9-3.2,6.2-3.2,7
					c0,0.2,0.4,0.3,0.5,0.3c1.2,0,3.4-1.8,4.3-1.8c0.2,0,0.3,0.1,0.3,0.2C162.6,106.3,162.4,106.6,162.3,106.7"/>
				<path class="st2" d="M183.2,96.3c-0.2,1.1-1.6,3.4-2.9,3.4c-0.8,0-0.9-0.7-0.9-1.3c0-1.1,0-1,0.8-1.8c1-1.1,2.3-2.3,2.7-2.3
					c0.3,0,0.4,0.4,0.4,0.6C183.3,95.4,183.2,95.9,183.2,96.3 M185.5,106.5c-0.9,0.9-2.6,1.8-3.3,2.1c-0.7,0.3-3.5,1.1-4.1,1.1
					c-0.9,0-2.3-0.6-2.8-1.4c-0.2-0.4-0.2-0.6-0.3-1c0.2-0.9,0.4-2.2,0.9-3c0.5-0.7,1.7-2.4,2.6-2.4c0.4,0,0.5,0.4,0.5,0.7
					c0,1.5-1.1,2.9-1.1,3.8c0,0.8,1.1,1.2,1.7,1.2c1.4,0,4.4-1.3,5.4-2.2c0.2-0.2,0.4-0.4,0.6-0.4c0.2,0,0.3,0.1,0.3,0.3
					C186,105.8,185.8,106.1,185.5,106.5"/>
				<path class="st2" d="M195.8,106.3c-0.7,0.8-2.2,1.5-3.2,1.5c-0.7,0-1.2-0.3-1.5-0.9c-1.1,1.2-2.6,2.1-4.2,2.1
					c-1.2,0-2.5-0.6-2.5-2c0-1.3,0.6-1.5,1.3-2.2c1-1.1,1.6-1.6,2.8-2.3c0.7-0.4,1.1-0.9,1.6-1.6c0.1-0.1,0.2-0.7-0.1-0.6
					c-0.7,0.2-1.3,1-2.1,1c-0.7,0-1.4-0.6-1.4-1.3c0-0.2,0.1-0.4,0.1-0.5c0.2-0.9,1.9-0.9,2.4-0.9c1,0,2.5,0.3,2.5,1.6
					c0,1.2-1.3,2.6-1.9,3.6c-0.6,0.9-2,1.4-2,2.6c0,0.3,0.1,0.8,0.5,0.8c1,0,2.3-2,2.5-2.9c0.1-0.3,0.2-1.6,0.7-1.6
					c0.2,0,0.3,0.2,0.4,0.3c0.5,0.7,0.3,2.4,0.8,3.3c0.2,0.3,0.5,0.5,1,0.5c0.1,0,0.3,0,0.4-0.1c0.5-0.3,0.9-0.9,1.6-0.9
					c0.2,0,0.4,0.1,0.4,0.3C196.1,106,195.9,106.2,195.8,106.3"/>
				<path class="st2" d="M89.4,104.9c-0.2,0-0.5,0-0.7,0.2c-0.7,0.5-1.2,1.4-2,2c-0.3,0.2-1.5,1.1-1.8,1.1c-0.2,0-0.3-0.2-0.3-0.4
					c0-0.2,0-0.3,0.1-0.5c0.3-1.5,0.8-3,0.8-4.6c0-0.7-0.1-1.1-0.9-1.1c-0.7,0-1.4,0.5-2,1.1c-1.3,1.3-2.3,3.1-2.6,3.1
					c-0.4,0-0.4-1.2-0.4-1.5c0-0.4,0-1.1,0.2-1.4c0.9-1.7,2.3-3.2,3.2-5c0.7-1.5,1.6-2.9,2.3-4.5c0.4-0.9,0.6-1.9,0.8-2.8
					c0-0.2,0.1-0.4,0.1-0.5c0-0.4-0.2-0.7-0.6-0.7c-1.3,0-2.5,1.1-3.5,2.6c-1.2,1.7-2.2,3.9-2.7,5.1c-0.6,1.3-0.8,2.7-1.5,3.9
					c-0.2,0.5-0.3,1-0.5,1.4c-0.2,0.5-0.4,0.8-0.6,1.3c-0.4,1-1.4,2.3-2.3,2.9c-0.1,0.1-0.3,0.2-0.3,0.3c0,0.2,0,0.2,0.2,0.2
					c1,0,1.4-0.3,2.1-1c0,0.8,0,4.8,1.1,4.8c0.4,0,0.8-0.6,1-0.9c0.2-0.3,0.3-0.7,0.5-1c0.5-0.8,2.7-4,3.6-4c0.3,0,0.4,0.5,0.4,0.7
					c0,1.2-0.6,2.3-0.6,3.5c0,0.4,0.1,0.9,0.6,0.9c0.7,0,2.5-1,4.1-2.1c1.4-1,2.6-2.2,2.6-2.8C89.7,104.9,89.6,104.9,89.4,104.9z
					 M79.4,101.5c0-0.5,1.1-4.4,1.6-5.5c0.9-2.1,2.8-4.8,3.5-5.1c0,0.1,0.1,0.2,0.1,0.3c0,0.8-0.3,2.7-1.4,4.6
					C82.5,96.8,79.9,101.2,79.4,101.5z"/>
				<path class="st2" d="M175.8,104.9c-0.2,0-0.5,0-0.7,0.2c-0.7,0.5-1.2,1.4-2,2c-0.3,0.2-1.5,1.1-1.8,1.1c-0.2,0-0.3-0.2-0.3-0.4
					c0-0.2,0-0.3,0.1-0.5c0.3-1.5,0.8-3,0.8-4.6c0-0.7-0.1-1.1-0.9-1.1c-0.7,0-1.4,0.5-2,1.1c-1.3,1.3-2.3,3.1-2.6,3.1
					c-0.4,0-0.4-1.2-0.4-1.5c0-0.4,0-1.1,0.2-1.4c0.9-1.7,2.3-3.2,3.2-5c0.7-1.5,1.6-2.9,2.3-4.5c0.4-0.9,0.6-1.9,0.8-2.8
					c0-0.2,0.1-0.4,0.1-0.5c0-0.4-0.2-0.7-0.6-0.7c-1.3,0-2.5,1.1-3.5,2.6c-1.2,1.7-2.2,3.9-2.7,5.1c-0.6,1.3-0.8,2.7-1.5,3.9
					c-0.2,0.5-0.3,1-0.5,1.4c-0.2,0.5-0.4,0.8-0.6,1.3c-0.4,1-1.4,2.3-2.3,2.9c-0.1,0.1-0.3,0.2-0.3,0.3c0,0.2,0,0.2,0.2,0.2
					c1,0,1.4-0.3,2.1-1c0,0.8,0,4.8,1.1,4.8c0.4,0,0.8-0.6,1-0.9c0.2-0.3,0.3-0.7,0.5-1c0.5-0.8,2.7-4,3.6-4c0.3,0,0.4,0.5,0.4,0.7
					c0,1.2-0.6,2.3-0.6,3.5c0,0.4,0.1,0.9,0.6,0.9c0.7,0,2.5-1,4.1-2.1c1.4-1,2.6-2.2,2.6-2.8C176.2,104.9,176,104.9,175.8,104.9z
					 M165.8,101.5c0-0.5,1.1-4.4,1.6-5.5c0.9-2.1,2.8-4.8,3.5-5.1c0,0.1,0.1,0.2,0.1,0.3c0,0.8-0.3,2.7-1.4,4.6
					C169,96.8,166.4,101.2,165.8,101.5z"/>
			</g>
			<path class="st2" d="M55.9,109.5c-0.7,0.5-24,6.8-28.2-0.1c-0.3-0.5-2-5.3,14.6-13.6c8.2-4.1,18.7-7.2,27.3-8.3
				c-4.2,0.1-11.4,0-27.3,5.7c-14.2,5.1-24.9,15.1-22.2,19.1c3.9,5.6,26.6,0.6,35.3-2L55.9,109.5z"/>
		</g>
		<path class="st2" d="M69.5,67.7c-4-6.9-7.9-15.1-14.1-19.2c0.1,0.1-0.5-0.3-1.3-0.8c-0.3-0.1-0.5-0.3-0.8-0.4
			c-7.4-3.2-19.6-0.6-24.2,3.5L29,50.7c0,0,6.9-7.7,19.7-5.7c-0.9-1.7-2.8-4.6-6.3-5.5c16.4-2.1,27.1,8.2,27.1,8.2l-4.9-17.1l0,0
			l-1.1-3.7c0,0-0.9-4.9-7.6-3C53.3,24.7,9.5,37.3,7,38.1c-6.2,1.8-4.8,6.5-4.8,6.5l1,3.5l0,0l5,17.3c0,0,4.4-14.8,20.7-22.1
			c-3.6,3.8-2.3,9.4-2.3,9.4c-5,4.3-6,10.9-6,17.8c9.7-17.8,28.8-16.2,28.8-16.2c-8.6,0.4-25.4,8.8-28.6,21.7
			c0.1,1.9,0.2,3.8,0.3,5.7c0.2,6.6,1.5,13.5,1,18.9l-0.4,2.5c0,0,0.1-0.1,0.3-0.3c1.5-1.4,8.5-7.4,20.1-12c-2-1.7-7.1-6.4-7.2-7.8
			c-0.1-1.8,3.1-3.8,3-5.3c-0.2-1.5-2.1-5.2-2.1-5.2s5.1,3.4,5.5,4.7c0.3,1.3-2.8,3.2-2.3,5.3c0.5,1.9,5.2,6.2,6.2,7.2
			c9.4-3.3,21.3-5.4,35.5-3.6C76.2,82,73.4,74.4,69.5,67.7z"/>
		<line class="st3" x1="50.3" y1="131.5" x2="165.9" y2="131.5"/>
		<path class="st2" d="M54.1,47.8c0.2,0.1,0.4,0.2,0.6,0.4C54.5,48,54.3,47.9,54.1,47.8z"/>
		<g>
			<path class="st2" d="M51.3,137.2h-1.7v-0.8h4.2v0.8h-1.7v4.8h-0.9V137.2z"/>
			<path class="st2" d="M54.5,136.1h0.8v3.1c0.2-0.4,0.6-0.7,1.2-0.7c0.8,0,1.3,0.5,1.3,1.5v2.1H57v-2c0-0.5-0.2-0.8-0.7-0.8
				c-0.5,0-0.9,0.3-0.9,0.9v1.9h-0.8V136.1z"/>
			<path class="st2" d="M60.6,141.4c0.5,0,0.8-0.2,1-0.4l0.5,0.5c-0.3,0.3-0.8,0.6-1.5,0.6c-1.2,0-2-0.8-2-1.8c0-1,0.8-1.8,1.8-1.8
				c1.2,0,1.8,0.9,1.8,2.1h-2.8C59.6,141.1,60,141.4,60.6,141.4z M61.4,140c-0.1-0.5-0.4-0.8-0.9-0.8c-0.5,0-0.9,0.3-1,0.8H61.4z"/>
			<path class="st2" d="M65.2,136.5H67c1.2,0,2,0.6,2,1.8c0,1.2-0.9,1.8-2,1.8h-0.9v2h-0.9V136.5z M67,139.3c0.8,0,1.2-0.3,1.2-1
				c0-0.7-0.4-1-1.2-1h-0.9v2.1H67z"/>
			<path class="st2" d="M69.9,138.6h0.8l0,0.7c0.2-0.5,0.6-0.7,1-0.7c0.2,0,0.4,0.1,0.6,0.1l-0.3,0.8c-0.1-0.1-0.3-0.1-0.5-0.1
				c-0.5,0-0.8,0.3-0.8,1.1v1.7h-0.8V138.6z"/>
			<path class="st2" d="M74.6,141.4c0.5,0,0.8-0.2,1-0.4l0.5,0.5c-0.3,0.3-0.8,0.6-1.5,0.6c-1.2,0-2-0.8-2-1.8c0-1,0.8-1.8,1.8-1.8
				c1.2,0,1.8,0.9,1.8,2.1h-2.8C73.6,141.1,73.9,141.4,74.6,141.4z M75.4,140c-0.1-0.5-0.4-0.8-0.9-0.8c-0.5,0-0.9,0.3-1,0.8H75.4z"
				/>
			<path class="st2" d="M77.2,138.6H78l0,0.6c0.2-0.4,0.6-0.7,1-0.7c0.5,0,0.8,0.2,1,0.7c0.3-0.4,0.7-0.7,1.2-0.7
				c0.8,0,1.3,0.5,1.3,1.4v2.1h-0.8v-2c0-0.5-0.2-0.7-0.7-0.7c-0.5,0-0.8,0.3-0.8,0.9v1.9h-0.8v-2c0-0.5-0.2-0.7-0.6-0.7
				c-0.5,0-0.8,0.3-0.8,0.9v1.9h-0.8V138.6z"/>
			<path class="st2" d="M83.4,137.3c0-0.3,0.3-0.5,0.6-0.5s0.6,0.2,0.6,0.5c0,0.3-0.3,0.6-0.6,0.6S83.4,137.6,83.4,137.3z
				 M83.6,138.6h0.8v3.5h-0.8V138.6z"/>
			<path class="st2" d="M87.3,141.4c0.5,0,0.8-0.2,1-0.4l0.5,0.5c-0.3,0.3-0.8,0.6-1.5,0.6c-1.2,0-2-0.8-2-1.8c0-1,0.8-1.8,1.8-1.8
				c1.2,0,1.8,0.9,1.8,2.1h-2.8C86.3,141.1,86.6,141.4,87.3,141.4z M88.1,140c-0.1-0.5-0.4-0.8-0.9-0.8c-0.5,0-0.9,0.3-1,0.8H88.1z"
				/>
			<path class="st2" d="M89.8,138.6h0.8l0,0.7c0.2-0.5,0.6-0.7,1-0.7c0.2,0,0.4,0.1,0.6,0.1l-0.3,0.8c-0.1-0.1-0.3-0.1-0.5-0.1
				c-0.5,0-0.8,0.3-0.8,1.1v1.7h-0.8V138.6z"/>
			<path class="st2" d="M94.7,139.3c0-1.7,1.2-2.9,2.9-2.9c0.9,0,1.5,0.2,2,0.8l-0.6,0.6c-0.3-0.3-0.7-0.6-1.4-0.6
				c-1.2,0-2,0.9-2,2.1s0.8,2.1,2.1,2.1c0.6,0,1.1-0.1,1.4-0.4v-1h-1.5v-0.8h2.3v2.2c-0.4,0.3-1.1,0.7-2.2,0.7
				C95.9,142.1,94.7,140.9,94.7,139.3z"/>
			<path class="st2" d="M101.1,136.5h0.9v5.6h-0.9V136.5z"/>
			<path class="st2" d="M105,139.3c0-1.7,1.3-2.9,2.9-2.9c1,0,1.8,0.4,2.2,1.1l-0.7,0.5c-0.3-0.5-0.8-0.8-1.6-0.8
				c-1.2,0-2,0.9-2,2.1s0.8,2.1,2,2.1c0.8,0,1.3-0.3,1.7-0.9l0.7,0.5c-0.5,0.7-1.3,1.2-2.3,1.2C106.3,142.1,105,140.9,105,139.3z"/>
			<path class="st2" d="M111,136.1h0.8v6H111V136.1z"/>
			<path class="st2" d="M112.8,137.3c0-0.3,0.3-0.5,0.6-0.5c0.3,0,0.6,0.2,0.6,0.5c0,0.3-0.3,0.6-0.6,0.6
				C113,137.8,112.8,137.6,112.8,137.3z M112.9,138.6h0.8v3.5h-0.8V138.6z"/>
			<path class="st2" d="M114.8,138.6h0.8l0,0.6c0.2-0.5,0.7-0.7,1.2-0.7c0.8,0,1.3,0.5,1.3,1.5v2.1h-0.8v-2c0-0.5-0.2-0.8-0.7-0.8
				c-0.5,0-0.9,0.3-0.9,0.9v1.9h-0.8V138.6z"/>
			<path class="st2" d="M119,137.3c0-0.3,0.3-0.5,0.6-0.5c0.3,0,0.6,0.2,0.6,0.5c0,0.3-0.3,0.6-0.6,0.6
				C119.3,137.8,119,137.6,119,137.3z M119.2,138.6h0.8v3.5h-0.8V138.6z"/>
			<path class="st2" d="M120.9,140.3c0-1,0.8-1.8,1.8-1.8c0.7,0,1.1,0.2,1.4,0.7l-0.6,0.5c-0.2-0.2-0.5-0.4-0.8-0.4
				c-0.6,0-1,0.5-1,1.1s0.4,1.1,1,1.1c0.4,0,0.7-0.2,0.9-0.4l0.6,0.5c-0.3,0.4-0.8,0.6-1.4,0.6C121.7,142.1,120.9,141.4,120.9,140.3
				z"/>
			<path class="st2" d="M126.4,139.2c-0.5,0-0.7,0.2-0.9,0.4l-0.5-0.5c0.3-0.4,0.7-0.6,1.5-0.6c0.8,0,1.5,0.5,1.5,1.5v2h-0.8l0-0.5
				c-0.2,0.4-0.6,0.6-1.1,0.6c-0.7,0-1.2-0.3-1.2-1.1c0-0.7,0.6-1,1.4-1h0.9C127.1,139.4,126.8,139.2,126.4,139.2z M126.2,140.6
				c-0.4,0-0.6,0.1-0.6,0.4c0,0.3,0.2,0.5,0.7,0.5c0.5,0,0.8-0.2,0.8-0.6v-0.3H126.2z"/>
			<path class="st2" d="M129,136.1h0.8v6H129V136.1z"/>
			<path class="st2" d="M132.9,136.4L132.9,136.4l2.8,3.1l2.7-3.1h0.1v5.7h-0.8v-2.9c0-0.3,0-0.8,0-0.8c0,0-0.3,0.4-0.5,0.7
				l-1.4,1.7h-0.1l-1.4-1.7c-0.2-0.2-0.5-0.6-0.5-0.7c0,0,0,0.5,0,0.8v2.9h-0.8V136.4z"/>
			<path class="st2" d="M141.3,141.4c0.5,0,0.8-0.2,1-0.4l0.5,0.5c-0.3,0.3-0.8,0.6-1.5,0.6c-1.2,0-2-0.8-2-1.8c0-1,0.8-1.8,1.8-1.8
				c1.2,0,1.8,0.9,1.8,2.1h-2.8C140.3,141.1,140.7,141.4,141.3,141.4z M142.2,140c-0.1-0.5-0.4-0.8-0.9-0.8c-0.5,0-0.9,0.3-1,0.8
				H142.2z"/>
			<path class="st2" d="M145.7,141.4c0.5,0,0.8-0.2,1-0.4l0.5,0.5c-0.3,0.3-0.8,0.6-1.5,0.6c-1.2,0-2-0.8-2-1.8c0-1,0.8-1.8,1.8-1.8
				c1.2,0,1.8,0.9,1.8,2.1h-2.8C144.7,141.1,145,141.4,145.7,141.4z M146.5,140c-0.1-0.5-0.4-0.8-0.9-0.8c-0.5,0-0.9,0.3-1,0.8
				H146.5z"/>
			<path class="st2" d="M148.5,140.9v-1.6H148v-0.7h0.5v-1.3h0.8v1.3h0.9v0.7h-0.9v1.6c0,0.4,0.1,0.5,0.3,0.5c0.2,0,0.3-0.1,0.4-0.2
				l0.3,0.6c-0.2,0.2-0.4,0.3-0.9,0.3C148.9,142.1,148.5,141.8,148.5,140.9z"/>
			<path class="st2" d="M151,137.3c0-0.3,0.3-0.5,0.6-0.5c0.3,0,0.6,0.2,0.6,0.5c0,0.3-0.3,0.6-0.6,0.6
				C151.3,137.8,151,137.6,151,137.3z M151.1,138.6h0.8v3.5h-0.8V138.6z"/>
			<path class="st2" d="M153.1,138.6h0.8l0,0.6c0.2-0.5,0.7-0.7,1.2-0.7c0.8,0,1.3,0.5,1.3,1.5v2.1h-0.8v-2c0-0.5-0.2-0.8-0.7-0.8
				c-0.5,0-0.9,0.3-0.9,0.9v1.9h-0.8V138.6z"/>
			<path class="st2" d="M157.3,143l0.6-0.4c0.3,0.4,0.6,0.7,1.2,0.7c0.6,0,1-0.3,1-1.1v-0.6c-0.2,0.4-0.6,0.7-1.2,0.7
				c-0.9,0-1.6-0.8-1.6-1.8c0-1,0.7-1.8,1.6-1.8c0.6,0,1,0.3,1.2,0.7l0-0.6h0.8v3.5c0,1.3-0.8,1.8-1.8,1.8
				C158.2,143.9,157.6,143.5,157.3,143z M160.1,140.3c0-0.6-0.4-1.1-1-1.1c-0.6,0-1,0.4-1,1.1c0,0.7,0.4,1.1,1,1.1
				C159.7,141.4,160.1,141,160.1,140.3z"/>
			<path class="st2" d="M68.6,149.3c0.1-0.3,0.2-0.7,0.2-1.2h0.8c0,0.7-0.2,1.4-0.5,1.9l0.9,1.1h-1l-0.4-0.5c-0.4,0.4-1,0.6-1.6,0.6
				c-1.2,0-2-0.7-2-1.6c0-0.9,0.5-1.3,1.4-1.7c-0.3-0.4-0.5-0.8-0.5-1.2c0-0.7,0.5-1.2,1.3-1.2c0.8,0,1.3,0.5,1.3,1.2
				c0,0.5-0.4,1-1,1.3L68.6,149.3z M66.8,148.3c-0.6,0.3-0.9,0.7-0.9,1.2c0,0.6,0.4,0.9,1.1,0.9c0.4,0,0.8-0.1,1.1-0.4L66.8,148.3z
				 M67.8,146.6c0-0.3-0.2-0.5-0.5-0.5c-0.3,0-0.6,0.2-0.6,0.5c0,0.3,0.1,0.5,0.3,0.7l0.1,0.1C67.6,147.2,67.8,146.9,67.8,146.6z"/>
			<path class="st2" d="M72.8,145.5h1.8c1.2,0,2,0.6,2,1.8c0,1.2-0.9,1.8-2,1.8h-0.9v2h-0.9V145.5z M74.6,148.3c0.8,0,1.2-0.3,1.2-1
				c0-0.7-0.4-1-1.2-1h-0.9v2.1H74.6z"/>
			<path class="st2" d="M77,149.3c0-1,0.8-1.8,1.9-1.8c1.1,0,1.9,0.8,1.9,1.8c0,1-0.8,1.8-1.9,1.8C77.8,151.1,77,150.4,77,149.3z
				 M79.9,149.3c0-0.6-0.4-1.1-1-1.1s-1,0.4-1,1.1s0.4,1.1,1,1.1S79.9,150,79.9,149.3z"/>
			<path class="st2" d="M81.3,150.4l0.6-0.4c0.2,0.3,0.5,0.4,0.9,0.4c0.4,0,0.6-0.1,0.6-0.4c0-0.3-0.3-0.3-0.8-0.5
				c-0.5-0.1-1-0.4-1-1.1c0-0.7,0.6-1,1.2-1c0.6,0,0.9,0.2,1.2,0.5l-0.5,0.5c-0.2-0.2-0.4-0.3-0.7-0.3c-0.3,0-0.5,0.1-0.5,0.3
				c0,0.3,0.2,0.3,0.8,0.5c0.5,0.1,1.1,0.4,1.1,1.1c0,0.6-0.4,1.1-1.3,1.1C82,151.1,81.5,150.8,81.3,150.4z"/>
			<path class="st2" d="M85.2,149.9v-1.6h-0.5v-0.7h0.5v-1.3H86v1.3H87v0.7H86v1.6c0,0.4,0.1,0.5,0.3,0.5c0.2,0,0.3-0.1,0.4-0.2
				l0.3,0.6c-0.2,0.2-0.4,0.3-0.9,0.3C85.7,151.1,85.2,150.8,85.2,149.9z"/>
			<path class="st2" d="M87.7,152l0.6-0.4c0.3,0.4,0.6,0.7,1.2,0.7c0.6,0,1-0.3,1-1.1v-0.6c-0.2,0.4-0.6,0.7-1.2,0.7
				c-0.9,0-1.6-0.8-1.6-1.8c0-1,0.7-1.8,1.6-1.8c0.6,0,1,0.3,1.2,0.7l0-0.6h0.8v3.5c0,1.3-0.8,1.8-1.8,1.8
				C88.6,152.9,88,152.5,87.7,152z M90.5,149.3c0-0.6-0.4-1.1-1-1.1c-0.6,0-1,0.4-1,1.1c0,0.7,0.4,1.1,1,1.1
				C90.1,150.4,90.5,150,90.5,149.3z"/>
			<path class="st2" d="M92.4,147.6h0.8l0,0.7c0.2-0.5,0.6-0.7,1-0.7c0.2,0,0.4,0.1,0.6,0.1l-0.3,0.8c-0.1-0.1-0.3-0.1-0.5-0.1
				c-0.5,0-0.8,0.3-0.8,1.1v1.7h-0.8V147.6z"/>
			<path class="st2" d="M96.8,148.2c-0.5,0-0.7,0.2-0.9,0.4l-0.5-0.5c0.3-0.4,0.7-0.6,1.5-0.6c0.8,0,1.5,0.5,1.5,1.5v2h-0.8l0-0.5
				c-0.2,0.4-0.6,0.6-1.1,0.6c-0.7,0-1.2-0.3-1.2-1.1c0-0.7,0.6-1,1.4-1h0.9C97.4,148.4,97.2,148.2,96.8,148.2z M96.6,149.6
				c-0.4,0-0.6,0.1-0.6,0.4c0,0.3,0.2,0.5,0.7,0.5c0.5,0,0.8-0.2,0.8-0.6v-0.3H96.6z"/>
			<path class="st2" d="M99.1,149.3c0-1,0.7-1.8,1.6-1.8c0.6,0,1,0.3,1.2,0.7v-3.1h0.8v6h-0.8l0-0.6c-0.2,0.4-0.6,0.7-1.2,0.7
				C99.9,151.1,99.1,150.4,99.1,149.3z M102,149.3c0-0.6-0.4-1.1-1-1.1c-0.6,0-1,0.4-1,1.1c0,0.7,0.4,1.1,1,1.1
				C101.6,150.4,102,150,102,149.3z"/>
			<path class="st2" d="M103.8,149.7v-2.1h0.8v2c0,0.5,0.2,0.8,0.7,0.8c0.5,0,0.9-0.3,0.9-0.9v-1.9h0.8v3.5h-0.8l0-0.6
				c-0.2,0.4-0.6,0.7-1.2,0.7C104.3,151.1,103.8,150.6,103.8,149.7z"/>
			<path class="st2" d="M109.5,148.2c-0.5,0-0.7,0.2-0.9,0.4l-0.5-0.5c0.3-0.4,0.7-0.6,1.5-0.6c0.8,0,1.5,0.5,1.5,1.5v2h-0.8l0-0.5
				c-0.2,0.4-0.6,0.6-1.1,0.6c-0.7,0-1.2-0.3-1.2-1.1c0-0.7,0.6-1,1.4-1h0.9C110.2,148.4,110,148.2,109.5,148.2z M109.3,149.6
				c-0.4,0-0.6,0.1-0.6,0.4c0,0.3,0.2,0.5,0.7,0.5c0.5,0,0.8-0.2,0.8-0.6v-0.3H109.3z"/>
			<path class="st2" d="M112.3,149.9v-1.6h-0.5v-0.7h0.5v-1.3h0.8v1.3h0.9v0.7h-0.9v1.6c0,0.4,0.1,0.5,0.3,0.5
				c0.2,0,0.3-0.1,0.4-0.2l0.3,0.6c-0.2,0.2-0.4,0.3-0.9,0.3C112.8,151.1,112.3,150.8,112.3,149.9z"/>
			<path class="st2" d="M116.7,150.4c0.5,0,0.8-0.2,1-0.4l0.5,0.5c-0.3,0.3-0.8,0.6-1.5,0.6c-1.2,0-2-0.8-2-1.8c0-1,0.8-1.8,1.8-1.8
				c1.2,0,1.8,0.9,1.8,2.1h-2.8C115.7,150.1,116.1,150.4,116.7,150.4z M117.6,149c-0.1-0.5-0.4-0.8-0.9-0.8c-0.5,0-0.9,0.3-1,0.8
				H117.6z"/>
			<path class="st2" d="M121.1,148.3c0-1.7,1.3-2.9,2.9-2.9c1,0,1.8,0.4,2.2,1.1l-0.7,0.5c-0.3-0.5-0.8-0.8-1.6-0.8
				c-1.2,0-2,0.9-2,2.1s0.8,2.1,2,2.1c0.8,0,1.3-0.3,1.7-0.9l0.7,0.5c-0.5,0.7-1.3,1.2-2.3,1.2C122.4,151.1,121.1,149.9,121.1,148.3
				z"/>
			<path class="st2" d="M126.9,149.3c0-1,0.8-1.8,1.9-1.8c1.1,0,1.9,0.8,1.9,1.8c0,1-0.8,1.8-1.9,1.8
				C127.7,151.1,126.9,150.4,126.9,149.3z M129.8,149.3c0-0.6-0.4-1.1-1-1.1s-1,0.4-1,1.1s0.4,1.1,1,1.1S129.8,150,129.8,149.3z"/>
			<path class="st2" d="M131.5,149.7v-2.1h0.8v2c0,0.5,0.2,0.8,0.7,0.8c0.5,0,0.9-0.3,0.9-0.9v-1.9h0.8v3.5h-0.8l0-0.6
				c-0.2,0.4-0.6,0.7-1.2,0.7C132,151.1,131.5,150.6,131.5,149.7z"/>
			<path class="st2" d="M135.8,147.6h0.8l0,0.7c0.2-0.5,0.6-0.7,1-0.7c0.2,0,0.4,0.1,0.6,0.1l-0.3,0.8c-0.1-0.1-0.3-0.1-0.5-0.1
				c-0.5,0-0.8,0.3-0.8,1.1v1.7h-0.8V147.6z"/>
			<path class="st2" d="M138.5,150.4l0.6-0.4c0.2,0.3,0.5,0.4,0.9,0.4c0.4,0,0.6-0.1,0.6-0.4c0-0.3-0.3-0.3-0.8-0.5
				c-0.5-0.1-1-0.4-1-1.1c0-0.7,0.6-1,1.2-1c0.6,0,0.9,0.2,1.2,0.5l-0.5,0.5c-0.2-0.2-0.4-0.3-0.7-0.3c-0.3,0-0.5,0.1-0.5,0.3
				c0,0.3,0.2,0.3,0.8,0.5s1.1,0.4,1.1,1.1c0,0.6-0.4,1.1-1.3,1.1C139.3,151.1,138.7,150.8,138.5,150.4z"/>
			<path class="st2" d="M144,150.4c0.5,0,0.8-0.2,1-0.4l0.5,0.5c-0.3,0.3-0.8,0.6-1.5,0.6c-1.2,0-2-0.8-2-1.8c0-1,0.8-1.8,1.8-1.8
				c1.2,0,1.8,0.9,1.8,2.1h-2.8C143,150.1,143.4,150.4,144,150.4z M144.9,149c-0.1-0.5-0.4-0.8-0.9-0.8c-0.5,0-0.9,0.3-1,0.8H144.9z
				"/>
		</g>
		<g>
			<path class="st4" d="M47.6,124.4c0-2.1,1.6-3.7,3.7-3.7c2,0,3.7,1.5,3.7,3.7s-1.6,3.7-3.7,3.7C49.2,128.1,47.6,126.5,47.6,124.4z
				 M53.8,124.4c0-1.5-1-2.7-2.5-2.7s-2.5,1.1-2.5,2.7s1.1,2.7,2.5,2.7S53.8,125.9,53.8,124.4z"/>
			<path class="st4" d="M57.1,124.4c0-2.1,1.6-3.7,3.6-3.7c1.3,0,2.2,0.5,2.8,1.4l-0.8,0.6c-0.4-0.6-1.1-1-2-1
				c-1.5,0-2.5,1.1-2.5,2.7s1,2.7,2.5,2.7c1,0,1.6-0.4,2.1-1.1l0.8,0.6c-0.6,0.9-1.6,1.5-2.9,1.5C58.7,128.1,57.1,126.5,57.1,124.4z
				"/>
			<path class="st4" d="M67.5,121.8h-2.1v-1h5.3v1h-2.1v6.2h-1.1V121.8z"/>
			<path class="st4" d="M72.3,124.4c0-2.1,1.6-3.7,3.7-3.7c2,0,3.7,1.5,3.7,3.7s-1.6,3.7-3.7,3.7C73.9,128.1,72.3,126.5,72.3,124.4z
				 M78.5,124.4c0-1.5-1-2.7-2.5-2.7s-2.5,1.1-2.5,2.7s1.1,2.7,2.5,2.7S78.5,125.9,78.5,124.4z"/>
			<path class="st4" d="M82.1,120.8h2.5c1.4,0,2.1,0.8,2.1,1.9c0,0.7-0.4,1.3-1.1,1.5c0.9,0.2,1.4,0.8,1.4,1.8c0,1.2-0.8,2-2.3,2
				h-2.7V120.8z M84.5,123.8c0.7,0,1.1-0.4,1.1-1c0-0.6-0.3-1-1.1-1h-1.3v2H84.5z M84.7,127c0.8,0,1.2-0.5,1.2-1.1
				c0-0.7-0.4-1.1-1.3-1.1h-1.5v2.3H84.7z"/>
			<path class="st4" d="M89.5,120.8H94v1h-3.4v2.1h3v1h-3v2.1h3.5v1h-4.7V120.8z"/>
			<path class="st4" d="M96.7,120.8h2.4c1.5,0,2.6,0.7,2.6,2.3c0,1.1-0.6,1.7-1.4,2l1.7,2.8h-1.3l-1.5-2.6h-1.3v2.6h-1.1V120.8z
				 M99,124.4c0.9,0,1.5-0.4,1.5-1.3c0-0.9-0.6-1.3-1.5-1.3h-1.2v2.6H99z"/>
			<path class="st4" d="M107,126.6l0.9-0.5c0.3,0.5,0.8,1,1.7,1c0.9,0,1.5-0.6,1.5-1.4c0-0.9-0.6-1.4-1.6-1.4
				c-0.8,0-1.4,0.3-1.8,0.7l-0.1-0.1v-4.1h4.2v1h-3.2v1.8c0.3-0.2,0.6-0.3,1.1-0.3c1.5,0,2.5,0.9,2.5,2.3c0,1.5-1.1,2.4-2.7,2.4
				C108.4,128.1,107.5,127.5,107,126.6z"/>
			<path class="st4" d="M114.3,124.7h4v0.9h-4V124.7z"/>
			<path class="st4" d="M121.3,121.8h-1.2v-1h2.3v7.1h-1.1V121.8z"/>
			<path class="st4" d="M125,124.4c0-2.1,1.6-3.7,3.7-3.7c2,0,3.7,1.5,3.7,3.7s-1.6,3.7-3.7,3.7C126.6,128.1,125,126.5,125,124.4z
				 M131.1,124.4c0-1.5-1-2.7-2.5-2.7c-1.5,0-2.5,1.1-2.5,2.7s1.1,2.7,2.5,2.7C130.1,127.1,131.1,125.9,131.1,124.4z"/>
			<path class="st4" d="M134.3,128c-0.3-0.1-0.4-0.3-0.4-0.7c0-0.4,0.3-0.7,0.7-0.7c0.4,0,0.7,0.3,0.7,0.7c0,0.2-0.1,0.5-0.2,0.7
				l-0.6,1.2h-0.6L134.3,128z"/>
			<path class="st4" d="M140.7,127.9l2.9-3.1c0.7-0.7,1-1.3,1-1.9c0-0.6-0.4-1.1-1.1-1.1c-0.7,0-1.2,0.5-1.4,1.3l-1.1-0.2
				c0.2-1.2,1.1-2.1,2.5-2.1c1.4,0,2.2,0.9,2.2,2.1c0,0.9-0.4,1.6-1.2,2.4l-1.2,1.3c-0.2,0.2-0.6,0.4-0.6,0.4s0.3,0,0.6,0h2.3v1
				L140.7,127.9L140.7,127.9z"/>
			<path class="st4" d="M148,124.4c0-2.1,1.6-3.7,3.7-3.7c2,0,3.7,1.5,3.7,3.7s-1.6,3.7-3.7,3.7C149.7,128.1,148,126.5,148,124.4z
				 M154.2,124.4c0-1.5-1-2.7-2.5-2.7c-1.5,0-2.5,1.1-2.5,2.7s1.1,2.7,2.5,2.7C153.2,127.1,154.2,125.9,154.2,124.4z"/>
			<path class="st4" d="M158.5,121.8h-1.2v-1h2.3v7.1h-1.1V121.8z"/>
			<path class="st4" d="M162.1,125.9c0-0.9,0.5-1.5,1.3-1.8c-0.6-0.3-0.9-0.8-0.9-1.5c0-1,0.9-1.8,2.1-1.8c1.2,0,2.1,0.8,2.1,1.8
				c0,0.7-0.4,1.2-0.9,1.5c0.8,0.3,1.3,0.9,1.3,1.8c0,1.3-1,2.2-2.5,2.2S162.1,127.2,162.1,125.9z M166.1,125.8
				c0-0.8-0.5-1.3-1.4-1.3c-0.9,0-1.4,0.5-1.4,1.3c0,0.8,0.5,1.3,1.4,1.3C165.6,127.1,166.1,126.6,166.1,125.8z M165.7,122.7
				c0-0.5-0.4-1-1.1-1c-0.6,0-1,0.4-1,1c0,0.6,0.4,1,1,1C165.3,123.7,165.7,123.2,165.7,122.7z"/>
		</g>
		<g>
			<g>
				<path class="st5" d="M84.6,53.3h0.3l6.7,14.9h-3.2l-0.8-2h-5.7l-0.8,2h-2.9L84.6,53.3z M86.5,63.7l-0.9-2.2
					c-0.4-1-0.8-2.5-0.9-2.6c0,0.1-0.5,1.6-0.9,2.6l-0.9,2.2H86.5z"/>
				<path class="st5" d="M95,60.8c0-4.4,3.4-7.6,7.6-7.6c2.7,0,4.6,1,5.9,3l-2.3,1.7c-0.7-1.1-1.9-1.9-3.6-1.9
					c-2.7,0-4.5,2.1-4.5,4.8c0,2.8,1.8,4.9,4.5,4.9c1.9,0,3-0.9,3.8-2.2l2.4,1.6c-1.3,2-3.3,3.3-6.2,3.3C98.4,68.4,95,65.2,95,60.8z
					"/>
				<path class="st5" d="M113.6,60.8c0-4.4,3.1-7.6,7.5-7.6c2.4,0,4.1,0.7,5.4,2l-2.1,2c-0.7-0.8-1.6-1.4-3.3-1.4
					c-2.7,0-4.4,2.1-4.4,4.8c0,2.8,1.8,4.9,4.9,4.9c1,0,2.1-0.2,2.9-0.5v-2.4h-3.6v-2.7h6.3v6.6c-0.8,0.7-3,1.7-5.7,1.7
					C116.8,68.4,113.6,65.2,113.6,60.8z"/>
			</g>
			<g>
				<path class="st5" d="M98.6,86.3l6.1-6.4c1.6-1.6,2-2.6,2-3.6c0-1-0.6-1.9-2-1.9c-1.3,0-2.2,1-2.6,2.4l-3.1-0.6
					c0.6-2.7,2.6-4.6,5.7-4.6c3.1,0,5,2,5,4.7c0,1.6-0.8,3.1-2.5,4.9l-1.8,1.9c-0.4,0.4-1,0.9-1,0.9s0.7-0.1,1.2-0.1h4v2.7H98.6
					V86.3z"/>
				<path class="st5" d="M115,79.2c0-4.4,3.4-7.6,7.6-7.6s7.6,3.2,7.6,7.6c0,4.4-3.4,7.6-7.6,7.6S115,83.5,115,79.2z M127.1,79.2
					c0-2.8-1.8-4.9-4.5-4.9s-4.5,2.1-4.5,4.9c0,2.8,1.8,4.9,4.5,4.9S127.1,81.9,127.1,79.2z"/>
				<path class="st5" d="M137.9,74.5h-2.6v-2.7h5.7v14.8h-3.1V74.5z"/>
				<path class="st5" d="M146.5,82c0-1.7,0.9-3,2.5-3.6c-0.9-0.6-1.5-1.6-1.5-2.9c0-2.3,2.1-3.9,4.5-3.9s4.5,1.7,4.5,3.9
					c0,1.3-0.6,2.3-1.6,2.9c1.6,0.7,2.5,2,2.5,3.6c0,2.7-2.1,4.8-5.5,4.8C148.6,86.8,146.5,84.8,146.5,82z M154.4,81.9
					c0-1.3-1-2.2-2.4-2.2c-1.5,0-2.4,0.9-2.4,2.2s0.9,2.2,2.4,2.2C153.5,84.1,154.4,83.2,154.4,81.9z M153.7,75.8
					c0-0.9-0.7-1.5-1.6-1.5s-1.6,0.6-1.6,1.5c0,0.9,0.7,1.5,1.6,1.5S153.7,76.7,153.7,75.8z"/>
			</g>
		</g>
		<circle class="st0" cx="151.1" cy="50.6" r="13"/>
		<g>
			<path class="st6" d="M145.4,51.3l-0.9-2.4l-0.9,2.4L145.4,51.3 M142.4,54.1l-0.7,0l0.4-0.9l1.7-4.4c0,0,0.3-0.7,0.3-0.7
				c-0.1-0.1-0.3-0.8-0.3-0.8l0,0l0.4-0.1c0,0,0.3-0.1,0.3-0.1c0.1-0.1,0.2,0,0.2,0s2.5,6.5,2.5,6.6c0,0.1,0.2,0.4,0.2,0.4l-1,0.1
				l-0.9-2.2l-2.3,0l-0.8,2L142.4,54.1z"/>
			<path class="st6" d="M159.2,53.1c-0.1,0.1-0.2,0.3-0.6,0.3c-1,0-2.2-0.6-2.7-1.4c-0.4-0.6-0.5-1.4-0.4-2.3
				c0.1-0.8,0.6-1.3,1.2-1.6c0.6-0.3,1.5-0.1,2,0c0.3,0.1,0.4,0.2,0.5,0.2c0.1,0.1,0.1,0.1,0.1,0.1c0.1,0,0.1-0.1,0.1-0.1l0.6-0.6
				c0,0,0,0,0-0.1c0,0,0,0-0.1-0.1c-0.5-0.3-1-0.5-1.7-0.5c-1.7,0-3.5,1.7-3.5,3.6c0,1.9,1.3,3.4,3,3.4c0.6,0,1.4-0.5,2.4-1.3l0-2.5
				c0,0,0-0.1,0-0.1c0,0,0-0.1,0-0.1c-0.1-0.1-0.1,0-0.1,0h-1.6c0,0,0,0-0.1,0c0,0-0.1,0-0.1,0l-0.8,0.6c0,0-0.1,0.1-0.1,0.1
				c0,0.1,0.1,0.1,0.1,0.1h1.8l0,2L159.2,53.1"/>
			<path class="st6" d="M153.5,47.5C153.5,47.5,153.6,47.5,153.5,47.5c0.1,0.1,0,0.1,0,0.2c-0.2,0.2-0.7,0.6-0.7,0.6s0,0-0.1,0
				c0,0-0.1,0-0.1,0c-0.8-0.4-2.1-0.5-2.9,0c-0.7,0.7-0.7,2.4-0.6,2.8c0.1,0.5,0.6,1.5,1.5,1.8c1,0.4,2.2,0.4,3-0.3
				c0,0,0.1-0.1,0.1-0.1c0,0,0,0.1,0,0.1c-0.3,0.5-1.3,1.3-1.7,1.4c-0.6,0.2-1.5,0.1-2.2-0.3c-1.1-0.6-1.6-1.8-1.6-3
				c-0.1-1.6,1.3-2.8,2.6-3.4C151.7,47,152.7,47.1,153.5,47.5"/>
			<path class="st7" d="M150.8,51.7c0,0,0.1-1.9,0-2.1c-0.1-0.2-0.6-0.7-0.7-0.8c0,0-0.1-0.1-0.1-0.1c0,0,0.1-0.2,0.1-0.2s0,0,0.1,0
				c0,0,0.4,0.3,0.4,0.3c0.1,0.1,0.2-0.1,0.2-0.1l0-0.5"/>
			<path class="st6" d="M163.3,50.6c0,6.7-5.5,12.2-12.2,12.2c-6.7,0-12.2-5.5-12.2-12.2c0-6.7,5.5-12.2,12.2-12.2
				C157.9,38.4,163.3,43.9,163.3,50.6 M151.1,35.9c-8.1,0-14.7,6.6-14.7,14.7c0,8.1,6.6,14.7,14.7,14.7c8.1,0,14.7-6.6,14.7-14.7
				C165.9,42.5,159.3,35.9,151.1,35.9"/>
			<path class="st8" d="M150.8,57.9c0,0-0.4,0.2-0.7,0.5c-0.2,0.3-0.2,0.4-0.2,0.6c0,0.2,0.1,0.4,0.3,0.2c0.2-0.1,0.3-0.2,0.4-0.4
				c0.1-0.1,0.3-0.3,0.3-0.3 M151.5,57.2l0,2.8c0,0,0,0.4-0.2,0.4c-0.2,0.1-0.3-0.1-0.3-0.1s-0.1-0.1-0.1-0.5c0-0.4,0-2.9,0-2.9
				 M150.8,54.1c0,0-0.6,0.2-0.8,0.4c-0.2,0.2-0.4,0.4-0.5,0.8c-0.1,0.4,0.1,0.9,0.5,1.2c0.3,0.2,0.6,0.4,1,0.5
				c0.2,0.1,0.7,0.2,0.7,0.5c0,0.2-0.2,0.2-0.2,0.2 M150.8,55.2c0,0-0.3,0.1-0.3,0.3c0,0.2,0.4,0.5,0.7,0.6c0.3,0.1,0.5,0.2,0.8,0.3
				c0.3,0.2,0.5,0.5,0.5,0.8c0,0.3-0.1,0.6-0.4,0.8c-0.3,0.2-0.6,0.3-0.6,0.3 M153.2,53.2c0,0,0.3,0.6-0.1,1.2
				c-0.2,0.3-0.4,0.5-0.8,0.6c-0.3,0.1-0.7,0.2-0.7,0.2 M150.6,51.6c1.1,0.4,2,0.9,2.5,1.4 M151.6,54.1l-0.1,2.1 M150.8,54.1v1.8
				 M150.8,49.6c-0.4,0.1-1.5,0.7-1.6,1.9 M153.2,47.8c0,0,0.4,0.5,0.2,1.2c-0.1,0.3-0.2,0.7-0.6,1.1c-0.3,0.3-1.1,0.7-1.3,0.7
				 M151.8,48.5l-0.1,3.5 M150,48.1c0,0,1.2,0.2,1.6,0.3c0.4,0.1,0.4,0.6,0.1,0.6 M150.8,43v-1.5c0,0,0-0.2,0.4-0.4
				c0.4-0.1,0.8-0.2,0.8-0.2s0.1-0.2,0.1,0.1c0,0.3,0,2.9,0,2.9h0.1l0.8-0.7c0,0,0.2-0.3,0.4-0.1c0.1,0.2,0.3,0.5,0.3,0.5
				s0.2,0.2-0.2,0.6c-0.3,0.3-1.2,1.3-1.2,1.3s-0.4,0.4-0.4,0.8c-0.1,0.3,0,0.7,0,0.7"/>
			<path class="st8" d="M150.1,48.1c0,0-3.6-0.7-3.6-2.9c0-1.3,1.5-1.8,1.8-1.9c0.3-0.1,0.4-0.1,0.5-0.1c0.1,0,0.1-0.2,0.6-0.3
				c0.4-0.1,1,0.1,1,0.1s0.7,0,0.8,0c0.2,0,0.5,0.1,0.5,0.5c0,0.2-0.2,0.4-0.4,0.5c-0.3,0.1-0.8,0.4-1.4,0.5 M150,44.7
				c0,0-0.4,0.1-0.8,0c-0.3-0.1-0.7-0.2-1,0.2c-0.4,0.5,0.1,1.2,1.9,1.8c0.6,0.2,1.9,0.4,1.9,0.4"/>
			<path class="st9" d="M150.9,44.1c0,0,0.2,0,0.3,0.1c0.1,0.2-0.1,0.3-0.1,0.3s-0.2,0.1-0.5,0.1c-0.3,0-0.4,0-0.4,0
				s-0.4,0.1-0.7,0.1"/>
			<path class="st10" d="M150.3,43.8c0,0.1-0.1,0.2-0.2,0.2c-0.1,0-0.2-0.1-0.2-0.2c0-0.1,0.1-0.2,0.2-0.2
				C150.3,43.6,150.3,43.7,150.3,43.8"/>
			<line class="st7" x1="150.7" y1="44.6" x2="150.7" y2="46.9"/>
			<g>
				<path class="st0" d="M139.3,42.9l-0.2,0.2l1,1.4l0.2-0.3l-0.3-0.4l0.3-0.5l0.5,0.1l0.2-0.3L139.3,42.9z M139.8,43.7l-0.4-0.5
					l0.6,0.1L139.8,43.7z"/>
				<polygon class="st0" points="142.3,41.7 141.1,40.6 140.9,40.9 141.4,42.1 140.2,41.6 140,41.9 141.2,42.9 141.4,42.7 140.6,42 
					141.7,42.4 141.8,42.2 141.3,41.2 142.1,41.9 				"/>
				<polygon class="st0" points="143.5,40.4 142.8,40.9 142.5,40.6 143.1,40.1 143,39.9 142.4,40.4 142.1,40.1 142.8,39.5 
					142.6,39.3 141.7,40.1 142.7,41.3 143.6,40.6 				"/>
				<path class="st0" d="M144,40.3l-0.8-1.4l0.7-0.4c0.1-0.1,0.3-0.1,0.4-0.1c0.1,0,0.2,0.1,0.3,0.2c0.1,0.1,0.1,0.2,0.1,0.3
					c0,0.1,0,0.1,0,0.2c0,0,0,0,0,0l0,0c0,0,0.1,0,0.1,0c0,0,0.1,0,0.1,0.1c0,0,0.1,0.1,0.1,0.1c0,0,0,0.1,0.1,0.1
					c0,0,0,0.1,0.1,0.1c0,0,0,0.1,0.1,0.1c0,0,0,0,0.1,0l0.1,0l-0.3,0.2l0,0c0,0-0.1,0-0.1-0.1c0,0,0,0-0.1-0.1c0,0,0,0,0-0.1l0,0
					c0,0,0-0.1-0.1-0.1c0,0,0-0.1-0.1-0.1c0,0,0,0-0.1,0c0,0,0,0-0.1,0c0,0-0.1,0-0.1,0l-0.4,0.2l0.3,0.6L144,40.3z M144.2,38.7
					c0,0-0.1,0-0.2,0l-0.4,0.2l0.2,0.4l0.3-0.2c0,0,0.1,0,0.1-0.1c0,0,0.1-0.1,0.1-0.1c0,0,0-0.1,0-0.1c0,0,0-0.1,0-0.1
					C144.3,38.7,144.2,38.7,144.2,38.7z"/>
				
					<rect x="145.3" y="37.8" transform="matrix(0.9051 -0.4252 0.4252 0.9051 -2.6111 65.4952)" class="st0" width="0.3" height="1.6"/>
				<path class="st0" d="M147.6,38L147.6,38l-0.3,0l0,0c0,0.1,0,0.1,0,0.2c0,0.1,0,0.1,0,0.1c0,0-0.1,0.1-0.1,0.1
					c0,0-0.1,0.1-0.1,0.1c-0.1,0-0.2,0-0.2,0c-0.1,0-0.1,0-0.2-0.1c-0.1,0-0.1-0.1-0.1-0.1c0-0.1-0.1-0.1-0.1-0.2c0-0.1,0-0.1,0-0.2
					c0-0.1,0-0.1,0-0.2c0-0.1,0.1-0.1,0.1-0.2c0,0,0.1-0.1,0.2-0.1c0.1,0,0.2,0,0.3,0c0.1,0,0.1,0.1,0.2,0.2l0,0l0.3-0.1l0,0
					c0-0.1-0.1-0.1-0.2-0.2c-0.1,0-0.1-0.1-0.2-0.1c-0.1,0-0.1,0-0.2,0c-0.1,0-0.2,0-0.2,0c-0.1,0-0.2,0.1-0.3,0.2
					c-0.1,0.1-0.1,0.2-0.2,0.3c0,0.1-0.1,0.2-0.1,0.3c0,0.1,0,0.2,0.1,0.3c0,0.1,0.1,0.2,0.1,0.3c0.1,0.1,0.1,0.2,0.2,0.2
					c0.1,0.1,0.2,0.1,0.3,0.1c0,0,0,0,0.1,0c0.1,0,0.2,0,0.3,0c0.2-0.1,0.3-0.2,0.4-0.3C147.6,38.4,147.6,38.2,147.6,38z"/>
				<path class="st0" d="M148.7,36.7l-0.3,0.1l-0.3,1.7l0.3-0.1l0.1-0.5l0.6-0.1l0.3,0.4l0.3-0.1L148.7,36.7z M148.9,37.6l-0.4,0.1
					l0.1-0.6L148.9,37.6z"/>
				<polygon class="st0" points="151.3,38.1 151.2,36.5 150.9,36.5 151,37.7 150.2,36.5 149.9,36.6 150,38.2 150.2,38.2 150.2,37 
					151,38.1 				"/>
				<path class="st0" d="M153.2,37.2c0-0.1,0.1-0.1,0.1-0.2c0,0,0.1-0.1,0.2-0.1c0.1,0,0.1,0,0.2,0c0.1,0,0.2,0.1,0.2,0.1
					c0.1,0.1,0.1,0.1,0.1,0.2l0,0l0.3,0.1l0,0c0-0.1,0-0.2,0-0.2c0-0.1-0.1-0.1-0.1-0.2c-0.1-0.1-0.1-0.1-0.2-0.1
					c-0.1,0-0.2-0.1-0.2-0.1c-0.1,0-0.2,0-0.3,0c-0.1,0-0.2,0.1-0.3,0.1c-0.1,0.1-0.1,0.1-0.2,0.2c-0.1,0.1-0.1,0.2-0.1,0.3
					c0,0.1,0,0.2,0,0.3c0,0.1,0,0.2,0.1,0.3c0,0.1,0.1,0.2,0.2,0.2c0.1,0.1,0.2,0.1,0.3,0.1c0.1,0,0.1,0,0.2,0c0.1,0,0.2,0,0.3-0.1
					c0.1-0.1,0.2-0.2,0.3-0.4l0,0l-0.3-0.1l0,0c0,0.1,0,0.1-0.1,0.2c0,0-0.1,0.1-0.1,0.1c0,0-0.1,0-0.1,0.1c-0.1,0-0.1,0-0.2,0
					c-0.1,0-0.2,0-0.2-0.1c-0.1,0-0.1-0.1-0.1-0.1c0-0.1,0-0.1-0.1-0.2c0-0.1,0-0.2,0-0.2C153.2,37.4,153.2,37.3,153.2,37.2z"/>
				<path class="st0" d="M156.3,37.7c0-0.1-0.1-0.2-0.2-0.3c-0.1-0.1-0.2-0.1-0.3-0.2c-0.1,0-0.2-0.1-0.3,0c-0.1,0-0.2,0-0.3,0.1
					c-0.1,0.1-0.2,0.1-0.2,0.2c-0.1,0.1-0.1,0.2-0.1,0.3c0,0.1-0.1,0.2-0.1,0.3c0,0.1,0,0.2,0.1,0.3c0,0.1,0.1,0.2,0.2,0.3
					c0.1,0.1,0.2,0.1,0.3,0.2c0.1,0,0.2,0.1,0.3,0.1c0,0,0,0,0.1,0c0.1,0,0.2,0,0.3-0.1c0.1-0.1,0.2-0.1,0.2-0.2
					c0.1-0.1,0.1-0.2,0.1-0.3c0-0.1,0.1-0.2,0.1-0.3C156.4,37.9,156.4,37.8,156.3,37.7z M155.4,38.6c-0.1,0-0.1-0.1-0.2-0.1
					c0-0.1-0.1-0.1-0.1-0.2c0-0.1,0-0.1,0-0.2c0-0.1,0-0.1,0-0.2c0-0.1,0.1-0.1,0.1-0.2c0-0.1,0.1-0.1,0.1-0.1
					c0.1,0,0.1-0.1,0.2-0.1c0,0,0,0,0.1,0c0.1,0,0.1,0,0.2,0c0.1,0,0.1,0.1,0.2,0.1c0,0.1,0.1,0.1,0.1,0.2c0,0.1,0,0.1,0,0.2
					c0,0.1,0,0.1,0,0.2c0,0.1-0.1,0.1-0.1,0.2c0,0.1-0.1,0.1-0.1,0.1c-0.1,0-0.1,0.1-0.2,0.1C155.6,38.7,155.5,38.6,155.4,38.6z"/>
				<polygon class="st0" points="156.9,39.2 157.5,38 157.3,37.9 156.5,39.3 157.5,39.8 157.6,39.6 				"/>
				<polygon class="st0" points="159,38.9 158.8,38.7 157.9,40 158.8,40.7 158.9,40.5 158.3,40 				"/>
				<polygon class="st0" points="160.9,40.7 161.1,40.5 160.2,39.7 159.1,40.9 160,41.7 160.2,41.5 159.5,40.9 159.8,40.6 
					160.4,41.1 160.6,41 160,40.4 160.2,40.1 				"/>
				<path class="st0" d="M162.2,41.8c0-0.1-0.1-0.1-0.1-0.2c-0.1-0.1-0.2-0.2-0.3-0.2c-0.1,0-0.2-0.1-0.3-0.1c-0.1,0-0.2,0-0.3,0.1
					c-0.1,0-0.2,0.1-0.3,0.2c-0.1,0.1-0.1,0.1-0.2,0.2c-0.1,0.1-0.1,0.2-0.1,0.3c0,0.1,0,0.2,0,0.3c0,0.1,0.1,0.2,0.2,0.3
					c0.1,0.1,0.1,0.1,0.2,0.2c0.1,0,0.1,0.1,0.2,0.1l-0.1,0.1l0.1,0.2l0.7-0.6l-0.5-0.6l-0.2,0.2l0.3,0.4c0,0-0.1,0.1-0.1,0.1
					c-0.1,0-0.1,0-0.2,0c-0.1,0-0.1,0-0.2,0c-0.1,0-0.1-0.1-0.2-0.1c-0.1-0.1-0.1-0.1-0.1-0.2c0-0.1,0-0.1,0-0.2
					c0-0.1,0-0.1,0.1-0.2c0-0.1,0.1-0.1,0.1-0.2c0.1,0,0.1-0.1,0.2-0.1c0.1,0,0.1-0.1,0.2-0.1c0.1,0,0.1,0,0.2,0
					c0.1,0,0.1,0.1,0.2,0.1c0,0,0.1,0.1,0.1,0.1c0,0,0,0.1,0,0.1c0,0,0,0.1,0,0.1c0,0,0,0.1-0.1,0.1l0,0l0.2,0.2l0,0
					c0.1-0.1,0.1-0.1,0.1-0.2c0-0.1,0-0.2,0-0.2C162.3,41.9,162.2,41.8,162.2,41.8z"/>
				<polygon class="st0" points="163.3,43.9 163.6,43.8 163,42.8 161.6,43.6 162.2,44.6 162.4,44.5 162,43.7 162.3,43.5 162.8,44.2 
					163,44.1 162.6,43.4 162.9,43.2 				"/>
				<path class="st0" d="M138.9,57.4c-0.1,0-0.2,0-0.2,0c-0.1,0-0.2-0.1-0.3-0.2c-0.1-0.1-0.2-0.2-0.2-0.3c-0.1-0.1-0.1-0.2-0.1-0.4
					c0-0.1,0-0.2,0.1-0.3c0-0.1,0.1-0.2,0.2-0.3c0.1-0.1,0.2-0.1,0.3-0.2c0.1,0,0.2-0.1,0.3-0.1c0.1,0,0.2,0,0.3,0
					c0.1,0,0.2,0.1,0.3,0.2c0.1,0.1,0.2,0.2,0.2,0.3c0.1,0.1,0.1,0.2,0.1,0.4c0,0.1,0,0.2-0.1,0.3c0,0.1-0.1,0.2-0.2,0.3
					c-0.1,0.1-0.2,0.1-0.3,0.2C139.2,57.4,139.1,57.4,138.9,57.4C139,57.4,139,57.4,138.9,57.4z M139.1,56C139.1,56,139,56,139.1,56
					c-0.2,0-0.2,0-0.3,0.1c-0.1,0-0.1,0.1-0.2,0.1c-0.1,0-0.1,0.1-0.1,0.2c0,0.1-0.1,0.1-0.1,0.2c0,0.1,0,0.2,0.1,0.2
					c0,0.1,0.1,0.1,0.1,0.2c0.1,0,0.1,0.1,0.2,0.1c0,0,0.1,0,0.1,0h0c0,0,0.1,0,0.1,0c0.1,0,0.1,0,0.2-0.1c0.1,0,0.1-0.1,0.2-0.1
					c0.1,0,0.1-0.1,0.1-0.2c0-0.1,0.1-0.1,0.1-0.2c0-0.1,0-0.2-0.1-0.2c0-0.1-0.1-0.1-0.1-0.2c-0.1,0-0.1-0.1-0.2-0.1
					C139.2,56,139.1,56,139.1,56z"/>
				<polygon class="st0" points="140.6,58.3 140.8,58.2 140.2,57.2 138.9,58.1 139,58.4 139.6,58 140,58.6 140.2,58.5 139.8,57.8 
					140.2,57.6 				"/>
				<path class="st0" d="M142.3,60c0-0.1,0-0.2-0.1-0.2c0-0.1-0.1-0.1-0.2-0.2c-0.1-0.1-0.2-0.2-0.3-0.2c-0.1,0-0.2-0.1-0.3,0
					c-0.1,0-0.2,0-0.3,0.1c-0.1,0-0.2,0.1-0.3,0.2c-0.1,0.1-0.1,0.2-0.2,0.3c0,0.1-0.1,0.2-0.1,0.3c0,0.1,0,0.2,0.1,0.3
					c0,0.1,0.1,0.2,0.2,0.3c0.1,0.1,0.2,0.1,0.2,0.2c0.1,0,0.1,0.1,0.2,0.1l-0.1,0.1l0.1,0.2l0.6-0.6l-0.6-0.6l-0.2,0.2l0.4,0.4
					c0,0-0.1,0.1-0.1,0.1c-0.1,0-0.1,0-0.2,0c-0.1,0-0.1,0-0.2,0c-0.1,0-0.1-0.1-0.2-0.1c-0.1-0.1-0.1-0.1-0.1-0.2
					c0-0.1,0-0.1,0-0.2c0-0.1,0-0.1,0.1-0.2c0-0.1,0.1-0.1,0.1-0.2c0.1-0.1,0.1-0.1,0.2-0.1c0.1,0,0.1-0.1,0.2-0.1
					c0.1,0,0.1,0,0.2,0c0.1,0,0.1,0.1,0.2,0.1c0,0,0.1,0.1,0.1,0.1c0,0,0,0.1,0.1,0.1c0,0,0,0.1,0,0.1c0,0,0,0.1-0.1,0.1l0,0
					l0.2,0.2l0,0c0.1-0.1,0.1-0.2,0.1-0.2C142.3,60.2,142.3,60.1,142.3,60z"/>
				<path class="st0" d="M143.2,60.6l-1.5,0.9l0.2,0.2l0.4-0.3l0.5,0.4l-0.1,0.5l0.3,0.2l0.5-1.7L143.2,60.6z M143.1,61l-0.2,0.6
					l-0.3-0.3L143.1,61z"/>
				<path class="st0" d="M144.2,63.2c-0.1,0-0.1,0-0.2,0c-0.1,0-0.1-0.1-0.2-0.1c-0.1,0-0.2-0.1-0.2-0.2c-0.1-0.1-0.1-0.1-0.1-0.2
					c0-0.1,0-0.2,0-0.2c0-0.1,0-0.2,0.1-0.3l0,0l0.2,0.1l0,0c0,0,0,0.1,0,0.1c0,0,0,0.1,0,0.1c0,0,0,0.1,0.1,0.1
					c0,0,0.1,0.1,0.1,0.1c0,0,0.1,0,0.1,0.1c0,0,0.1,0,0.1,0l0,0c0,0,0.1,0,0.1,0c0,0,0.1,0,0.1-0.1c0,0,0-0.1,0-0.1
					c0,0,0-0.1-0.1-0.1c0,0-0.1-0.1-0.1-0.1l-0.1-0.1c0,0-0.1-0.1-0.1-0.1c0,0-0.1-0.1-0.1-0.2c0-0.1,0-0.1,0-0.2
					c0-0.1,0-0.1,0.1-0.2c0-0.1,0.1-0.1,0.2-0.2c0.1,0,0.1-0.1,0.2-0.1c0.1,0,0.1,0,0.2,0c0.1,0,0.1,0,0.2,0.1
					c0.1,0,0.1,0.1,0.2,0.1c0.1,0.1,0.1,0.1,0.1,0.2c0,0.1,0,0.1,0,0.2c0,0.1,0,0.2-0.1,0.2l0,0l-0.2-0.1l0,0c0-0.1,0-0.2,0-0.2
					c0-0.1-0.1-0.1-0.2-0.2c0,0-0.1,0-0.1-0.1c-0.1,0-0.1,0-0.2,0c0,0-0.1,0-0.1,0.1c0,0,0,0.1,0,0.1c0,0,0,0.1,0.1,0.1
					c0,0,0.1,0.1,0.1,0.1c0,0,0.1,0.1,0.1,0.1c0,0,0.1,0.1,0.1,0.1c0,0,0.1,0.1,0.1,0.2c0,0.1,0,0.1,0,0.2c0,0.1,0,0.1-0.1,0.2
					c0,0.1-0.1,0.1-0.2,0.2C144.4,63.2,144.3,63.2,144.2,63.2L144.2,63.2z"/>
				<g>
					<path class="st0" d="M145.5,63.8l-0.3-0.1l0.5-1.2l-0.5-0.2l0.1-0.2l1.3,0.5l-0.1,0.2l-0.5-0.2L145.5,63.8z"/>
				</g>
				<path class="st0" d="M147.7,64.6l-0.3-0.1l0,0c0,0,0-0.1,0-0.1c0,0,0-0.1,0-0.1l0-0.1c0,0,0-0.1,0-0.1c0,0,0-0.1,0-0.1
					c0,0,0-0.1,0-0.1c0,0,0,0,0-0.1c0,0-0.1,0-0.1,0l-0.5-0.1l-0.2,0.6l-0.3-0.1l0.5-1.5l0.8,0.2c0.2,0,0.3,0.1,0.3,0.2
					c0.1,0.1,0.1,0.2,0,0.4c0,0.1-0.1,0.2-0.1,0.2c0,0-0.1,0.1-0.2,0.1c0,0,0,0,0,0c0,0,0,0.1,0.1,0.1c0,0,0,0.1,0,0.1
					c0,0,0,0.1,0,0.1c0,0,0,0.1,0,0.1c0,0,0,0.1,0,0.1c0,0,0,0.1,0,0.1C147.7,64.5,147.7,64.5,147.7,64.6L147.7,64.6z M146.9,63.4
					l0.4,0.1c0,0,0.1,0,0.1,0c0,0,0.1,0,0.1,0c0,0,0.1,0,0.1,0c0,0,0-0.1,0.1-0.1c0-0.1,0-0.1,0-0.2c0,0-0.1-0.1-0.2-0.1L147,63
					L146.9,63.4z"/>
				<path class="st0" d="M149.1,64.9c0,0-0.1,0-0.2,0c-0.1,0-0.2-0.1-0.3-0.1c-0.1-0.1-0.2-0.1-0.2-0.2c-0.1-0.1-0.1-0.2-0.1-0.3
					c0-0.1,0-0.2,0-0.3c0-0.1,0-0.2,0.1-0.3c0-0.1,0.1-0.2,0.2-0.2c0.1-0.1,0.2-0.1,0.3-0.1c0.1,0,0.2,0,0.4,0
					c0.1,0,0.2,0.1,0.3,0.1c0.1,0.1,0.2,0.1,0.2,0.2c0.1,0.1,0.1,0.2,0.1,0.3c0,0.1,0,0.2,0,0.3c0,0.1,0,0.2-0.1,0.3
					c0,0.1-0.1,0.2-0.2,0.2c-0.1,0.1-0.2,0.1-0.3,0.1C149.2,64.8,149.1,64.9,149.1,64.9z M149,63.4c-0.1,0-0.1,0-0.1,0
					c-0.1,0-0.1,0.1-0.2,0.1c-0.1,0-0.1,0.1-0.1,0.2c0,0.1-0.1,0.1-0.1,0.2c0,0.1,0,0.1,0,0.2c0,0.1,0,0.1,0.1,0.2
					c0,0.1,0.1,0.1,0.1,0.2c0.1,0,0.1,0.1,0.2,0.1c0.1,0,0.2,0,0.2,0c0.1,0,0.1-0.1,0.2-0.1c0,0,0.1-0.1,0.1-0.2
					c0-0.1,0.1-0.1,0.1-0.2c0-0.1,0-0.1,0-0.2c0-0.1,0-0.1-0.1-0.2c0-0.1-0.1-0.1-0.1-0.2C149.3,63.5,149.2,63.5,149,63.4
					C149.1,63.4,149,63.4,149,63.4z"/>
				<polygon class="st0" points="151.5,63.6 151.5,63.4 150.3,63.4 150.2,65 151.4,65 151.4,64.7 150.5,64.7 150.5,64.3 151.4,64.3 
					151.4,64 150.5,64 150.6,63.6 				"/>
				<g>
					<polygon class="st0" points="152.9,63.3 153,64.4 152.1,63.3 151.8,63.4 151.9,65 152.2,64.9 152.1,63.8 153,64.9 153.3,64.8 
						153.1,63.2 					"/>
					<polygon class="st0" points="154.8,63.2 154.7,62.9 153.4,63.2 153.4,63.5 154,63.3 154.2,64.7 154.5,64.6 154.2,63.3 					"/>
				</g>
				<polygon class="st0" points="156.5,63.7 155.7,64 155.5,63.6 156.3,63.3 156.2,63.1 155.4,63.3 155.3,63 156.2,62.7 156.1,62.4 
					154.9,62.8 155.5,64.3 156.6,64 				"/>
				<path class="st0" d="M157.1,63.8l-0.7-1.4l0.7-0.4c0.1-0.1,0.3-0.1,0.4-0.1c0.1,0,0.2,0.1,0.3,0.2c0,0.1,0.1,0.2,0.1,0.3
					c0,0.1,0,0.1-0.1,0.2c0,0,0,0,0,0c0,0,0.1,0,0.1,0c0,0,0.1,0,0.1,0.1c0,0,0,0.1,0.1,0.1c0,0,0,0.1,0.1,0.1c0,0,0,0.1,0.1,0.1
					c0,0,0,0.1,0.1,0.1c0,0,0,0,0.1,0l0.1,0l-0.3,0.2l0,0c0,0-0.1,0-0.1-0.1c0,0,0-0.1-0.1-0.1l-0.1-0.1c0,0,0-0.1-0.1-0.1
					c0,0,0-0.1-0.1-0.1c0,0,0,0-0.1,0c0,0,0,0-0.1,0c0,0-0.1,0-0.1,0l-0.4,0.2l0.3,0.6L157.1,63.8z M156.8,62.4l0.2,0.4l0.4-0.2
					c0,0,0.1,0,0.1-0.1c0,0,0.1,0,0.1-0.1c0,0,0-0.1,0-0.1c0,0,0-0.1,0-0.1c0-0.1-0.1-0.1-0.1-0.1c0,0-0.1,0-0.2,0L156.8,62.4z"/>
				<path class="st0" d="M158.9,62.7c-0.1,0-0.1,0-0.2,0c-0.1,0-0.2-0.1-0.3-0.1c-0.1-0.1-0.2-0.1-0.2-0.2c-0.1-0.1-0.1-0.2-0.1-0.3
					c0-0.1,0-0.2,0-0.3c0-0.1,0-0.2,0.1-0.3c0.1-0.1,0.1-0.2,0.3-0.3c0.1-0.1,0.2-0.1,0.3-0.1c0.1,0,0.2,0,0.3,0
					c0.1,0,0.2,0.1,0.3,0.1c0.1,0.1,0.2,0.1,0.2,0.2c0.1,0.1,0.1,0.2,0.1,0.3c0,0.1,0,0.2,0,0.3c0,0.1,0,0.2-0.1,0.3
					c-0.1,0.1-0.1,0.2-0.3,0.3c-0.1,0.1-0.2,0.1-0.3,0.1C159,62.7,158.9,62.7,158.9,62.7z M158.8,61.2
					C158.8,61.2,158.8,61.2,158.8,61.2c-0.1,0-0.2,0-0.3,0.1c-0.1,0.1-0.1,0.1-0.2,0.2c0,0.1-0.1,0.1-0.1,0.2c0,0.1,0,0.1,0,0.2
					c0,0.1,0.1,0.1,0.1,0.2c0,0.1,0.1,0.1,0.1,0.2c0.1,0,0.1,0.1,0.2,0.1c0.1,0,0.1,0,0.2,0c0.1,0,0.1,0,0.2-0.1
					c0.1-0.1,0.1-0.1,0.2-0.2c0-0.1,0.1-0.1,0.1-0.2c0-0.1,0-0.1,0-0.2c0-0.1-0.1-0.1-0.1-0.2c0-0.1-0.1-0.1-0.1-0.2
					c-0.1,0-0.1-0.1-0.2-0.1C158.9,61.2,158.9,61.2,158.8,61.2z"/>
				<polygon class="st0" points="161.1,60.7 160.5,61.3 159.6,60.3 159.3,60.5 160.4,61.7 161.3,60.9 				"/>
				<path class="st0" d="M161.5,60.4c-0.1,0-0.2,0-0.3-0.1c-0.1,0-0.2-0.1-0.3-0.2c-0.1-0.1-0.2-0.2-0.2-0.2
					c-0.1-0.1-0.1-0.2-0.1-0.3c0-0.1,0-0.2,0-0.3c0-0.1,0.1-0.2,0.2-0.3c0.1-0.1,0.2-0.2,0.3-0.2c0.1,0,0.2-0.1,0.3-0.1h0
					c0.1,0,0.2,0,0.3,0.1c0.1,0,0.2,0.1,0.3,0.2c0.1,0.1,0.2,0.2,0.2,0.2c0.1,0.1,0.1,0.2,0.1,0.3c0,0.1,0,0.2,0,0.3
					c0,0.1-0.1,0.2-0.2,0.3c-0.1,0.1-0.2,0.2-0.3,0.2C161.7,60.3,161.6,60.4,161.5,60.4L161.5,60.4z M161.4,59c-0.1,0-0.1,0-0.2,0
					c-0.1,0-0.1,0.1-0.2,0.1c-0.1,0.1-0.1,0.1-0.1,0.2c0,0.1,0,0.1,0,0.2c0,0.1,0,0.1,0.1,0.2c0,0.1,0.1,0.1,0.1,0.2
					c0.1,0,0.1,0.1,0.2,0.1c0.1,0,0.1,0,0.2,0.1c0,0,0,0,0,0l0,0c0.1,0,0.1,0,0.2,0c0.1,0,0.1-0.1,0.2-0.1c0.1-0.1,0.1-0.1,0.1-0.2
					c0-0.1,0-0.1,0-0.2c0-0.1,0-0.1-0.1-0.2c0-0.1-0.1-0.1-0.1-0.2c-0.1,0-0.1-0.1-0.2-0.1C161.5,59,161.5,59,161.4,59
					C161.4,59,161.4,59,161.4,59z"/>
				<g>
					<path class="st0" d="M162.6,58.8c-0.1,0-0.1,0-0.2,0c-0.1,0-0.2-0.1-0.3-0.1c-0.1-0.1-0.2-0.1-0.3-0.2
						c-0.1-0.1-0.1-0.2-0.2-0.3c0-0.1,0-0.2,0-0.3c0-0.1,0.1-0.2,0.1-0.3c0-0.1,0.1-0.1,0.2-0.2c0.1-0.1,0.1-0.1,0.2-0.1
						c0.1,0,0.1,0,0.2-0.1l0,0c0.1,0,0.2,0,0.2,0.1l0,0l-0.2,0.3l0,0c0,0-0.1,0-0.1,0l0,0c0,0-0.1,0-0.1,0c0,0-0.1,0-0.1,0.1
						c0,0-0.1,0.1-0.1,0.1c0,0.1-0.1,0.2-0.1,0.2c0,0.1,0,0.1,0,0.2c0,0.1,0.1,0.1,0.1,0.2c0.1,0.1,0.1,0.1,0.2,0.1
						c0.1,0,0.1,0.1,0.2,0.1c0.1,0,0.1,0,0.2,0c0.1,0,0.1,0,0.2-0.1c0.1,0,0.1-0.1,0.2-0.2c0-0.1,0.1-0.1,0.1-0.2c0-0.1,0-0.1,0-0.2
						c0-0.1,0-0.1-0.1-0.2c0,0-0.1-0.1-0.1-0.1l-0.3,0.4l-0.2-0.1l0.4-0.7l0.8,0.5l-0.1,0.2l-0.1,0c0,0.1,0,0.2,0,0.2
						c0,0.1-0.1,0.2-0.1,0.3c-0.1,0.1-0.1,0.2-0.2,0.3c-0.1,0.1-0.2,0.1-0.3,0.1C162.7,58.8,162.7,58.8,162.6,58.8z"/>
				</g>
				<polygon class="st0" points="163.6,56.3 163,55.3 162.8,55.6 163.3,56.3 162.5,56.5 162.4,56.8 163.5,56.6 164.1,56.8 
					164.2,56.5 				"/>
			</g>
		</g>
	</g>
</g>
</svg>
