<?xml version="1.0" encoding="utf-8"?>
<!-- Generator: Adobe Illustrator 19.2.1, SVG Export Plug-In . SVG Version: 6.00 Build 0)  -->
<svg version="1.1" id="Layer_1" xmlns="http://www.w3.org/2000/svg" xmlns:xlink="http://www.w3.org/1999/xlink" x="0px" y="0px"
	 viewBox="0 0 215.8 31.3" style="enable-background:new 0 0 215.8 31.3;" xml:space="preserve">
<style type="text/css">
	.st0{fill:#002E6D;}
</style>
<g>
	<path class="st0" d="M5.1,0.1h2.4l5.1,12H9.9L8.8,9.4h-5l-1.1,2.7H0L5.1,0.1z M7.9,7.1L6.3,3.3L4.7,7.1H7.9z"/>
	<path class="st0" d="M14.4,0.2h2.8l3.1,5l3.1-5h2.8v11.9h-2.6V4.3l-3.3,5.1h-0.1l-3.3-5v7.7h-2.6L14.4,0.2L14.4,0.2z"/>
	<path class="st0" d="M29.3,0.2h9v2.3h-6.4v2.4h5.6v2.3h-5.6v2.5h6.5V12h-9.1C29.3,12,29.3,0.2,29.3,0.2z"/>
	<path class="st0" d="M40.9,0.2h5.4c1.5,0,2.7,0.4,3.5,1.2c0.7,0.7,1,1.6,1,2.7l0,0c0,1.9-1,3.1-2.5,3.7l2.9,4.2h-3.1l-2.5-3.7l0,0
		h-2v3.8H41V0.2H40.9z M46.2,6c1.3,0,2-0.7,2-1.7l0,0c0-1.1-0.8-1.7-2.1-1.7h-2.5V6H46.2z"/>
	<path class="st0" d="M53.4,0.2H56v11.9h-2.6V0.2z"/>
	<path class="st0" d="M58.4,6.2L58.4,6.2C58.4,2.8,61,0,64.6,0c2.2,0,3.6,0.7,4.7,1.8l-1.7,1.9c-0.9-0.8-1.9-1.3-3-1.3
		c-2,0-3.5,1.7-3.5,3.7l0,0c0,2,1.4,3.7,3.5,3.7c1.4,0,2.2-0.5,3.1-1.4l1.7,1.7c-1.2,1.3-2.6,2.1-4.9,2.1C61,12.3,58.4,9.6,58.4,6.2
		z"/>
	<path class="st0" d="M75.6,0.1H78l5.1,12h-2.7l-1.1-2.7h-5l-1.1,2.7h-2.7L75.6,0.1z M78.3,7.1l-1.6-3.9l-1.6,3.9H78.3z"/>
	<path class="st0" d="M84.9,0.2h2.4l5.6,7.3V0.2h2.6v11.9h-2.2l-5.8-7.6v7.6h-2.6V0.2z"/>
	<path class="st0" d="M102.9,6.2L102.9,6.2c0-3.4,2.5-6.2,6.2-6.2c2.2,0,3.6,0.7,4.7,1.8l-1.7,1.9c-0.9-0.8-1.9-1.3-3-1.3
		c-2,0-3.5,1.7-3.5,3.7l0,0c0,2,1.4,3.7,3.5,3.7c1.4,0,2.2-0.5,3.1-1.4l1.7,1.7c-1.2,1.3-2.6,2.1-4.9,2.1
		C105.5,12.3,102.9,9.6,102.9,6.2z"/>
	<path class="st0" d="M115,6.2L115,6.2c0-3.4,2.7-6.2,6.3-6.2c3.7,0,6.3,2.7,6.3,6.1l0,0c0,3.4-2.7,6.2-6.3,6.2
		C117.6,12.3,115,9.6,115,6.2z M124.9,6.2L124.9,6.2c0-2.1-1.5-3.8-3.6-3.8s-3.6,1.7-3.6,3.7l0,0c0,2,1.5,3.7,3.6,3.7
		S124.9,8.2,124.9,6.2z"/>
	<path class="st0" d="M130,0.2h2.6v9.5h5.9v2.4h-8.6V0.2H130z"/>
	<path class="st0" d="M140.4,0.2h2.6v9.5h5.9v2.4h-8.5V0.2z"/>
	<path class="st0" d="M150.8,0.2h9v2.3h-6.4v2.4h5.6v2.3h-5.6v2.5h6.5V12h-9.1V0.2z"/>
	<path class="st0" d="M161.6,6.2L161.6,6.2c0-3.4,2.6-6.2,6.2-6.2c2.1,0,3.4,0.6,4.7,1.6l-1.6,2c-0.9-0.8-1.7-1.2-3.1-1.2
		c-1.9,0-3.4,1.7-3.4,3.7l0,0c0,2.2,1.5,3.8,3.6,3.8c1,0,1.8-0.2,2.5-0.7V7.5h-2.6V5.3h5.2v5.2c-1.2,1-2.9,1.9-5.1,1.9
		C164.2,12.3,161.6,9.7,161.6,6.2z"/>
	<path class="st0" d="M175.7,0.2h9v2.3h-6.4v2.4h5.6v2.3h-5.6v2.5h6.5V12h-9.1V0.2z"/>
	<path class="st0" d="M191.6,6.2L191.6,6.2c0-3.4,2.7-6.2,6.3-6.2s6.3,2.7,6.3,6.1l0,0c0,3.4-2.7,6.2-6.3,6.2
		C194.3,12.3,191.6,9.6,191.6,6.2z M201.6,6.2L201.6,6.2c0-2.1-1.5-3.8-3.6-3.8s-3.6,1.7-3.6,3.7l0,0c0,2,1.5,3.7,3.6,3.7
		S201.6,8.2,201.6,6.2z"/>
	<path class="st0" d="M206.7,0.2h9.1v2.4h-6.4v2.5h5.7v2.4h-5.7v4.6h-2.6V0.2H206.7z"/>
	<path class="st0" d="M0.5,25.2L0.5,25.2c0-3.4,2.6-6.2,6.2-6.2c2.1,0,3.4,0.6,4.7,1.6l-1.6,2c-0.9-0.8-1.7-1.2-3.1-1.2
		c-1.9,0-3.4,1.7-3.4,3.7l0,0c0,2.2,1.5,3.8,3.6,3.8c1,0,1.8-0.2,2.5-0.7v-1.7H6.7v-2.3h5.2v5.2c-1.2,1-2.9,1.9-5.1,1.9
		C3.1,31.3,0.5,28.7,0.5,25.2z"/>
	<path class="st0" d="M18.3,19.1h2.4l5.1,12h-2.7L22,28.4h-5l-1.1,2.7h-2.7L18.3,19.1z M21,26.1l-1.6-3.9l-1.6,3.9H21z"/>
	<path class="st0" d="M26.8,29.4l1.5-1.9c1.1,0.9,2.2,1.4,3.6,1.4c1.1,0,1.7-0.4,1.7-1.1l0,0c0-0.7-0.4-1-2.4-1.5
		c-2.4-0.6-3.9-1.3-3.9-3.6l0,0c0-2.2,1.7-3.6,4.2-3.6c1.7,0,3.2,0.5,4.4,1.5l-1.4,2c-1.1-0.7-2.1-1.2-3.1-1.2s-1.5,0.5-1.5,1l0,0
		c0,0.8,0.5,1,2.6,1.6c2.4,0.6,3.8,1.5,3.8,3.6l0,0c0,2.4-1.8,3.7-4.4,3.7C30.1,31.3,28.3,30.6,26.8,29.4z"/>
	<path class="st0" d="M41.3,21.6h-3.6v-2.4h9.9v2.4H44v9.5h-2.6v-9.5H41.3z"/>
	<path class="st0" d="M49.4,19.2h5.4c1.5,0,2.7,0.4,3.5,1.2c0.7,0.7,1,1.6,1,2.7l0,0c0,1.9-1,3.1-2.5,3.7l2.9,4.2h-3.1l-2.5-3.8l0,0
		h-2V31h-2.6V19.2H49.4z M54.7,25c1.3,0,2-0.7,2-1.7l0,0c0-1.1-0.8-1.7-2.1-1.7H52V25H54.7z"/>
	<path class="st0" d="M61.1,25.2L61.1,25.2c0-3.4,2.7-6.2,6.3-6.2c3.7,0,6.3,2.7,6.3,6.1l0,0c0,3.4-2.7,6.2-6.3,6.2
		C63.7,31.3,61.1,28.6,61.1,25.2z M71,25.2L71,25.2c0-2.1-1.5-3.8-3.6-3.8s-3.6,1.7-3.6,3.7l0,0c0,2,1.5,3.7,3.6,3.7
		S71,27.2,71,25.2z"/>
	<path class="st0" d="M76.1,19.2h9v2.3h-6.4v2.4h5.6v2.3h-5.6v2.5h6.5V31h-9.1V19.2z"/>
	<path class="st0" d="M87.7,19.2h2.4l5.6,7.3v-7.3h2.6v11.9h-2.2l-5.8-7.6v7.6h-2.6V19.2z"/>
	<path class="st0" d="M103.7,21.6h-3.6v-2.4h9.9v2.4h-3.6v9.5h-2.6v-9.5H103.7z"/>
	<path class="st0" d="M111.8,19.2h9v2.3h-6.4v2.4h5.6v2.3h-5.6v2.5h6.5V31h-9.1V19.2z"/>
	<path class="st0" d="M123.5,19.2h5.4c1.5,0,2.7,0.4,3.5,1.2c0.7,0.7,1,1.6,1,2.7l0,0c0,1.9-1,3.1-2.5,3.7l2.9,4.2h-3.1l-2.5-3.8
		l0,0h-2V31h-2.6L123.5,19.2L123.5,19.2z M128.7,25c1.3,0,2-0.7,2-1.7l0,0c0-1.1-0.8-1.7-2.1-1.7H126V25H128.7z"/>
	<path class="st0" d="M135.1,25.2L135.1,25.2c0-3.4,2.7-6.2,6.3-6.2c3.7,0,6.3,2.7,6.3,6.1l0,0c0,3.4-2.7,6.2-6.3,6.2
		S135.1,28.6,135.1,25.2z M145,25.2L145,25.2c0-2.1-1.5-3.8-3.6-3.8s-3.6,1.7-3.6,3.7l0,0c0,2,1.5,3.7,3.6,3.7
		C143.6,28.9,145,27.2,145,25.2z"/>
	<path class="st0" d="M150.2,19.2h2.6v9.5h5.9v2.4h-8.5V19.2z"/>
	<path class="st0" d="M159.8,25.2L159.8,25.2c0-3.4,2.7-6.2,6.3-6.2c3.7,0,6.3,2.7,6.3,6.1l0,0c0,3.4-2.7,6.2-6.3,6.2
		S159.8,28.6,159.8,25.2z M169.7,25.2L169.7,25.2c0-2.1-1.5-3.8-3.6-3.8s-3.6,1.7-3.6,3.7l0,0c0,2,1.5,3.7,3.6,3.7
		S169.7,27.2,169.7,25.2z"/>
	<path class="st0" d="M174.3,25.2L174.3,25.2c0-3.4,2.6-6.2,6.2-6.2c2.1,0,3.4,0.6,4.7,1.6l-1.6,2c-0.9-0.8-1.7-1.2-3.1-1.2
		c-1.9,0-3.4,1.7-3.4,3.7l0,0c0,2.2,1.5,3.8,3.6,3.8c1,0,1.8-0.2,2.5-0.7v-1.7h-2.6v-2.3h5.2v5.2c-1.2,1-2.9,1.9-5.1,1.9
		C176.8,31.3,174.3,28.7,174.3,25.2z"/>
	<path class="st0" d="M191.1,26.4l-4.6-7.2h3.1l2.8,4.8l2.9-4.8h3l-4.6,7.2v4.7h-2.6L191.1,26.4L191.1,26.4z"/>
</g>
</svg>
