<svg version="1.1" id="Layer_1" xmlns="http://www.w3.org/2000/svg" xmlns:xlink="http://www.w3.org/1999/xlink" x="0px" y="0px"
	 viewBox="0 0 167.8 146.4" enable-background="new 0 0 167.8 146.4" xml:space="preserve">
<g>
	<g id="ACGCRJ_1_">
		<g>
			
				<path fill="none" stroke-width="4.7795" stroke-linecap="round" stroke-linejoin="round" stroke-miterlimit="10" d="
				M2.4,103.2v13.9c0,2.7,2.7,5.6,5.3,5.6h153.5c2.6,0,4.2-2.7,4.2-5.4v-14.1H2.4z"/>
			
				<path fill="none" stroke-width="4.7795" stroke-linecap="round" stroke-linejoin="round" stroke-miterlimit="10" d="
				M65.8,122.9c0,0,2.6,9.5-2,15.6c-3.2,4.2-10,5.5-10,5.5"/>
			
				<line fill="none" stroke-width="4.7795" stroke-linecap="round" stroke-linejoin="round" stroke-miterlimit="10" x1="53.8" y1="144" x2="114.1" y2="144"/>
			
				<path fill="none" stroke-width="4.7795" stroke-linecap="round" stroke-linejoin="round" stroke-miterlimit="10" d="
				M119,2.4H6.9c-2.5,0-4.5,2-4.5,4.5v96.4h163V6.9c0-2.5-2-4.5-4.5-4.5H119"/>
			
				<path fill="none" stroke-width="4.7795" stroke-linecap="round" stroke-linejoin="round" stroke-miterlimit="10" d="
				M102.1,122.9c0,0-2.6,9.5,2,15.6c3.2,4.2,10,5.5,10,5.5"/>
		</g>
	</g>
	<g>
		<g>
			
				<line fill="none" stroke-width="4.7795" stroke-linecap="round" stroke-linejoin="round" stroke-miterlimit="10" x1="42.4" y1="50.8" x2="42.4" y2="87.4"/>
			
				<path fill="none" stroke-width="4.7795" stroke-linecap="round" stroke-linejoin="round" stroke-miterlimit="10" d="
				M112.3,66.1c0,8.4-12.7,15.3-28.4,15.3c-15.7,0-28.4-6.9-28.4-15.3"/>
			
				<path fill="none" stroke-width="4.7795" stroke-linecap="round" stroke-linejoin="round" stroke-miterlimit="10" d="
				M112.3,57.2V77c0,8.4-12.7,15.3-28.4,15.3c-15.7,0-28.4-6.9-28.4-15.3V57.2"/>
			
				<polygon fill="none" stroke-width="4.7795" stroke-linecap="round" stroke-linejoin="round" stroke-miterlimit="10" points="
				83.9,11.5 22.7,37.7 22.7,42.1 83.9,68.3 145,42.1 145,37.7 			"/>
			
				<line fill="none" stroke-width="4.7795" stroke-linecap="round" stroke-linejoin="round" stroke-miterlimit="10" x1="86.1" y1="35.5" x2="81.7" y2="35.5"/>
		</g>
	</g>
</g>
</svg>
