<svg version="1.1" id="Layer_1" xmlns="http://www.w3.org/2000/svg" xmlns:xlink="http://www.w3.org/1999/xlink" x="0px" y="0px"
	 viewBox="0 0 201.1 145.9" enable-background="new 0 0 201.1 145.9" xml:space="preserve">
<g id="Finance_101">
	<path d="M1.3,90.7l53.5,31.3c0.4,0.2,0.9,0.4,1.3,0.4c0.3,0,0.6-0.1,0.9-0.2l142.3-54.6c0.9-0.4,1.6-1.2,1.7-2.2
		c0.1-1-0.4-2-1.3-2.5l-53.5-31.3c-0.7-0.4-1.5-0.5-2.3-0.2l-27.9,10.7c-1.4,0.5-2,2-1.5,3.4c0.5,1.4,2,2,3.4,1.5l26.7-10.3
		l47.7,27.9L56.3,116.9L8.7,89l76.3-29.2c1.4-0.5,2-2,1.5-3.4c-0.5-1.4-2-2-3.4-1.5L1.7,86c-0.9,0.4-1.6,1.2-1.7,2.2
		C-0.1,89.2,0.4,90.2,1.3,90.7z"/>
	<path d="M114.1,82.9c-10.5,4-25.4,3.8-32.7-0.5c-1.3-0.8-3.4-2.3-3.3-4.2c0.1-1.7,2-4.3,7-6.6c1.3-0.6,1.9-2.2,1.3-3.5
		c-0.6-1.3-2.2-1.9-3.5-1.3c-6.3,2.9-9.9,6.8-10.1,11.1c-0.1,2,0.5,5.9,5.9,9c4.6,2.7,11.4,4.1,18.6,4.1c6.3,0,12.9-1.1,18.6-3.3
		c7.4-2.8,11.8-7.1,12.2-11.8c0.2-2.1-0.4-6-5.9-9.3c-1.3-0.8-2.8-1.4-4.4-2c-1.4-0.5-2.9,0.3-3.3,1.6c-0.5,1.4,0.3,2.9,1.6,3.3
		c1.3,0.4,2.4,1,3.4,1.5c1.3,0.8,3.5,2.3,3.3,4.3C122.8,77.5,120.4,80.5,114.1,82.9z"/>
	<path d="M55.8,86.8c-3.1,0-6.2,0.5-8.8,1.5c-3.9,1.5-6.1,3.8-6.3,6.5c-0.2,2.1,1,4.1,3.3,5.5c2.2,1.3,5.4,2,9,2
		c3.1,0,6.2-0.5,8.8-1.5c3.9-1.5,6.1-3.8,6.4-6.5c0.2-2.1-1-4.1-3.3-5.5C62.6,87.5,59.4,86.8,55.8,86.8z M59.9,95.8
		c-2,0.8-4.4,1.2-6.9,1.2c-2.6,0-4.9-0.5-6.3-1.3c-0.5-0.3-0.7-0.5-0.7-0.6c0.2-0.3,0.9-1.1,3-1.9c2-0.8,4.4-1.2,6.9-1.2
		c2.6,0,5,0.5,6.3,1.3c0.5,0.3,0.7,0.5,0.7,0.6C62.7,94.2,62,95,59.9,95.8z"/>
	<path d="M145.2,66.9c3.1,0,6.2-0.5,8.8-1.5c3.9-1.5,6.1-3.8,6.3-6.5c0.2-2.1-1-4.1-3.3-5.5c-2.2-1.3-5.4-2-9-2
		c-3.1,0-6.2,0.5-8.8,1.5c-3.9,1.5-6.1,3.8-6.3,6.5c-0.2,2.1,1,4.1,3.3,5.5C138.5,66.2,141.6,66.9,145.2,66.9z M141.1,57.9
		c2-0.8,4.4-1.2,6.9-1.2c2.6,0,5,0.5,6.3,1.3c0.5,0.3,0.7,0.5,0.7,0.6c-0.2,0.3-0.9,1.1-3,1.9c-2,0.8-4.4,1.2-6.9,1.2
		c-2.6,0-4.9-0.5-6.3-1.3c-0.5-0.3-0.7-0.5-0.7-0.6C138.3,59.5,139,58.7,141.1,57.9z"/>
	<path d="M197.5,74.5L56.3,128.6L4,97.9c-1.3-0.7-2.9-0.3-3.6,0.9c-0.7,1.2-0.3,2.9,0.9,3.6l53.5,31.3c0.4,0.2,0.9,0.4,1.3,0.4
		c0.3,0,0.6-0.1,0.9-0.2l142.3-54.5c1.4-0.5,2-2,1.5-3.4C200.4,74.7,198.8,74,197.5,74.5z"/>
	<path d="M197.5,86.2L56.3,140.3L4,109.6c-1.3-0.7-2.9-0.3-3.6,0.9c-0.7,1.3-0.3,2.9,0.9,3.6l53.5,31.3c0.4,0.2,0.9,0.4,1.3,0.4
		c0.3,0,0.6-0.1,0.9-0.2l142.3-54.6c1.4-0.5,2-2,1.5-3.4C200.4,86.4,198.8,85.7,197.5,86.2z"/>
	<path d="M86.7,43.6c0,5.2,4.4,9.5,10.3,10.5v10.8c-1.8-0.5-3.2-1.4-4.2-2.6c-0.9-1.2-2.5-1.4-3.7-0.5c-1.2,0.9-1.4,2.5-0.5,3.7
		c1.9,2.6,4.9,4.3,8.4,4.8v2.6c0,1.4,1.2,2.6,2.6,2.6c1.4,0,2.6-1.2,2.6-2.6v-2.6c5.9-1,10.3-5.3,10.3-10.5c0-5.2-4.3-9.5-10.3-10.5
		V38.4c1.8,0.5,3.4,1.4,4.3,2.8c0.8,1.2,2.5,1.5,3.7,0.6c1.2-0.8,1.5-2.5,0.6-3.7c-1.9-2.7-5-4.5-8.6-5.1V29c0-1.4-1.2-2.6-2.6-2.6
		c-1.4,0-2.6,1.2-2.6,2.6v4.1C91.2,34.1,86.7,38.4,86.7,43.6z M92,43.6c0-2.3,2.1-4.3,5.1-5.1v10.3C94.1,47.9,92,45.9,92,43.6z
		 M107.3,59.8c0,2.3-2.1,4.3-5,5.1V54.6C105.2,55.4,107.3,57.4,107.3,59.8z"/>
	<path d="M62.7,42.6h4.1v4.1c0,1.4,1.2,2.6,2.6,2.6c1.4,0,2.6-1.2,2.6-2.6v-4.1H76c1.4,0,2.6-1.2,2.6-2.6c0-1.4-1.2-2.6-2.6-2.6H72
		v-4.1c0-1.4-1.2-2.6-2.6-2.6c-1.4,0-2.6,1.2-2.6,2.6v4.1h-4.1c-1.4,0-2.6,1.2-2.6,2.6C60,41.5,61.2,42.6,62.7,42.6z"/>
	<path d="M75.5,11.9h4.1V16c0,1.4,1.2,2.6,2.6,2.6c1.4,0,2.6-1.2,2.6-2.6v-4.1h4.1c1.4,0,2.6-1.2,2.6-2.6c0-1.4-1.2-2.6-2.6-2.6
		h-4.1V2.6c0-1.4-1.2-2.6-2.6-2.6c-1.4,0-2.6,1.2-2.6,2.6v4.1h-4.1c-1.4,0-2.6,1.2-2.6,2.6C72.8,10.8,74,11.9,75.5,11.9z"/>
	<path d="M109.9,20.9h4.5v4.5c0,1.4,1.2,2.6,2.6,2.6c1.4,0,2.6-1.2,2.6-2.6v-4.5h4.5c1.4,0,2.6-1.2,2.6-2.6c0-1.4-1.2-2.6-2.6-2.6
		h-4.5v-4.5c0-1.4-1.2-2.6-2.6-2.6c-1.4,0-2.6,1.2-2.6,2.6v4.5h-4.5c-1.4,0-2.6,1.2-2.6,2.6C107.3,19.8,108.5,20.9,109.9,20.9z"/>
</g>
</svg>
