<svg version="1.1" id="Layer_1" xmlns="http://www.w3.org/2000/svg" xmlns:xlink="http://www.w3.org/1999/xlink" x="0px" y="0px"
	 viewBox="0 0 170.4 142.1" enable-background="new 0 0 170.4 142.1" xml:space="preserve">
<g id="Trainee_Meetings">
	<path d="M170.4,88.6c0-14.8-11.3-26.9-25.8-28.2V21.9c0-6.7-5.4-12.1-12.1-12.1h-8.1V2.6c0-1.4-1.2-2.6-2.6-2.6h-11.6
		c-1.4,0-2.6,1.2-2.6,2.6v7.2H37V2.6C37,1.2,35.8,0,34.4,0H22.8c-1.4,0-2.6,1.2-2.6,2.6v7.2h-8.1C5.4,9.8,0,15.2,0,21.9v15.7
		c0,0,0,0,0,0c0,0,0,0,0,0V130c0,6.7,5.4,12.1,12.1,12.1h120.5c6.7,0,12.1-5.4,12.1-12.1v-13.2C159.1,115.5,170.4,103.4,170.4,88.6z
		 M112.9,5.2h6.4v7.2c0,0,0,0,0,0.1c0,0,0,0,0,0.1v7.2h-6.4V5.2z M25.4,5.2h6.4v14.4h-6.4V5.2z M12.1,15h8.1v7.2
		c0,1.4,1.2,2.6,2.6,2.6h11.6c1.4,0,2.6-1.2,2.6-2.6V15h70.7v7.2c0,1.4,1.2,2.6,2.6,2.6h11.6c1.4,0,2.6-1.2,2.6-2.6V15h8.1
		c3.8,0,6.9,3.1,6.9,6.9v13.2H5.2V21.9C5.2,18.1,8.3,15,12.1,15z M132.6,136.9H12.1c-3.8,0-6.9-3.1-6.9-6.9V40.3h134.3v20.1
		c-14.4,1.3-25.8,13.5-25.8,28.2s11.3,26.9,25.8,28.2V130C139.5,133.8,136.4,136.9,132.6,136.9z M142.1,111.8
		c-12.8,0-23.2-10.4-23.2-23.2c0-12.8,10.4-23.2,23.2-23.2c12.8,0,23.2,10.4,23.2,23.2C165.2,101.4,154.9,111.8,142.1,111.8z"/>
	<path d="M144.7,83.6V71.4c0-1.4-1.2-2.6-2.6-2.6c-1.4,0-2.6,1.2-2.6,2.6v12.1c-1,0.5-1.9,1.4-2.4,2.5h-7.2c-1.4,0-2.6,1.2-2.6,2.6
		c0,1.4,1.2,2.6,2.6,2.6h7.2c0.9,1.8,2.8,3.1,5,3.1c3.1,0,5.7-2.5,5.7-5.7C147.8,86.4,146.5,84.5,144.7,83.6z"/>
	<path d="M25.5,53.8h-5c-1.4,0-2.6,1.2-2.6,2.6v5c0,1.4,1.2,2.6,2.6,2.6h5c1.4,0,2.6-1.2,2.6-2.6v-5C28.1,55,26.9,53.8,25.5,53.8z"
		/>
	<path d="M41.9,53.8h-5c-1.4,0-2.6,1.2-2.6,2.6v5c0,1.4,1.2,2.6,2.6,2.6h5c1.4,0,2.6-1.2,2.6-2.6v-5C44.5,55,43.3,53.8,41.9,53.8z"
		/>
	<path d="M58.4,53.8h-5c-1.4,0-2.6,1.2-2.6,2.6v5c0,1.4,1.2,2.6,2.6,2.6h5c1.4,0,2.6-1.2,2.6-2.6v-5C61,55,59.8,53.8,58.4,53.8z"/>
	<path d="M74.8,53.8h-5c-1.4,0-2.6,1.2-2.6,2.6v5c0,1.4,1.2,2.6,2.6,2.6h5c1.4,0,2.6-1.2,2.6-2.6v-5C77.4,55,76.3,53.8,74.8,53.8z"
		/>
	<path d="M91.3,53.8h-5c-1.4,0-2.6,1.2-2.6,2.6v5c0,1.4,1.2,2.6,2.6,2.6h5c1.4,0,2.6-1.2,2.6-2.6v-5C93.9,55,92.7,53.8,91.3,53.8z"
		/>
	<path d="M107.7,53.8h-5c-1.4,0-2.6,1.2-2.6,2.6v5c0,1.4,1.2,2.6,2.6,2.6h5c1.4,0,2.6-1.2,2.6-2.6v-5
		C110.3,55,109.2,53.8,107.7,53.8z"/>
	<path d="M119.2,64h5c1.4,0,2.6-1.2,2.6-2.6v-5c0-1.4-1.2-2.6-2.6-2.6h-5c-1.4,0-2.6,1.2-2.6,2.6v5C116.6,62.8,117.8,64,119.2,64z"
		/>
	<path d="M25.5,73.6h-5c-1.4,0-2.6,1.2-2.6,2.6v5c0,1.4,1.2,2.6,2.6,2.6h5c1.4,0,2.6-1.2,2.6-2.6v-5C28.1,74.8,26.9,73.6,25.5,73.6z
		"/>
	<path d="M41.9,73.6h-5c-1.4,0-2.6,1.2-2.6,2.6v5c0,1.4,1.2,2.6,2.6,2.6h5c1.4,0,2.6-1.2,2.6-2.6v-5C44.5,74.8,43.3,73.6,41.9,73.6z
		"/>
	<path d="M58.4,73.6h-5c-1.4,0-2.6,1.2-2.6,2.6v5c0,1.4,1.2,2.6,2.6,2.6h5c1.4,0,2.6-1.2,2.6-2.6v-5C61,74.8,59.8,73.6,58.4,73.6z"
		/>
	<path d="M74.8,73.6h-5c-1.4,0-2.6,1.2-2.6,2.6v5c0,1.4,1.2,2.6,2.6,2.6h5c1.4,0,2.6-1.2,2.6-2.6v-5C77.4,74.8,76.3,73.6,74.8,73.6z
		"/>
	<path d="M91.3,73.6h-5c-1.4,0-2.6,1.2-2.6,2.6v5c0,1.4,1.2,2.6,2.6,2.6h5c1.4,0,2.6-1.2,2.6-2.6v-5C93.9,74.8,92.7,73.6,91.3,73.6z
		"/>
	<path d="M107.7,73.6h-5c-1.4,0-2.6,1.2-2.6,2.6v5c0,1.4,1.2,2.6,2.6,2.6h5c1.4,0,2.6-1.2,2.6-2.6v-5
		C110.3,74.8,109.2,73.6,107.7,73.6z"/>
	<path d="M25.5,93.4h-5c-1.4,0-2.6,1.2-2.6,2.6v5c0,1.4,1.2,2.6,2.6,2.6h5c1.4,0,2.6-1.2,2.6-2.6v-5C28.1,94.6,26.9,93.4,25.5,93.4z
		"/>
	<path d="M41.9,93.4h-5c-1.4,0-2.6,1.2-2.6,2.6v5c0,1.4,1.2,2.6,2.6,2.6h5c1.4,0,2.6-1.2,2.6-2.6v-5C44.5,94.6,43.3,93.4,41.9,93.4z
		"/>
	<path d="M58.4,93.4h-5c-1.4,0-2.6,1.2-2.6,2.6v5c0,1.4,1.2,2.6,2.6,2.6h5c1.4,0,2.6-1.2,2.6-2.6v-5C61,94.6,59.8,93.4,58.4,93.4z"
		/>
	<path d="M74.8,93.4h-5c-1.4,0-2.6,1.2-2.6,2.6v5c0,1.4,1.2,2.6,2.6,2.6h5c1.4,0,2.6-1.2,2.6-2.6v-5C77.4,94.6,76.3,93.4,74.8,93.4z
		"/>
	<path d="M91.3,93.4h-5c-1.4,0-2.6,1.2-2.6,2.6v5c0,1.4,1.2,2.6,2.6,2.6h5c1.4,0,2.6-1.2,2.6-2.6v-5C93.9,94.6,92.7,93.4,91.3,93.4z
		"/>
	<path d="M107.7,93.4h-5c-1.4,0-2.6,1.2-2.6,2.6v5c0,1.4,1.2,2.6,2.6,2.6h5c1.4,0,2.6-1.2,2.6-2.6v-5
		C110.3,94.6,109.2,93.4,107.7,93.4z"/>
	<path d="M25.5,113.2h-5c-1.4,0-2.6,1.2-2.6,2.6v5c0,1.4,1.2,2.6,2.6,2.6h5c1.4,0,2.6-1.2,2.6-2.6v-5
		C28.1,114.4,26.9,113.2,25.5,113.2z"/>
	<path d="M41.9,113.2h-5c-1.4,0-2.6,1.2-2.6,2.6v5c0,1.4,1.2,2.6,2.6,2.6h5c1.4,0,2.6-1.2,2.6-2.6v-5
		C44.5,114.4,43.3,113.2,41.9,113.2z"/>
	<path d="M58.4,113.2h-5c-1.4,0-2.6,1.2-2.6,2.6v5c0,1.4,1.2,2.6,2.6,2.6h5c1.4,0,2.6-1.2,2.6-2.6v-5
		C61,114.4,59.8,113.2,58.4,113.2z"/>
	<path d="M74.8,113.2h-5c-1.4,0-2.6,1.2-2.6,2.6v5c0,1.4,1.2,2.6,2.6,2.6h5c1.4,0,2.6-1.2,2.6-2.6v-5
		C77.4,114.4,76.3,113.2,74.8,113.2z"/>
	<path d="M91.3,113.2h-5c-1.4,0-2.6,1.2-2.6,2.6v5c0,1.4,1.2,2.6,2.6,2.6h5c1.4,0,2.6-1.2,2.6-2.6v-5
		C93.9,114.4,92.7,113.2,91.3,113.2z"/>
	<path d="M107.7,113.2h-5c-1.4,0-2.6,1.2-2.6,2.6v5c0,1.4,1.2,2.6,2.6,2.6h5c1.4,0,2.6-1.2,2.6-2.6v-5
		C110.3,114.4,109.2,113.2,107.7,113.2z"/>
	<path d="M124.2,113.2h-5c-1.4,0-2.6,1.2-2.6,2.6v5c0,1.4,1.2,2.6,2.6,2.6h5c1.4,0,2.6-1.2,2.6-2.6v-5
		C126.8,114.4,125.6,113.2,124.2,113.2z"/>
</g>
</svg>
