<?xml version="1.0" encoding="utf-8"?>
<!-- Generator: Adobe Illustrator 22.0.1, SVG Export Plug-In . SVG Version: 6.00 Build 0)  -->
<svg version="1.1" id="Layer_1" xmlns="http://www.w3.org/2000/svg" xmlns:xlink="http://www.w3.org/1999/xlink" x="0px" y="0px"
	 viewBox="0 0 148.7 148.7" enable-background="new 0 0 148.7 148.7" xml:space="preserve">
<g id="Abstracts">
	<g>
		<g>
			<g>
				<path d="M73,99.4c-1.3,0-2.3-1-2.3-2.3V72.1c0-1.3,1-2.3,2.3-2.3s2.3,1,2.3,2.3v25.1C75.3,98.4,74.2,99.4,73,99.4z"/>
			</g>
			<g>
				<path d="M91.2,99.4c-1.3,0-2.3-1-2.3-2.3V60.7c0-1.3,1-2.3,2.3-2.3c1.3,0,2.3,1,2.3,2.3v36.5C93.5,98.4,92.5,99.4,91.2,99.4z"/>
			</g>
			<g>
				<path d="M109.5,99.4c-1.3,0-2.3-1-2.3-2.3V51.5c0-1.3,1-2.3,2.3-2.3c1.3,0,2.3,1,2.3,2.3v45.6C111.7,98.4,110.7,99.4,109.5,99.4
					z"/>
			</g>
			<g>
				<path d="M125.4,99.4c-1.3,0-2.3-1-2.3-2.3V72.1c0-1.3,1-2.3,2.3-2.3s2.3,1,2.3,2.3v25.1C127.7,98.4,126.7,99.4,125.4,99.4z"/>
			</g>
		</g>
	</g>
	<g>
		<g>
			<g>
				<g>
					<g>
						<g>
							<path d="M29.9,34.8c-9.6,0-17.4-7.8-17.4-17.4C12.5,7.8,20.3,0,29.9,0c9.6,0,17.4,7.8,17.4,17.4C47.3,27,39.5,34.8,29.9,34.8
								z M29.9,5C23,5,17.5,10.5,17.5,17.4c0,6.9,5.6,12.4,12.4,12.4c6.9,0,12.4-5.6,12.4-12.4C42.3,10.5,36.7,5,29.9,5z"/>
						</g>
						<g>
							<g>
								<path d="M41,148.7H20.2c-1.3,0-2.3-1-2.5-2.2l-5.3-49.6c-0.1-1.4,0.8-2.6,2.2-2.7c1.4-0.1,2.6,0.8,2.7,2.2l5.1,47.3h16.3
									l3.4-47.3c0.1-1.4,1.3-2.4,2.7-2.3c1.4,0.1,2.4,1.3,2.3,2.7l-3.6,49.6C43.4,147.7,42.3,148.7,41,148.7z"/>
							</g>
						</g>
						<g>
							<path d="M14.9,99.1H2.5C1.1,99.1,0,98,0,96.6V68.4c0-1.4,1.1-2.5,2.5-2.5C3.8,65.9,5,67,5,68.4v25.8h9.9
								c1.4,0,2.5,1.1,2.5,2.5S16.2,99.1,14.9,99.1z"/>
						</g>
						<g>
							<path d="M57,99.1H44.6c-1.4,0-2.5-1.1-2.5-2.5s1.1-2.5,2.5-2.5h9.9V66.9c0-1.4,1.1-2.5,2.5-2.5c1.4,0,2.5,1.1,2.5,2.5v29.7
								C59.5,98,58.4,99.1,57,99.1z"/>
						</g>
					</g>
				</g>
			</g>
			<g>
				<path d="M57,69.4c-1.4,0-2.5-1.1-2.5-2.5c0-14.1-10.7-24.7-24.8-24.7C15.6,42.2,5,52.8,5,66.9c0,1.4-1.1,2.5-2.5,2.5
					c-1.4,0-2.5-1.1-2.5-2.5C0,50,12.8,37.3,29.7,37.3c17,0,29.7,12.7,29.7,29.6C59.5,68.3,58.4,69.4,57,69.4z"/>
			</g>
		</g>
		<g>
			<g>
				<g>
					<g>
						<path d="M74.3,148.7c-1.4,0-2.5-1.1-2.5-2.5v-28.9c0-1.4,1.1-2.5,2.5-2.5c1.4,0,2.5,1.1,2.5,2.5v28.9
							C76.8,147.6,75.7,148.7,74.3,148.7z"/>
					</g>
					<g>
						<path d="M74.3,17.3c-1.4,0-2.5-1.1-2.5-2.5V2.5C71.9,1.1,73,0,74.3,0c1.4,0,2.5,1.1,2.5,2.5v12.4
							C76.8,16.2,75.7,17.3,74.3,17.3z"/>
					</g>
					<g>
						<path d="M136.3,148.7c-0.8,0-1.6-0.4-2.1-1.1l-18.8-28.1c-0.8-1.1-0.5-2.7,0.7-3.4c1.1-0.8,2.7-0.5,3.4,0.7l18.8,28.1
							c0.8,1.1,0.5,2.7-0.7,3.4C137.3,148.6,136.8,148.7,136.3,148.7z"/>
					</g>
				</g>
				<g>
					<path d="M146.2,37.2H64.4c-1.4,0-2.5-1.1-2.5-2.5s1.1-2.5,2.5-2.5h79.3V17.3H64.4c-1.4,0-2.5-1.1-2.5-2.5s1.1-2.5,2.5-2.5h81.8
						c1.4,0,2.5,1.1,2.5,2.5v19.8C148.7,36.1,147.6,37.2,146.2,37.2z"/>
				</g>
			</g>
			<g>
				<path d="M136.3,119H64.4c-1.4,0-2.5-1.1-2.5-2.5c0-1.4,1.1-2.5,2.5-2.5h69.4V37.2c0-1.4,1.1-2.5,2.5-2.5c1.4,0,2.5,1.1,2.5,2.5
					v79.3C138.8,117.8,137.7,119,136.3,119z"/>
			</g>
		</g>
	</g>
</g>
</svg>
