<?xml version="1.0" encoding="utf-8"?>
<!-- Generator: Adobe Illustrator 22.0.1, SVG Export Plug-In . SVG Version: 6.00 Build 0)  -->
<svg version="1.1" id="Layer_1" xmlns="http://www.w3.org/2000/svg" xmlns:xlink="http://www.w3.org/1999/xlink" x="0px" y="0px"
	 viewBox="0 0 140.5 152.5" enable-background="new 0 0 140.5 152.5" xml:space="preserve">
<g id="Manuscripts">
	<g>
		<g>
			
				<rect x="26.1" y="14.2" fill="none" stroke-width="4.5" stroke-linecap="round" stroke-linejoin="round" stroke-miterlimit="10" width="90.7" height="124.1"/>
			
				<path fill="none" stroke-width="4.5" stroke-linecap="round" stroke-linejoin="round" stroke-miterlimit="10" d="
				M26.1,138.3c0-6.6-5.3-11.9-11.9-11.9c-6.6,0-11.9,5.3-11.9,11.9c0,6.6,5.3,11.9,11.9,11.9h78.8v-10.8"/>
			
				<path fill="none" stroke-width="4.5" stroke-linecap="round" stroke-linejoin="round" stroke-miterlimit="10" d="
				M26.1,14.2c0-6.6-5.3-11.9-11.9-11.9C7.6,2.2,2.2,7.6,2.2,14.2v124.1"/>
			<g>
				
					<line fill="none" stroke-width="4.5" stroke-linecap="round" stroke-linejoin="round" stroke-miterlimit="10" x1="14.2" y1="52.4" x2="14.2" y2="55.1"/>
				
					<line fill="none" stroke-width="4.5" stroke-linecap="round" stroke-linejoin="round" stroke-miterlimit="10" x1="14.2" y1="62.9" x2="14.2" y2="65.7"/>
				
					<line fill="none" stroke-width="4.5" stroke-linecap="round" stroke-linejoin="round" stroke-miterlimit="10" x1="14.2" y1="73.5" x2="14.2" y2="76.2"/>
			</g>
		</g>
		<g>
			
				<line fill="none" stroke-width="4.5" stroke-linecap="round" stroke-linejoin="round" stroke-miterlimit="10" x1="35.7" y1="26.1" x2="71.5" y2="26.1"/>
			<g>
				
					<line fill="none" stroke-width="4.5" stroke-linecap="round" stroke-linejoin="round" stroke-miterlimit="10" x1="35.7" y1="78.6" x2="107.3" y2="78.6"/>
				
					<line fill="none" stroke-width="4.5" stroke-linecap="round" stroke-linejoin="round" stroke-miterlimit="10" x1="35.7" y1="88.2" x2="107.3" y2="88.2"/>
				
					<line fill="none" stroke-width="4.5" stroke-linecap="round" stroke-linejoin="round" stroke-miterlimit="10" x1="64.3" y1="97.7" x2="107.3" y2="97.7"/>
				
					<line fill="none" stroke-width="4.5" stroke-linecap="round" stroke-linejoin="round" stroke-miterlimit="10" x1="64.3" y1="107.3" x2="107.3" y2="107.3"/>
				
					<line fill="none" stroke-width="4.5" stroke-linecap="round" stroke-linejoin="round" stroke-miterlimit="10" x1="64.3" y1="116.8" x2="107.3" y2="116.8"/>
				
					<line fill="none" stroke-width="4.5" stroke-linecap="round" stroke-linejoin="round" stroke-miterlimit="10" x1="35.7" y1="126.4" x2="83.8" y2="126.4"/>
				
					<line fill="none" stroke-width="4.5" stroke-linecap="round" stroke-linejoin="round" stroke-miterlimit="10" x1="92.6" y1="126.4" x2="107.3" y2="126.4"/>
			</g>
			
				<rect x="35.7" y="97.7" fill="none" stroke-width="4.5" stroke-linecap="round" stroke-linejoin="round" stroke-miterlimit="10" width="19.1" height="19.1"/>
			<g>
				
					<rect x="35.7" y="33.3" fill="none" stroke-width="4.5" stroke-linecap="round" stroke-linejoin="round" stroke-miterlimit="10" width="71.6" height="38.2"/>
				<g>
					
						<line fill="none" stroke-width="4.5" stroke-linecap="round" stroke-linejoin="round" stroke-miterlimit="10" x1="42.8" y1="70.7" x2="42.8" y2="59.5"/>
					
						<line fill="none" stroke-width="4.5" stroke-linecap="round" stroke-linejoin="round" stroke-miterlimit="10" x1="52.4" y1="70.7" x2="52.4" y2="52.4"/>
					
						<line fill="none" stroke-width="4.5" stroke-linecap="round" stroke-linejoin="round" stroke-miterlimit="10" x1="61.9" y1="70.7" x2="61.9" y2="57.1"/>
					
						<line fill="none" stroke-width="4.5" stroke-linecap="round" stroke-linejoin="round" stroke-miterlimit="10" x1="71.5" y1="70.7" x2="71.5" y2="42.8"/>
					
						<line fill="none" stroke-width="4.5" stroke-linecap="round" stroke-linejoin="round" stroke-miterlimit="10" x1="81" y1="70.7" x2="81" y2="50"/>
					
						<line fill="none" stroke-width="4.5" stroke-linecap="round" stroke-linejoin="round" stroke-miterlimit="10" x1="90.6" y1="70.7" x2="90.6" y2="38"/>
					
						<line fill="none" stroke-width="4.5" stroke-linecap="round" stroke-linejoin="round" stroke-miterlimit="10" x1="100.1" y1="70.7" x2="100.1" y2="47.6"/>
				</g>
			</g>
		</g>
	</g>
	<g>
		
			<line fill="none" stroke-width="4.5" stroke-linecap="round" stroke-linejoin="round" stroke-miterlimit="10" x1="138.3" y1="92.9" x2="128.7" y2="92.9"/>
		
			<line fill="none" stroke-width="4.5" stroke-linecap="round" stroke-linejoin="round" stroke-miterlimit="10" x1="128.7" y1="138.3" x2="138.3" y2="138.3"/>
		
			<polyline fill="none" stroke-width="4.5" stroke-linecap="round" stroke-linejoin="round" stroke-miterlimit="10" points="
			128.7,138.3 128.7,35.7 131.1,23.7 135.9,23.7 138.3,35.7 138.3,138.3 		"/>
		
			<path fill="none" stroke-width="4.5" stroke-linecap="round" stroke-linejoin="round" stroke-miterlimit="10" d="
			M128.7,138.3v7.2c0,1.2,0.5,2.4,1.4,3.4c0.9,0.9,2.2,1.4,3.4,1.4c1.2,0,2.4-0.5,3.4-1.4c0.9-0.9,1.4-2.2,1.4-3.4v-7.2"/>
		
			<line fill="none" stroke-width="4.5" stroke-linecap="round" stroke-linejoin="round" stroke-miterlimit="10" x1="138.3" y1="35.7" x2="128.7" y2="35.7"/>
		
			<line fill="none" stroke-width="4.5" stroke-linecap="round" stroke-linejoin="round" stroke-miterlimit="10" x1="138.3" y1="45.2" x2="128.7" y2="45.2"/>
		
			<line fill="none" stroke-width="4.5" stroke-linecap="round" stroke-linejoin="round" stroke-miterlimit="10" x1="133.5" y1="23.7" x2="133.5" y2="13.8"/>
	</g>
</g>
</svg>
