<?xml version="1.0" encoding="utf-8"?>
<!-- Generator: Adobe Illustrator 22.0.1, SVG Export Plug-In . SVG Version: 6.00 Build 0)  -->
<svg version="1.1" id="Layer_1" xmlns="http://www.w3.org/2000/svg" xmlns:xlink="http://www.w3.org/1999/xlink" x="0px" y="0px"
	 viewBox="0 0 191.5 136.8" enable-background="new 0 0 191.5 136.8" xml:space="preserve">
<g id="Grants">
	<path d="M166.8,109.7c-1.5,0-2.8,1.2-2.8,2.8v6.3c0,6.9-5.6,12.5-12.5,12.5H18c-6.9,0-12.5-5.6-12.5-12.5V18
		c0-6.9,5.6-12.5,12.5-12.5h133.6c6.9,0,12.5,5.6,12.5,12.5v9c0,1.5,1.2,2.8,2.8,2.8c1.5,0,2.8-1.2,2.8-2.8v-9c0-9.9-8.1-18-18-18
		H18C8.1,0,0,8.1,0,18v100.8c0,9.9,8.1,18,18,18h133.6c9.9,0,18-8.1,18-18v-6.3C169.6,111,168.4,109.7,166.8,109.7z"/>
	<path d="M23,44.4h114.3c1.5,0,2.8-1.2,2.8-2.8c0-1.5-1.2-2.8-2.8-2.8H23c-1.5,0-2.8,1.2-2.8,2.8C20.2,43.2,21.4,44.4,23,44.4z"/>
	<path d="M149.5,27c0-1.5-1.2-2.8-2.8-2.8H23c-1.5,0-2.8,1.2-2.8,2.8c0,1.5,1.2,2.8,2.8,2.8h123.7C148.2,29.8,149.5,28.6,149.5,27z"
		/>
	<path d="M23,59h109c1.5,0,2.8-1.2,2.8-2.8c0-1.5-1.2-2.8-2.8-2.8H23c-1.5,0-2.8,1.2-2.8,2.8C20.2,57.7,21.4,59,23,59z"/>
	<path d="M23,73.6h109.5c1.5,0,2.8-1.2,2.8-2.8c0-1.5-1.2-2.8-2.8-2.8H23c-1.5,0-2.8,1.2-2.8,2.8C20.2,72.3,21.4,73.6,23,73.6z"/>
	<path d="M142.7,85.4c0-1.5-1.2-2.8-2.8-2.8H23c-1.5,0-2.8,1.2-2.8,2.8c0,1.5,1.2,2.8,2.8,2.8h117C141.5,88.2,142.7,86.9,142.7,85.4
		z"/>
	<path d="M23,106.8c-1.5,0-2.8,1.2-2.8,2.8c0,1.5,1.2,2.8,2.8,2.8h34.7c1.5,0,2.8-1.2,2.8-2.8c0-1.5-1.2-2.8-2.8-2.8H23z"/>
	<path d="M67.8,106.8c-1.5,0-2.8,1.2-2.8,2.8c0,1.5,1.2,2.8,2.8,2.8h9.3c1.5,0,2.8-1.2,2.8-2.8c0-1.5-1.2-2.8-2.8-2.8H67.8z"/>
	<path d="M87.6,106.8c-1.5,0-2.8,1.2-2.8,2.8c0,1.5,1.2,2.8,2.8,2.8h4.7c1.5,0,2.8-1.2,2.8-2.8c0-1.5-1.2-2.8-2.8-2.8H87.6z"/>
	<path d="M191.5,61.4c0-13.6-11.1-24.7-24.7-24.7c-13.6,0-24.7,11.1-24.7,24.7c0,7.8,3.6,14.7,9.2,19.2v29c0,1.1,0.7,2.1,1.7,2.6
		c1,0.4,2.2,0.2,3-0.5l10.8-10.1l10.8,10.1c0.5,0.5,1.2,0.8,1.9,0.8c0.4,0,0.7-0.1,1.1-0.2c1-0.4,1.7-1.4,1.7-2.6v-29
		C187.9,76.1,191.5,69.2,191.5,61.4z M147.7,61.4c0-10.5,8.6-19.1,19.1-19.1c10.5,0,19.1,8.6,19.1,19.1c0,10.5-8.6,19.1-19.1,19.1
		C156.3,80.6,147.7,72,147.7,61.4z M156.9,84c2.2,1,4.6,1.6,7.1,1.9v10.5l-7.1,6.7V84z M176.7,103.2l-7.1-6.7V86
		c2.5-0.3,4.9-0.9,7.1-1.9V103.2z"/>
	<path d="M156.1,59.8L162,64l-2.4,6.9c-0.1,0.3,0,0.7,0.3,0.9c0.1,0.1,0.3,0.2,0.5,0.2c0.2,0,0.3-0.1,0.5-0.2l5.9-4.3l5.8,4.4
		c0.1,0.1,0.3,0.2,0.5,0.2c0.2,0,0.3,0,0.5-0.1c0.3-0.2,0.4-0.6,0.3-0.9l-2.2-6.9l6-4.3c0.3-0.2,0.4-0.6,0.3-0.9
		c-0.1-0.3-0.4-0.6-0.8-0.6h-7.3l-2.1-6.9c-0.1-0.3-0.4-0.6-0.8-0.6c0,0,0,0,0,0c-0.3,0-0.7,0.2-0.8,0.6l-2.3,6.9h-7.3
		c-0.4,0-0.7,0.2-0.8,0.6C155.7,59.2,155.8,59.6,156.1,59.8z"/>
</g>
</svg>
