<?xml version="1.0" encoding="utf-8"?>
<!-- Generator: Adobe Illustrator 22.0.1, SVG Export Plug-In . SVG Version: 6.00 Build 0)  -->
<svg version="1.1" id="Layer_1" xmlns="http://www.w3.org/2000/svg" xmlns:xlink="http://www.w3.org/1999/xlink" x="0px" y="0px"
	 viewBox="0 0 158 147.9" enable-background="new 0 0 158 147.9" xml:space="preserve">
<g id="ACGCRJ">
	<g>
		<path fill="none" stroke-width="4.5" stroke-linecap="round" stroke-linejoin="round" d="M2.3,107.2v13.1
			c0,2.5,2.5,5.3,5,5.3h144.5c2.5,0,4-2.6,4-5.1v-13.3H2.3z"/>
		<path fill="none" stroke-width="4.5" stroke-linecap="round" stroke-linejoin="round" d="M61.9,125.7
			c0,0,2.4,8.9-1.9,14.7c-3,4-9.4,5.2-9.4,5.2"/>
		
			<line fill="none" stroke-width="4.5" stroke-linecap="round" stroke-linejoin="round" x1="50.6" y1="145.7" x2="107.4" y2="145.7"/>
		<path fill="none" stroke-width="4.5" stroke-linecap="round" stroke-linejoin="round" d="M8.5,12.3H6.5
			c-2.3,0-4.2,1.9-4.2,4.3v90.8h153.5V16.5c0-2.3-1.9-4.3-4.2-4.3h-2"/>
		<path fill="none" stroke-width="4.5" stroke-linecap="round" stroke-linejoin="round" d="M96.1,125.7
			c0,0-2.4,8.9,1.9,14.7c3,4,9.4,5.2,9.4,5.2"/>
	</g>
	<g>
		<g>
			<path fill="none" stroke-width="4.5" stroke-linecap="round" stroke-linejoin="round" d="M70,2.2H17.9v88.7H70
				c5.1,0,9.2,4.2,9.2,9.3V11.6C79.2,6.4,75.1,2.2,70,2.2z"/>
			<path fill="none" stroke-width="4.5" stroke-linecap="round" stroke-linejoin="round" d="M88.7,2.2h52.1v88.7
				H88.7c-5.1,0-9.2,4.2-9.2,9.3V11.6C79.5,6.4,83.6,2.2,88.7,2.2z"/>
		</g>
		<g>
			
				<line fill="none" stroke-width="4.5" stroke-linecap="round" stroke-linejoin="round" x1="27.3" y1="16.1" x2="54.2" y2="16.1"/>
			
				<line fill="none" stroke-width="4.5" stroke-linecap="round" stroke-linejoin="round" x1="27.3" y1="28.2" x2="69.2" y2="28.2"/>
			
				<line fill="none" stroke-width="4.5" stroke-linecap="round" stroke-linejoin="round" x1="27.3" y1="40.1" x2="69.2" y2="40.1"/>
			
				<line fill="none" stroke-width="4.5" stroke-linecap="round" stroke-linejoin="round" x1="27.3" y1="51.9" x2="69.2" y2="51.9"/>
			
				<line fill="none" stroke-width="4.5" stroke-linecap="round" stroke-linejoin="round" x1="27.3" y1="63.8" x2="69.2" y2="63.8"/>
			
				<line fill="none" stroke-width="4.5" stroke-linecap="round" stroke-linejoin="round" x1="27.3" y1="75.7" x2="69.2" y2="75.7"/>
			
				<line fill="none" stroke-width="4.5" stroke-linecap="round" stroke-linejoin="round" x1="88.1" y1="28.2" x2="130" y2="28.2"/>
			
				<line fill="none" stroke-width="4.5" stroke-linecap="round" stroke-linejoin="round" x1="88.1" y1="40.1" x2="130" y2="40.1"/>
			
				<line fill="none" stroke-width="4.5" stroke-linecap="round" stroke-linejoin="round" x1="88.1" y1="51.9" x2="130" y2="51.9"/>
			
				<line fill="none" stroke-width="4.5" stroke-linecap="round" stroke-linejoin="round" x1="88.1" y1="63.8" x2="130" y2="63.8"/>
			
				<line fill="none" stroke-width="4.5" stroke-linecap="round" stroke-linejoin="round" x1="88.1" y1="75.7" x2="130" y2="75.7"/>
		</g>
	</g>
</g>
</svg>
