
<svg version="1.1" id="Layer_1" xmlns="http://www.w3.org/2000/svg" xmlns:xlink="http://www.w3.org/1999/xlink" x="0px" y="0px"
	 viewBox="0 0 132.9 148.2" enable-background="new 0 0 132.9 148.2" xml:space="preserve">
<g id="Find_A_Mentor">
	<g>
		<g>
			
				<path fill="none" stroke-width="4.5" stroke-linecap="round" stroke-linejoin="round" stroke-miterlimit="10" d="
				M42,100.1c0,6.7-5.5,12.2-12.2,12.2l0,0c-6.7,0-12.2-5.5-12.2-12.2V94c0-6.7,5.5-12.2,12.2-12.2l0,0C36.5,81.7,42,87.2,42,94
				V100.1z"/>
			
				<path fill="none" stroke-width="4.5" stroke-linecap="round" stroke-linejoin="round" stroke-miterlimit="10" d="
				M35.9,112.3v2.6c0,1,0.3,2.1,0.8,3.1c0.6,1,1.3,1.7,2.3,2.2l12.2,6.9c1.8,1,3.4,2.5,4.5,4.5c1.1,1.9,1.7,4.1,1.7,6.1v8.2"/>
			
				<path fill="none" stroke-width="4.5" stroke-linecap="round" stroke-linejoin="round" stroke-miterlimit="10" d="
				M2.2,145.9v-8.2c0-2.1,0.5-4.2,1.7-6.1c1.1-1.9,2.7-3.4,4.5-4.5l12.2-6.9c0.9-0.5,1.7-1.3,2.3-2.2c0.6-1,0.8-2,0.8-3.1v-2.6"/>
		</g>
		<g>
			
				<path fill="none" stroke-width="4.5" stroke-linecap="round" stroke-linejoin="round" stroke-miterlimit="10" d="
				M115.4,100.1c0,6.7-5.5,12.2-12.2,12.2l0,0c-6.7,0-12.2-5.5-12.2-12.2V94c0-6.7,5.5-12.2,12.2-12.2l0,0c6.7,0,12.2,5.5,12.2,12.2
				V100.1z"/>
			
				<path fill="none" stroke-width="4.5" stroke-linecap="round" stroke-linejoin="round" stroke-miterlimit="10" d="
				M109.3,112.3v2.6c0,1,0.3,2.1,0.8,3.1c0.6,1,1.3,1.7,2.3,2.2l12.2,6.9c1.8,1,3.4,2.5,4.5,4.5c1.1,1.9,1.7,4.1,1.7,6.1v8.2"/>
			
				<path fill="none" stroke-width="4.5" stroke-linecap="round" stroke-linejoin="round" stroke-miterlimit="10" d="
				M75.6,145.9v-8.2c0-2.1,0.5-4.2,1.7-6.1c1.1-1.9,2.7-3.4,4.5-4.5l12.2-6.9c0.9-0.5,1.7-1.3,2.3-2.2c0.6-1,0.8-2,0.8-3.1v-2.6"/>
		</g>
	</g>
	<path fill="none" stroke-width="4.5" stroke-linecap="round" stroke-linejoin="round" stroke-miterlimit="10" d="
		M72.6,51.2H57.3c-3.4,0-6.1-2.8-6.1-6.1V8.4c0-3.4,2.8-6.1,6.1-6.1h67.3c3.4,0,6.1,2.8,6.1,6.1v36.7c0,3.4-2.8,6.1-6.1,6.1h-3.1
		v12.2l-12.2-12.2H90.9"/>
	<path fill="none" stroke-width="4.5" stroke-linecap="round" stroke-linejoin="round" stroke-miterlimit="10" d="
		M42,14.5H8.4c-3.4,0-6.1,2.8-6.1,6.1v36.7c0,3.4,2.8,6.1,6.1,6.1h3.1v12.2l12.2-12.2h52c3.4,0,6.1-2.8,6.1-6.1V20.6
		c0-3.4-2.8-6.1-6.1-6.1H60.3"/>
</g>
</svg>
