<svg version="1.1" id="Layer_1" xmlns="http://www.w3.org/2000/svg" xmlns:xlink="http://www.w3.org/1999/xlink" x="0px" y="0px"
	 viewBox="0 0 141.9 143.2" enable-background="new 0 0 141.9 143.2" xml:space="preserve">
<g id="Job_Search">
	<g>
		<g>
			<path fill="none" stroke-width="4.5" stroke-linecap="round" stroke-linejoin="round" d="M89.1,53.5
				c0,20.3-16.3,36.8-36.5,36.8c-20.1,0-36.5-16.5-36.5-36.8c0-20.3,16.3-36.8,36.5-36.8C72.8,16.7,89.1,33.2,89.1,53.5z"/>
			<path fill="none" stroke-width="4.5" stroke-linecap="round" stroke-linejoin="round" d="M73.8,53.5
				c0,20.3-9.4,36.8-21.1,36.8c-11.6,0-21.1-16.5-21.1-36.8c0-20.3,9.4-36.8,21.1-36.8C64.3,16.7,73.8,33.2,73.8,53.5z"/>
			<path fill="none" stroke-width="4.5" stroke-linecap="round" stroke-linejoin="round" d="M52.7,90.4
				c20.1,0,36.5-16.5,36.5-36.8c0-20.3-16.3-36.8-36.5-36.8V90.4z"/>
			<path fill="none" stroke-width="4.5" stroke-linecap="round" stroke-linejoin="round" d="M16.2,53.5
				c0,4.6,0.9,8.9,2.4,13h68.2c1.5-4,2.4-8.4,2.4-13c0-4.6-0.9-8.9-2.4-13H18.6C17.1,44.6,16.2,49,16.2,53.5z"/>
		</g>
	</g>
	<g>
		<path fill="none" stroke-width="4.5" stroke-linecap="round" stroke-linejoin="round" d="M83.9,84.7"/>
	</g>
	<path fill="none" stroke-width="4.5" stroke-linecap="round" stroke-linejoin="round" d="M88.4,17.2
		C78.9,7.6,66.2,2.2,52.7,2.3c-13.5,0-26.2,5.3-35.8,15c-9.5,9.6-14.7,22.4-14.7,36c0,28.1,22.7,51,50.5,51c13.5,0,26.2-5.3,35.8-15
		c9.5-9.6,14.7-22.4,14.7-36C103.3,39.6,98,26.8,88.4,17.2z"/>
	<polygon fill="none" stroke-width="4.5" stroke-linecap="round" stroke-linejoin="round" points="136.4,120.5 
		119.4,137.7 88.3,106.3 105.3,89.1 	"/>
	
		<line fill="none" stroke-width="4.5" stroke-linecap="round" stroke-linejoin="round" x1="114.5" y1="97.9" x2="103" y2="109.2"/>
	<path fill="none" stroke-width="4.5" stroke-linecap="round" stroke-linejoin="round" d="M135.5,119.7
		c1.4,1.4,2.7,2.7,4.1,4.1c0,9.5-7.6,17.1-17,17.1c-1.4-1.4-2.7-2.7-4.1-4.1"/>
	<g>
		
			<line fill="none" stroke-width="4.5" stroke-linecap="round" stroke-linejoin="round" x1="95.7" y1="96.9" x2="88.6" y2="89.7"/>
	</g>
</g>
</svg>
