<?xml version="1.0" encoding="utf-8"?>
<!-- Generator: Adobe Illustrator 19.2.1, SVG Export Plug-In . SVG Version: 6.00 Build 0)  -->
<svg version="1.1" id="Layer_1" xmlns="http://www.w3.org/2000/svg" xmlns:xlink="http://www.w3.org/1999/xlink" x="0px" y="0px"
	 viewBox="0 0 194.1 105.8" style="enable-background:new 0 0 194.1 105.8;" xml:space="preserve">
<style type="text/css">
	.st0{fill:#002E6D;}
	.st1{fill:#980539;stroke:#980539;stroke-width:0.2609;stroke-miterlimit:10;}
	.st2{fill:#980539;}
</style>
<g>
	<path class="st0" d="M41.2,74.7c0-0.1,1.5-0.9,1.6-0.9c0.3,1.1,2.5,3.7,8.9,3.6c-4.6-0.6-6.4-4.6-4-5.8c0.6-0.3,10.9-4,11.2-2.4
		c1,5.8-3.7,9.6-7.8,10.2C47.7,79.8,43.2,79.1,41.2,74.7"/>
	<g>
		<path class="st0" d="M70,79.7c-1.2,0.6-2.2,1-3.5,1.1c-0.8,0.1-1.7,0-2.5,0.1c-1.1,1.8-1.9,3.6-2.6,5.6c-0.6,1.6-0.5,3.6-1.3,5.1
			c-0.4,0.7-1.1,1.1-1.9,1.1c-0.3,0-0.8-0.1-1-0.5c-0.1-0.2,1.2-2.9,1.4-3.4c0.5-1.5,1.1-2.9,1.6-4.3c0.4-1.1,0.8-2.3,1.2-3.4
			c-0.6-0.1-2.1-0.3-3-0.7c-0.5-0.2-0.9-0.6-0.9-1.1c0-0.7,0.9-1,1.5-1c1.2,0,2.3,0.5,3.5,0.4c0.5-0.4,1.2-3.7,1.6-4.4
			c0.3-0.7,1.2-1.8,2.1-1.8c0.7,0,1.2,0.6,1.2,1.3c0,1-1.6,3.7-2.1,4.8c0.9-0.1,2.1,0,2.9-0.4c1.3-0.6,2.5-2.2,2.5-3.7
			c0-0.7-0.2-1.3-0.7-1.8c-1.5-1.8-2.2-2.8-4.6-3.2c-0.6-0.1-1.6-0.2-2.1-0.5c-0.2-0.1-0.2-0.2-0.2-0.4c0-0.5,0.3-0.7,0.3-1.1
			c0-0.5,1.2-0.5,1.5-0.5c1,0,1.9,0.3,2.8,0.7c2.7,1.3,6.4,3,6.4,6.5C73.9,76.9,72.4,78.6,70,79.7"/>
		<path class="st0" d="M94.7,72.9c-0.2,1.1-1.6,3.4-2.9,3.4c-0.8,0-0.9-0.7-0.9-1.3c0-1.1,0-1,0.8-1.8c1-1.1,2.3-2.3,2.7-2.3
			c0.3,0,0.4,0.4,0.4,0.6C94.8,71.9,94.8,72.4,94.7,72.9 M97.1,83c-0.9,0.9-2.6,1.8-3.3,2.1c-0.7,0.3-3.5,1.1-4.1,1.1
			c-0.9,0-2.3-0.6-2.8-1.4c-0.2-0.4-0.2-0.6-0.3-1c0.2-0.9,0.4-2.2,0.9-3c0.5-0.7,1.7-2.4,2.6-2.4c0.4,0,0.5,0.4,0.5,0.7
			c0,1.5-1.1,2.9-1.1,3.8c0,0.8,1.1,1.2,1.7,1.2c1.4,0,4.4-1.3,5.4-2.2c0.2-0.2,0.4-0.4,0.6-0.4c0.2,0,0.3,0.1,0.3,0.3
			C97.6,82.3,97.4,82.6,97.1,83"/>
		<path class="st0" d="M103.3,71.9c-0.7,0.3-2.2,3-3.1,5c-0.5,1.1-0.7,1.9-0.7,2.5c0.5-0.4,1.9-1.7,2.5-2.6c1.1-1.8,1.4-3.7,1.4-4.6
			C103.4,72.1,103.4,72,103.3,71.9 M105.6,83.2c0,0-2.4,1.6-2.7,1.8c-0.9,0.6-2.5,1.2-3.5,1.2c-0.6,0-2.1-0.8-2.5-1.3
			c-0.3-0.4-0.3-1-0.4-1.5c-0.3,0.2-0.8,0.3-1.2,0.3c-0.1,0-0.4,0-0.4-0.2c0-0.3,1.3-1.2,1.5-1.5c0.2-1.4,0.5-2.7,0.9-3.9
			c1.2-3.2,3.6-6.8,5.8-9.3c0.4-0.4,0.9-0.8,1.4-0.8c0.6,0,0.7,1,0.7,1.5c0,2.2-1.5,7-3,8.5c-1,1.1-2.8,2.4-3.4,3.2
			c0,0.3,0,0.6,0,0.9c0,1.1,0.3,2.3,1.6,2.3c1.7,0,4-2,4.8-2c0.2,0,0.4,0,0.4,0.3C105.9,82.8,105.7,83.1,105.6,83.2"/>
		<path class="st0" d="M116.2,82.8c-0.7,0.8-2.2,1.5-3.2,1.5c-0.7,0-1.2-0.3-1.5-0.9c-1.1,1.2-2.6,2.1-4.2,2.1c-1.2,0-2.5-0.6-2.5-2
			c0-1.3,0.6-1.5,1.3-2.2c1-1.1,1.6-1.6,2.8-2.3c0.7-0.4,1.1-0.9,1.6-1.6c0.1-0.1,0.2-0.7-0.1-0.6c-0.7,0.2-1.3,1-2.1,1
			c-0.7,0-1.4-0.6-1.4-1.3c0-0.2,0.1-0.4,0.1-0.5c0.2-0.9,1.9-0.9,2.4-0.9c1,0,2.5,0.3,2.5,1.6c0,1.2-1.3,2.6-1.9,3.6
			c-0.5,0.9-2,1.4-2,2.6c0,0.3,0.1,0.8,0.5,0.8c1,0,2.3-2,2.5-2.9c0.1-0.3,0.2-1.6,0.7-1.6c0.2,0,0.3,0.2,0.4,0.3
			c0.5,0.7,0.3,2.4,0.8,3.3c0.2,0.3,0.5,0.5,1,0.5c0.1,0,0.3,0,0.4-0.1c0.5-0.3,0.9-0.9,1.6-0.9c0.2,0,0.4,0.1,0.4,0.3
			C116.4,82.5,116.3,82.7,116.2,82.8"/>
		<path class="st0" d="M123.4,69.4c-1.1,0-1.2,2.5-1.2,3.2c0,1,0.1,1.9,0.4,2.9c0.2,0.7,0.8,2.9,1.2,3.4c1-1.5,1.5-3.2,1.5-4.9
			C125.4,73,124.9,69.4,123.4,69.4 M127.8,83.6c-0.3,0.2-0.7,0.2-1.1,0.2c-1.9,0-2.2-0.4-3.5-1.6c-0.4,1.5-3.9,4.2-5.4,4.6
			c-0.3,0.1-0.6,0.1-0.9,0.1c-1.8,0-2.2-1.1-2.2-2.6c0-4,2.2-5.8,3.6-5.8c0.8,0,1.5,0.4,1.5,1.3c0,0.5-0.4,0.6-0.8,0.6
			c-0.8,0-1.2,1.7-1.2,2.3c0,0.6,0.2,1.2,0.9,1.2c0.6,0,2.5-1.1,3.3-1.9c0.3-0.3,0.5-0.6,0.4-0.8c-0.8-1.6-1.6-2.9-2.1-4.6
			c-0.3-0.9-0.3-2-0.3-3c0-1.2,0.1-2.5,0.4-3.7c0.4-1.5,1.7-2.8,3.3-2.8c1.9,0,2.9,3.8,2.9,5.4c0,2-0.8,6.2-2,7.9
			c0,1.3,1.6,2.4,2.7,2.4c0.7,0,1.1-0.7,1.6-0.7c0.2,0,0.3,0.2,0.3,0.3C129.2,82.6,128.2,83.4,127.8,83.6"/>
		<path class="st0" d="M133.8,77.2c-0.5,0-1,0.4-1.5,1c-0.5,0.6-1.1,1.5-1.1,2.3c0.5-0.1,1.3-0.5,2.1-1c0.8-0.6,1.2-1,1.1-2
			C134.4,77.2,134,77.2,133.8,77.2 M140.2,82.4c-0.6,0.8-2.1,1.7-2.7,2.1c-1.3,0.8-2.7,1.9-4.3,1.9c-0.3,0-0.6,0-0.9-0.1
			c-2.1-0.5-2.7-1.5-3.6-3.4c-0.5,0.3-1,0.8-1.7,0.8c-0.1,0-0.4-0.1-0.4-0.2c0-0.4,1.6-1.5,1.9-2c0-0.8,0.3-1.7,0.6-2.6
			c0.8-1.8,2.3-3.5,4.2-3.5c1.4,0,2.8,0.9,2.8,2.5c0,2.2-3.1,3-4.6,3.8c-0.5,0.2-0.7,0.5-0.7,0.7c0,0.7,1.6,2.2,2.2,2.3
			c0.3,0,0.5,0,0.8,0c1.7,0,2.5-0.6,3.8-1.5c0.2-0.1,1.2-0.9,1.9-1.4c0.3-0.2,0.5-0.4,0.5-0.4c0.2,0,0.3,0.1,0.3,0.3
			C140.5,81.9,140.4,82.2,140.2,82.4"/>
		<path class="st0" d="M146.1,71.9c-0.7,0.3-2.2,3-3.1,5c-0.5,1.1-0.7,1.9-0.7,2.5c0.5-0.4,1.5-1.3,2.1-2.2c1.1-1.8,1.8-4.1,1.8-4.9
			C146.2,72.1,146.2,72,146.1,71.9 M148.4,83.2c0,0-2.4,1.6-2.7,1.8c-0.9,0.6-2.5,1.2-3.5,1.2c-0.6,0-2.1-0.8-2.5-1.3
			c-0.3-0.4-0.3-1-0.4-1.5c-0.3,0.2-0.8,0.3-1.2,0.3c-0.1,0-0.4,0-0.4-0.2c0-0.3,1.3-1.2,1.5-1.5c0.2-1.4,0.5-2.7,0.9-3.9
			c1.2-3.2,3.6-6.8,5.8-9.3c0.4-0.4,0.9-0.8,1.4-0.8c0.6,0,0.7,1,0.7,1.5c0,2.2-1.5,7-3,8.5c-1,1.1-2.8,2.4-3.4,3.2
			c0,0.3,0,0.6,0,0.9c0,1.1,0.3,2.3,1.6,2.3c1.7,0,4-2,4.8-2c0.2,0,0.4,0,0.4,0.3C148.7,82.8,148.5,83.1,148.4,83.2"/>
		<path class="st0" d="M160.3,83.2c-0.5,0.6-2.7,1.2-3.6,1.7c-0.6,0.4-2.7,1.4-3.4,1.5c-0.3,0-0.6,0-0.9,0c-0.6,0-1-0.2-1-0.9
			c0-0.2,0.1-0.5,0.2-0.6c0.4-0.6,1.4-1.1,1.9-1.7c0.6-0.6,2.6-3.7,2.6-4.6c0-0.2-0.2-0.3-0.4-0.3c-0.1,0-0.3,0-0.4,0
			c-1.3,0.4-3.7,2.5-4.4,3.7c-1.7,3-3.2,6.1-4.4,9.3c-0.4,1-0.6,1.9-0.9,2.9c-0.3,0.9-1.6,0.7-2.2,0.9c-0.3,0.1-0.9,0.6-1.3,0.6
			c-0.2,0-0.2-0.2-0.2-0.3c0-0.3,0.1-0.7,0.3-0.9c1-1.9,2-3.8,3-5.8c0.9-1.7,1.7-3.5,2.4-5.2c-0.2,0.1-0.3,0.1-0.5,0.1
			c-0.2,0-0.4,0-0.4-0.3c0-0.6,1.4-1,1.7-1.6c0.5-0.9,1.4-3.8,2-4.5c0.2-0.2,1.2-1,1.4-1.1c0.2,0,0.4-0.1,0.5-0.1
			c0.3,0,0.8,0.1,0.8,0.5c0,0.8-1.3,2-1.2,2.6c1.1-0.3,3.3-3,4.3-3c0.4,0,0.8-0.1,1.3-0.1c0.6,0,1,0.1,1,0.8c0,1.9-3.2,6.2-3.2,7
			c0,0.2,0.4,0.3,0.5,0.3c1.2,0,3.4-1.8,4.3-1.8c0.2,0,0.3,0.1,0.3,0.2C160.6,82.8,160.4,83.1,160.3,83.2"/>
		<path class="st0" d="M181.2,72.9c-0.2,1.1-1.6,3.4-2.9,3.4c-0.8,0-0.9-0.7-0.9-1.3c0-1.1,0-1,0.8-1.8c1-1.1,2.3-2.3,2.7-2.3
			c0.3,0,0.4,0.4,0.4,0.6C181.3,71.9,181.2,72.4,181.2,72.9 M183.5,83c-0.9,0.9-2.6,1.8-3.3,2.1c-0.7,0.3-3.5,1.1-4.1,1.1
			c-0.9,0-2.3-0.6-2.8-1.4c-0.2-0.4-0.2-0.6-0.3-1c0.2-0.9,0.4-2.2,0.9-3c0.5-0.7,1.7-2.4,2.6-2.4c0.4,0,0.5,0.4,0.5,0.7
			c0,1.5-1.1,2.9-1.1,3.8c0,0.8,1.1,1.2,1.7,1.2c1.4,0,4.4-1.3,5.4-2.2c0.2-0.2,0.4-0.4,0.6-0.4c0.2,0,0.3,0.1,0.3,0.3
			C184,82.3,183.8,82.6,183.5,83"/>
		<path class="st0" d="M193.8,82.8c-0.7,0.8-2.2,1.5-3.2,1.5c-0.7,0-1.2-0.3-1.5-0.9c-1.1,1.2-2.6,2.1-4.2,2.1c-1.2,0-2.5-0.6-2.5-2
			c0-1.3,0.6-1.5,1.3-2.2c1-1.1,1.6-1.6,2.8-2.3c0.7-0.4,1.1-0.9,1.6-1.6c0.1-0.1,0.2-0.7-0.1-0.6c-0.7,0.2-1.3,1-2.1,1
			c-0.7,0-1.4-0.6-1.4-1.3c0-0.2,0.1-0.4,0.1-0.5c0.2-0.9,1.9-0.9,2.4-0.9c1,0,2.5,0.3,2.5,1.6c0,1.2-1.3,2.6-1.9,3.6
			c-0.6,0.9-2,1.4-2,2.6c0,0.3,0.1,0.8,0.5,0.8c1,0,2.3-2,2.5-2.9c0.1-0.3,0.2-1.6,0.7-1.6c0.2,0,0.3,0.2,0.4,0.3
			c0.5,0.7,0.3,2.4,0.8,3.3c0.2,0.3,0.5,0.5,1,0.5c0.1,0,0.3,0,0.4-0.1c0.5-0.3,0.9-0.9,1.6-0.9c0.2,0,0.4,0.1,0.4,0.3
			C194.1,82.5,193.9,82.7,193.8,82.8"/>
		<path class="st0" d="M87.4,81.4c-0.2,0-0.5,0-0.7,0.2c-0.7,0.5-1.2,1.4-2,2c-0.3,0.2-1.5,1.1-1.8,1.1c-0.2,0-0.3-0.2-0.3-0.4
			c0-0.2,0-0.3,0.1-0.5c0.3-1.5,0.8-3,0.8-4.6c0-0.7-0.1-1.1-0.9-1.1c-0.7,0-1.4,0.5-2,1.1c-1.3,1.3-2.3,3.1-2.6,3.1
			c-0.4,0-0.4-1.2-0.4-1.5c0-0.4,0-1.1,0.2-1.4c0.9-1.7,2.3-3.2,3.2-5c0.7-1.5,1.6-2.9,2.3-4.5c0.4-0.9,0.6-1.9,0.8-2.8
			c0-0.2,0.1-0.4,0.1-0.5c0-0.4-0.2-0.7-0.6-0.7c-1.3,0-2.5,1.1-3.5,2.6c-1.2,1.7-2.2,3.9-2.7,5.1c-0.6,1.3-0.8,2.7-1.5,3.9
			c-0.2,0.5-0.3,1-0.5,1.4c-0.2,0.5-0.4,0.8-0.6,1.3c-0.4,1-1.4,2.3-2.3,2.9c-0.1,0.1-0.3,0.2-0.3,0.3c0,0.2,0,0.2,0.2,0.2
			c1,0,1.4-0.3,2.1-1c0,0.8,0,4.8,1.1,4.8c0.4,0,0.8-0.6,1-0.9c0.2-0.3,0.3-0.7,0.5-1c0.5-0.8,2.7-4,3.6-4c0.3,0,0.4,0.5,0.4,0.7
			c0,1.2-0.6,2.3-0.6,3.5c0,0.4,0.1,0.9,0.6,0.9c0.7,0,2.5-1,4.1-2.1c1.4-1,2.6-2.2,2.6-2.8C87.7,81.4,87.6,81.4,87.4,81.4z
			 M77.4,78c0-0.5,1.1-4.4,1.6-5.5c0.9-2.1,2.8-4.8,3.5-5.1c0,0.1,0.1,0.2,0.1,0.3c0,0.8-0.3,2.7-1.4,4.6
			C80.5,73.3,77.9,77.7,77.4,78z"/>
		<path class="st0" d="M173.8,81.4c-0.2,0-0.5,0-0.7,0.2c-0.7,0.5-1.2,1.4-2,2c-0.3,0.2-1.5,1.1-1.8,1.1c-0.2,0-0.3-0.2-0.3-0.4
			c0-0.2,0-0.3,0.1-0.5c0.3-1.5,0.8-3,0.8-4.6c0-0.7-0.1-1.1-0.9-1.1c-0.7,0-1.4,0.5-2,1.1c-1.3,1.3-2.3,3.1-2.6,3.1
			c-0.4,0-0.4-1.2-0.4-1.5c0-0.4,0-1.1,0.2-1.4c0.9-1.7,2.3-3.2,3.2-5c0.7-1.5,1.6-2.9,2.3-4.5c0.4-0.9,0.6-1.9,0.8-2.8
			c0-0.2,0.1-0.4,0.1-0.5c0-0.4-0.2-0.7-0.6-0.7c-1.3,0-2.5,1.1-3.5,2.6c-1.2,1.7-2.2,3.9-2.7,5.1c-0.6,1.3-0.8,2.7-1.5,3.9
			c-0.2,0.5-0.3,1-0.5,1.4c-0.2,0.5-0.4,0.8-0.6,1.3c-0.4,1-1.4,2.3-2.3,2.9c-0.1,0.1-0.3,0.2-0.3,0.3c0,0.2,0,0.2,0.2,0.2
			c1,0,1.4-0.3,2.1-1c0,0.8,0,4.8,1.1,4.8c0.4,0,0.8-0.6,1-0.9c0.2-0.3,0.3-0.7,0.5-1c0.5-0.8,2.7-4,3.6-4c0.3,0,0.4,0.5,0.4,0.7
			c0,1.2-0.6,2.3-0.6,3.5c0,0.4,0.1,0.9,0.6,0.9c0.7,0,2.5-1,4.1-2.1c1.4-1,2.6-2.2,2.6-2.8C174.2,81.4,174,81.4,173.8,81.4z
			 M163.8,78c0-0.5,1.1-4.4,1.6-5.5c0.9-2.1,2.8-4.8,3.5-5.1c0,0.1,0.1,0.2,0.1,0.3c0,0.8-0.3,2.7-1.4,4.6
			C167,73.3,164.4,77.7,163.8,78z"/>
	</g>
	<path class="st0" d="M53.9,86c-0.7,0.5-24,6.8-28.2-0.1c-0.3-0.5-2-5.3,14.6-13.6c8.2-4.1,18.7-7.2,27.3-8.3
		c-4.2,0.1-11.4,0-27.3,5.7c-14.2,5.1-24.9,15.1-22.2,19.1c3.9,5.6,26.6,0.6,35.3-2L53.9,86z"/>
</g>
<path class="st0" d="M67.5,44.3c-4-6.9-7.9-15.1-14.1-19.2c0.1,0.1-0.5-0.3-1.3-0.8c-0.3-0.1-0.5-0.3-0.8-0.4
	c-7.4-3.2-19.6-0.6-24.2,3.5L27,27.2c0,0,6.9-7.7,19.7-5.7c-0.9-1.7-2.8-4.6-6.3-5.5c16.4-2.1,27.1,8.2,27.1,8.2L62.5,7.1l0,0
	l-1.1-3.7c0,0-0.9-4.9-7.6-3C51.3,1.2,7.5,13.8,5,14.6c-6.2,1.8-4.8,6.5-4.8,6.5l1,3.5l0,0l5,17.3c0,0,4.4-14.8,20.7-22.1
	c-3.6,3.8-2.3,9.4-2.3,9.4c-5,4.3-6,10.9-6,17.8c9.7-17.8,28.8-16.2,28.8-16.2c-8.6,0.4-25.4,8.8-28.6,21.7c0.1,1.9,0.2,3.8,0.3,5.7
	c0.2,6.6,1.5,13.5,1,18.9l-0.4,2.5c0,0,0.1-0.1,0.3-0.3c1.5-1.4,8.5-7.4,20.1-12c-2-1.7-7.1-6.4-7.2-7.8c-0.1-1.8,3.1-3.8,3-5.3
	c-0.2-1.5-2.1-5.2-2.1-5.2s5.1,3.4,5.5,4.7c0.3,1.3-2.8,3.2-2.3,5.3c0.5,1.9,5.2,6.2,6.2,7.2c9.4-3.3,21.3-5.4,35.5-3.6
	C74.2,58.5,71.4,50.9,67.5,44.3z"/>
<path class="st0" d="M52.1,24.3c0.2,0.1,0.4,0.2,0.6,0.4C52.5,24.5,52.3,24.4,52.1,24.3z"/>
<g>
	<path class="st1" d="M45.6,100.9c0-2.1,1.6-3.7,3.7-3.7c2,0,3.7,1.5,3.7,3.7s-1.6,3.7-3.7,3.7C47.2,104.6,45.6,103,45.6,100.9z
		 M51.8,100.9c0-1.5-1-2.7-2.5-2.7s-2.5,1.1-2.5,2.7s1.1,2.7,2.5,2.7S51.8,102.4,51.8,100.9z"/>
	<path class="st1" d="M55.1,100.9c0-2.1,1.6-3.7,3.6-3.7c1.3,0,2.2,0.5,2.8,1.4l-0.8,0.6c-0.4-0.6-1.1-1-2-1c-1.5,0-2.5,1.1-2.5,2.7
		s1,2.7,2.5,2.7c1,0,1.6-0.4,2.1-1.1l0.8,0.6c-0.6,0.9-1.6,1.5-2.9,1.5C56.7,104.6,55.1,103,55.1,100.9z"/>
	<path class="st1" d="M65.5,98.3h-2.1v-1h5.3v1h-2.1v6.2h-1.1V98.3z"/>
	<path class="st1" d="M70.3,100.9c0-2.1,1.6-3.7,3.7-3.7c2,0,3.7,1.5,3.7,3.7s-1.6,3.7-3.7,3.7C71.9,104.6,70.3,103,70.3,100.9z
		 M76.5,100.9c0-1.5-1-2.7-2.5-2.7s-2.5,1.1-2.5,2.7s1.1,2.7,2.5,2.7S76.5,102.4,76.5,100.9z"/>
	<path class="st1" d="M80.1,97.3h2.5c1.4,0,2.1,0.8,2.1,1.9c0,0.7-0.4,1.3-1.1,1.5c0.9,0.2,1.4,0.8,1.4,1.8c0,1.2-0.8,2-2.3,2h-2.7
		V97.3z M82.5,100.3c0.7,0,1.1-0.4,1.1-1c0-0.6-0.3-1-1.1-1h-1.3v2H82.5z M82.7,103.5c0.8,0,1.2-0.5,1.2-1.1c0-0.7-0.4-1.1-1.3-1.1
		h-1.5v2.3H82.7z"/>
	<path class="st1" d="M87.5,97.3H92v1h-3.4v2.1h3v1h-3v2.1h3.5v1h-4.7V97.3z"/>
	<path class="st1" d="M94.7,97.3h2.4c1.5,0,2.6,0.7,2.6,2.3c0,1.1-0.6,1.7-1.4,2l1.7,2.8h-1.3l-1.5-2.6h-1.3v2.6h-1.1V97.3z
		 M97,100.9c0.9,0,1.5-0.4,1.5-1.3c0-0.9-0.6-1.3-1.5-1.3h-1.2v2.6H97z"/>
	<path class="st1" d="M105,103.1l0.9-0.5c0.3,0.5,0.8,1,1.7,1c0.9,0,1.5-0.6,1.5-1.4c0-0.9-0.6-1.4-1.6-1.4c-0.8,0-1.4,0.3-1.8,0.7
		l-0.1-0.1v-4.1h4.2v1h-3.2v1.8c0.3-0.2,0.6-0.3,1.1-0.3c1.5,0,2.5,0.9,2.5,2.3c0,1.5-1.1,2.4-2.7,2.4
		C106.4,104.6,105.5,104,105,103.1z"/>
	<path class="st1" d="M112.3,101.2h4v0.9h-4V101.2z"/>
	<path class="st1" d="M119.3,98.3h-1.2v-1h2.3v7.1h-1.1V98.3z"/>
	<path class="st1" d="M123,100.9c0-2.1,1.6-3.7,3.7-3.7c2,0,3.7,1.5,3.7,3.7s-1.6,3.7-3.7,3.7C124.6,104.6,123,103,123,100.9z
		 M129.1,100.9c0-1.5-1-2.7-2.5-2.7c-1.5,0-2.5,1.1-2.5,2.7s1.1,2.7,2.5,2.7C128.1,103.6,129.1,102.4,129.1,100.9z"/>
	<path class="st1" d="M132.3,104.5c-0.3-0.1-0.4-0.3-0.4-0.7c0-0.4,0.3-0.7,0.7-0.7c0.4,0,0.7,0.3,0.7,0.7c0,0.2-0.1,0.5-0.2,0.7
		l-0.6,1.2h-0.6L132.3,104.5z"/>
	<path class="st1" d="M138.7,104.4l2.9-3.1c0.7-0.7,1-1.3,1-1.9c0-0.6-0.4-1.1-1.1-1.1c-0.7,0-1.2,0.5-1.4,1.3l-1.1-0.2
		c0.2-1.2,1.1-2.1,2.5-2.1c1.4,0,2.2,0.9,2.2,2.1c0,0.9-0.4,1.6-1.2,2.4l-1.2,1.3c-0.2,0.2-0.6,0.4-0.6,0.4s0.3,0,0.6,0h2.3v1
		L138.7,104.4L138.7,104.4z"/>
	<path class="st1" d="M146,100.9c0-2.1,1.6-3.7,3.7-3.7c2,0,3.7,1.5,3.7,3.7s-1.6,3.7-3.7,3.7C147.7,104.6,146,103,146,100.9z
		 M152.2,100.9c0-1.5-1-2.7-2.5-2.7c-1.5,0-2.5,1.1-2.5,2.7s1.1,2.7,2.5,2.7C151.2,103.6,152.2,102.4,152.2,100.9z"/>
	<path class="st1" d="M156.5,98.3h-1.2v-1h2.3v7.1h-1.1V98.3z"/>
	<path class="st1" d="M160.1,102.4c0-0.9,0.5-1.5,1.3-1.8c-0.6-0.3-0.9-0.8-0.9-1.5c0-1,0.9-1.8,2.1-1.8c1.2,0,2.1,0.8,2.1,1.8
		c0,0.7-0.4,1.2-0.9,1.5c0.8,0.3,1.3,0.9,1.3,1.8c0,1.3-1,2.2-2.5,2.2S160.1,103.7,160.1,102.4z M164.1,102.3c0-0.8-0.5-1.3-1.4-1.3
		c-0.9,0-1.4,0.5-1.4,1.3c0,0.8,0.5,1.3,1.4,1.3C163.6,103.6,164.1,103.1,164.1,102.3z M163.7,99.2c0-0.5-0.4-1-1.1-1
		c-0.6,0-1,0.4-1,1c0,0.6,0.4,1,1,1C163.3,100.2,163.7,99.8,163.7,99.2z"/>
</g>
<g>
	<g>
		<path class="st2" d="M82.6,29.8h0.3l6.7,14.9h-3.2l-0.8-2h-5.7l-0.8,2h-2.9L82.6,29.8z M84.5,40.2l-0.9-2.2
			c-0.4-1-0.8-2.5-0.9-2.6c0,0.1-0.5,1.6-0.9,2.6l-0.9,2.2H84.5z"/>
		<path class="st2" d="M93,37.3c0-4.4,3.4-7.6,7.6-7.6c2.7,0,4.6,1,5.9,3l-2.3,1.7c-0.7-1.1-1.9-1.9-3.6-1.9c-2.7,0-4.5,2.1-4.5,4.8
			c0,2.8,1.8,4.9,4.5,4.9c1.9,0,3-0.9,3.8-2.2l2.4,1.6c-1.3,2-3.3,3.3-6.2,3.3C96.4,44.9,93,41.7,93,37.3z"/>
		<path class="st2" d="M111.6,37.3c0-4.4,3.1-7.6,7.5-7.6c2.4,0,4.1,0.7,5.4,2l-2.1,2c-0.7-0.8-1.6-1.4-3.3-1.4
			c-2.7,0-4.4,2.1-4.4,4.8c0,2.8,1.8,4.9,4.9,4.9c1,0,2.1-0.2,2.9-0.5v-2.4h-3.6v-2.7h6.3v6.6c-0.8,0.7-3,1.7-5.7,1.7
			C114.8,44.9,111.6,41.7,111.6,37.3z"/>
	</g>
	<g>
		<path class="st2" d="M96.6,62.8l6.1-6.4c1.6-1.6,2-2.6,2-3.6c0-1-0.6-1.9-2-1.9c-1.3,0-2.2,1-2.6,2.4l-3.1-0.6
			c0.6-2.7,2.6-4.6,5.7-4.6c3.1,0,5,2,5,4.7c0,1.6-0.8,3.1-2.5,4.9l-1.8,1.9c-0.4,0.4-1,0.9-1,0.9s0.7-0.1,1.2-0.1h4v2.7H96.6V62.8z
			"/>
		<path class="st2" d="M113,55.7c0-4.4,3.4-7.6,7.6-7.6s7.6,3.2,7.6,7.6c0,4.4-3.4,7.6-7.6,7.6S113,60,113,55.7z M125.1,55.7
			c0-2.8-1.8-4.9-4.5-4.9s-4.5,2.1-4.5,4.9c0,2.8,1.8,4.9,4.5,4.9S125.1,58.4,125.1,55.7z"/>
		<path class="st2" d="M135.9,51h-2.6v-2.7h5.7v14.8h-3.1V51z"/>
		<path class="st2" d="M144.5,58.5c0-1.7,0.9-3,2.5-3.6c-0.9-0.6-1.5-1.6-1.5-2.9c0-2.3,2.1-3.9,4.5-3.9s4.5,1.7,4.5,3.9
			c0,1.3-0.6,2.3-1.6,2.9c1.6,0.7,2.5,2,2.5,3.6c0,2.7-2.1,4.8-5.5,4.8C146.6,63.3,144.5,61.3,144.5,58.5z M152.4,58.4
			c0-1.3-1-2.2-2.4-2.2c-1.5,0-2.4,0.9-2.4,2.2s0.9,2.2,2.4,2.2C151.5,60.6,152.4,59.7,152.4,58.4z M151.7,52.3
			c0-0.9-0.7-1.5-1.6-1.5s-1.6,0.6-1.6,1.5c0,0.9,0.7,1.5,1.6,1.5S151.7,53.2,151.7,52.3z"/>
	</g>
</g>
</svg>
