<?xml version="1.0" encoding="utf-8"?>
<!-- Generator: Adobe Illustrator 18.0.0, SVG Export Plug-In . SVG Version: 6.00 Build 0)  -->
<!DOCTYPE svg PUBLIC "-//W3C//DTD SVG 1.1//EN" "http://www.w3.org/Graphics/SVG/1.1/DTD/svg11.dtd">
<svg version="1.1" id="Layer_2" xmlns="http://www.w3.org/2000/svg" xmlns:xlink="http://www.w3.org/1999/xlink" x="0px" y="0px"
	 width="320.1px" height="50px" viewBox="0 0 320.1 50" style="enable-background:new 0 0 320.1 50;" xml:space="preserve">
<style type="text/css">
	.st0{fill:#FFFFFF;}
</style>
<g>
	<path class="st0" d="M107.1,20.7c2.2,0,3.9,1.3,4.8,2.3h0.3c0.1,0,0.3-1.4,0.5-1.8c-1-0.5-2.6-1.3-5.6-1.3c-5.2,0-8.6,2.8-8.6,7.8
		c0,5.1,3.3,7.8,8.5,7.8c1.7,0,4.3-0.6,5.6-1.1c0-0.6,0-1.2,0-1.8c0-2.4,0-3.8,0.1-4.5c-0.3,0.1-0.6,0.1-0.9,0.1
		c-0.4,0-0.8,0-1.1-0.1c0,0.9,0.1,2,0.1,3c0,0.9,0,1.8,0,2.7c-0.7,0.5-2.3,0.7-3.5,0.7c-4.1,0-6.5-2.6-6.5-6.9
		C100.6,22.8,103.4,20.7,107.1,20.7z"/>
	<path class="st0" d="M121.2,20c-2.2,5-4.5,10.2-6.9,15.3c0.3-0.1,0.5-0.2,0.8-0.2c0.3,0,0.5,0,0.8,0.1c0.4-1.4,1.2-3.6,2.1-5.9
		c0.9,0,1.8-0.1,2.7-0.1c1,0,1.9,0,2.9,0c0.8,2,1.8,4.4,2.3,5.9c0.4-0.1,0.8-0.1,1.2-0.1c0.4,0,0.8,0.2,1.2,0.2
		C127,33,123.7,25,121.6,20H121.2z M120.8,28.3c-0.8,0-1.6,0-2.4,0l2.4-5.6l2.4,5.6C122.5,28.3,121.6,28.3,120.8,28.3z"/>
	<path class="st0" d="M131.4,23.3c0-1.6,1.2-2.5,2.8-2.5c1.6,0,2.3,1.2,2.6,2.2h0.3c0.2-1,0.3-1.5,0.6-2c-0.9-0.7-1.9-1.1-3.3-1.1
		c-2.9,0-4.8,1.7-4.8,4.1c0,5.2,6.9,3.4,6.9,7.4c0,1.8-1.2,3.5-3.1,3.5c-1.9,0-3-0.9-3.5-1.9h-0.3c-0.1,1-0.2,0.9-0.4,1.6
		c0.8,0.6,1.8,1.1,3.6,1.1c3.4,0,5.4-2.4,5.4-5C138.3,25.8,131.4,27.4,131.4,23.3z"/>
	<path class="st0" d="M145.1,20.1c-1.9,0-3.8,0-5.7-0.1c0.1,0.2,0.1,0.5,0.1,0.7c0,0.2,0,0.5-0.1,0.7c1.2-0.2,3.1-0.2,4.6-0.2
		c0,1.5,0,3,0,4.5v3.8c0,1.9,0,3.8-0.1,5.7c0.4-0.1,0.8-0.1,1.1-0.1c0.4,0,0.7,0,1.1,0.1c-0.1-1.9-0.1-3.8-0.1-5.7v-3.8
		c0-1.5,0-3,0-4.5c1.5,0,3.5,0.1,4.7,0.2c-0.1-0.2-0.1-0.5-0.1-0.7c0-0.2,0-0.5,0.1-0.7C148.8,20.1,146.9,20.1,145.1,20.1z"/>
	<path class="st0" d="M162.5,23.5c0-2.6-2.1-3.5-4.6-3.5c-0.8,0-1.7,0.1-2.5,0.1c-0.8,0-1.7,0-2.5-0.1c0.1,1.9,0.1,3.8,0.1,5.7v3.8
		c0,1.9-0.1,3.8-0.1,5.7c0.4-0.1,0.7-0.1,1.1-0.1s0.8,0,1.2,0.1c-0.1-1.9-0.1-3.8-0.1-5.7V28h0.7c1.9,2,4.8,5.9,5.7,7.2
		c0.4-0.1,0.9-0.1,1.3-0.1c0.4,0,0.9,0,1.3,0.1c-1.3-1.4-4.9-6.2-6-7.5C159.6,27.5,162.5,26.3,162.5,23.5z M155,27v-1.3
		c0-1.6,0-3.2,0.1-4.8c0.5,0,1.1-0.1,2.1-0.1c1.5,0,3.4,0.6,3.4,2.9c0,2.6-2.3,3.4-4.1,3.4C155.8,27.1,155,27.1,155,27z"/>
	<path class="st0" d="M173,19.8c-4.8,0-8.2,2.9-8.2,7.9c0,5,3.4,7.9,8.2,7.9c4.9,0,8.2-2.9,8.2-7.9C181.2,22.6,177.8,19.8,173,19.8z
		 M173,34.7c-3.4,0-6.1-2.2-6.1-7c0-4.9,2.6-7.1,6.1-7.1c3.4,0,6.1,2.2,6.1,7.1C179.1,32.5,176.4,34.7,173,34.7z"/>
	<path class="st0" d="M185.6,34.2c0-0.5,0-1.6,0-3.3c0-2.1,0-2.7,0-3.2c1.1,0,3.8,0,5.3,0.2c0-0.2-0.1-0.4-0.1-0.7
		c0-0.2,0-0.5,0.1-0.7c-1.3,0.1-2.7,0.2-5.3,0.2c0-0.5,0-1.8,0-2.9c0-1.1,0.1-1.8,0.1-2.8c2.9,0,3.9,0.2,5.8,0.3
		c0-0.2-0.1-0.4-0.1-0.7c0-0.2,0-0.4,0.1-0.7c-1.3,0.1-2.6,0.1-3.9,0.1c-1.3,0-2.5,0-3.8-0.1c0.1,1.9,0.3,3.8,0.3,5.7v3.8
		c0,1.9-0.2,3.8-0.3,5.7c1.3-0.1,2.6-0.1,3.9-0.1c1.3,0,2.6,0,3.9,0.1c0-0.2-0.1-0.4-0.1-0.6c0-0.2,0-0.5,0.1-0.7
		C190.2,34.1,187.6,34.2,185.6,34.2z"/>
	<path class="st0" d="M206.6,20.1c-0.2,0-0.5,0-0.7-0.1c0.2,3.4,0.2,7.8,0.2,11.7c-2.7-2.7-7.5-7.8-11.1-11.8h-0.4
		c0.1,1,0.1,3,0.1,5.8c0,2.9-0.3,8.5-0.5,9.5c0.3-0.1,0.5-0.1,0.8-0.1s0.5,0,0.8,0.1c-0.1-0.9-0.2-5.5-0.2-7.4c0-2.3,0-3.4,0.1-4.2
		c3.8,4,7.8,8.4,11.1,12.4h0.3c0-1-0.1-6.1-0.1-8.3c0-1.7,0.2-6.2,0.4-7.5C207.1,20.2,206.9,20.1,206.6,20.1z"/>
	<path class="st0" d="M215,20.1c-1.9,0-3.8,0-5.7-0.1c0.1,0.2,0.1,0.5,0.1,0.7c0,0.2,0,0.5-0.1,0.7c1.2-0.2,3.1-0.2,4.6-0.2
		c0,1.5,0,3,0,4.5v3.8c0,1.9,0,3.8-0.1,5.7c0.4-0.1,0.8-0.1,1.1-0.1c0.4,0,0.8,0,1.1,0.1c-0.1-1.9-0.1-3.8-0.1-5.7v-3.8
		c0-1.5,0-3,0-4.5c1.5,0,3.5,0.1,4.7,0.2c-0.1-0.2-0.1-0.5-0.1-0.7c0-0.2,0-0.5,0.1-0.7C218.8,20.1,216.9,20.1,215,20.1z"/>
	<path class="st0" d="M224.8,34.2c0-0.5,0-1.6,0-3.3c0-2.1,0-2.7,0-3.2c1.1,0,3.8,0,5.3,0.2c0-0.2-0.1-0.4-0.1-0.7
		c0-0.2,0-0.5,0.1-0.7c-1.3,0.1-2.7,0.2-5.3,0.2c0-0.5,0-1.8,0-2.9c0-1.1,0.1-1.8,0.1-2.8c2.9,0,3.9,0.2,5.8,0.3
		c0-0.2-0.1-0.4-0.1-0.7c0-0.2,0-0.4,0.1-0.7c-1.3,0.1-2.6,0.1-3.9,0.1c-1.3,0-2.6,0-3.9-0.1c0.1,1.9,0.2,3.8,0.2,5.7v3.8
		c0,1.9-0.1,3.8-0.2,5.7c1.3-0.1,2.6-0.1,4-0.1c1.3,0,2.6,0,3.9,0.1c0-0.2-0.1-0.4-0.1-0.6c0-0.2,0-0.5,0.1-0.7
		C229.3,34.1,226.7,34.2,224.8,34.2z"/>
	<path class="st0" d="M242.9,23.5c0-2.6-2.1-3.5-4.6-3.5c-0.8,0-1.7,0.1-2.5,0.1c-0.8,0-1.3-0.1-2.1-0.2c0.1,1.9,0,3.8,0,5.7l0,4.3
		c0,1.9-0.1,3.3-0.2,5.2c0.4-0.1,0.5-0.1,0.9-0.1s0.9,0,1.3,0.1c-0.1-1.9-0.2-3.8-0.2-5.7l0-1.6l0.9,0c1.9,2,4.3,5.8,5.2,7.1
		c0.4-0.1,1,0,1.4,0c0.4,0,1,0.1,1.4,0.2c-1.3-1.4-4.9-6.1-6-7.5C240.1,27.5,242.9,26.3,242.9,23.5z M235.5,26.9l0-1.9
		c0-1.6,0-2.5,0.1-4.1c0.5,0,0.8-0.1,1.8-0.1c1.5,0,3.5,0.6,3.5,2.9c0,2.6-2.7,3.4-4.5,3.4C235.9,27.1,236.5,27,235.5,26.9z"/>
	<path class="st0" d="M253.3,19.8c-4.8,0-8.2,2.9-8.2,7.9c0,5,3.4,7.9,8.2,7.9c4.9,0,8.2-2.9,8.2-7.9
		C261.5,22.6,258.1,19.8,253.3,19.8z M253.3,34.7c-3.4,0-6.1-2.2-6.1-7c0-4.9,2.6-7.1,6.1-7.1c3.4,0,6.1,2.2,6.1,7.1
		C259.4,32.5,256.7,34.7,253.3,34.7z"/>
	<path class="st0" d="M266,34.2c0-2.2-0.1-4.7-0.1-8.4c0-1.9,0.1-3.8,0.2-5.7c-0.4,0.1-0.7,0.1-1.1,0.1c-0.4,0-0.7,0-1.1-0.1
		c0.1,1.9,0.1,3.8,0.1,5.7v3.8c0,1.9,0,3.8-0.1,5.7c1.4-0.1,2.7-0.1,4.1-0.1c1.3,0,2.7,0,4.1,0.1c-0.1-0.2-0.1-0.4-0.1-0.7
		c0-0.2,0-0.4,0.1-0.7C269.8,34.2,268,34.2,266,34.2z"/>
	<path class="st0" d="M281.2,19.8c-4.8,0-8.2,2.9-8.2,7.9c0,5,3.4,7.9,8.2,7.9c4.9,0,8.2-2.9,8.2-7.9
		C289.5,22.6,286.1,19.8,281.2,19.8z M281.2,34.7c-3.4,0-6.1-2.2-6.1-7c0-4.9,2.6-7.1,6.1-7.1c3.4,0,6.1,2.2,6.1,7.1
		C287.3,32.5,284.7,34.7,281.2,34.7z"/>
	<path class="st0" d="M299.7,20.7c2.2,0,3.9,1.3,4.8,2.3h0.3c0.1,0,0.3-1.4,0.5-1.8c-1-0.5-2.6-1.3-5.6-1.3c-5.2,0-8.6,2.8-8.6,7.8
		c0,5.1,3.3,7.8,8.5,7.8c1.7,0,4.3-0.6,5.6-1.1c0-0.6,0-1.2,0-1.8c0-2.4,0-3.8,0.1-4.5c-0.3,0.1-0.6,0.1-0.9,0.1
		c-0.4,0-0.8,0-1.1-0.1c0,0.9,0.1,2,0.1,3c0,0.9,0,1.8,0,2.7c-0.7,0.5-2.3,0.7-3.5,0.7c-4.1,0-6.5-2.6-6.5-6.9
		C293.3,22.8,296.1,20.7,299.7,20.7z"/>
	<path class="st0" d="M320.1,20c-0.3,0.1-0.6,0.1-0.9,0.1c-0.3,0-0.6,0-0.9-0.1c-1.2,2.5-2.8,5.5-4.2,7.6c-1.5-2.6-2.9-5.1-4.2-7.6
		c-0.4,0.1-0.8,0.1-1.2,0.1c-0.4,0-0.8,0-1.2-0.1c0.9,1.4,4.5,7.4,5.3,8.9c0,2.3,0,4.7-0.2,6.2c0.4-0.1,0.7-0.1,1.1-0.1
		c0.4,0,0.7,0,1.1,0.1c-0.1-1.4-0.2-4.3-0.2-6.5C315.7,26.9,317.3,24.3,320.1,20z"/>
	<path class="st0" d="M101.8,5.6c0,0.2,0,1.7,0,2.3l0,3.6c0,1.8,0,2.4-0.1,3.8c0.3,0,1,0,1.5,0c0.5,0,0.6,0,0.9,0
		c-0.1-1.4-0.2-2.5-0.2-4.3V7c0-0.6,0.1-1.2,0.1-1.4c0.6,0,2,0.1,2.8,0.2c0-0.2-0.1-0.5-0.1-0.7c0-0.2,0-0.5,0.1-0.7
		c-1.3,0-2.2,0.1-4.2,0.1c-1.9,0-2.5-0.1-3.9-0.1c0,0.2,0.1,0.5,0.1,0.7c0,0.2,0,0.5-0.1,0.7C99.8,5.7,101.2,5.6,101.8,5.6z"/>
	<path class="st0" d="M114.5,12.9c0-0.8,0.1-1.6,0.1-2.6c0-2-0.8-2.9-2.3-2.9c-1,0-1.9,0.5-2.5,1.4l0-0.7c0-2.1,0-3,0.1-4.7
		c-0.3,0-0.4,0.1-0.9,0.1s-1.2-0.1-1.5-0.1c0.1,1.8,0.1,3.6,0.1,5.6l0,1.4c0,2.1,0,3.1-0.1,4.9c0.3,0,0.5,0,0.9,0s1.2,0,1.4,0
		c-0.1-1.1-0.1-2.9-0.1-3.5l0-0.9c0-1.4,0.6-2,1.5-2c0.8,0,1.1,0.6,1.1,1.9c0,1.9-0.1,3.4-0.3,4.5c0.3,0,0.6,0,1.1,0
		c0.5,0,1.1,0,1.4,0C114.6,14.4,114.5,13.6,114.5,12.9z"/>
	<path class="st0" d="M119.1,15.5c1.2,0,2-0.4,2.6-0.8l0.3-0.9l-0.2-0.1c-0.6,0.5-1.3,0.7-2.1,0.7c-1.2-0.1-1.9-1-1.9-3l4.5-0.1
		c0,0,0-0.2,0-0.5c0-2.2-1.1-3.5-3.1-3.5c-2.1,0-3.7,1.3-3.7,4C115.4,14.2,117,15.5,119.1,15.5z M119,8.1c0.8,0,1.1,1.6,1.2,2.6
		l-2.4,0C117.8,9.7,118.1,8.1,119,8.1z"/>
	<path class="st0" d="M133,11.8c0.4,1.1,0.8,2.3,1.1,3.5c0.5,0,0.8-0.1,1.3-0.1c0.5,0,1.1,0,1.6,0c-1.3-2.7-3.2-7.8-4.7-11.6
		c-0.2,0-0.4,0.1-0.6,0.1c-0.2,0-0.4-0.1-0.6-0.1c-1.4,3.8-4,9.8-4.8,11.7c0.3,0,0.6-0.1,0.8-0.1c0.3,0,0.5,0,0.8,0.1
		c0.3-1.2,0.7-2.3,1.1-3.4c0.6,0,1.1,0,1.7,0C131.5,11.8,132.3,11.8,133,11.8z M131.1,6.8c0.5,1.3,1,3,1.5,4l-3.1,0
		C130,9.8,130.5,8.1,131.1,6.8z"/>
	<path class="st0" d="M140,11.5l0-0.8c0-1.2,0.5-2.2,1.3-2.3c0.9,0,1.3,0.5,1.3,1.9l0,1.2c0,1.4-0.1,2.5-0.2,3.7c0.3,0,0.5,0,1,0
		c0.5,0,1.3,0,1.6,0.1c-0.1-1.2-0.2-2.3-0.2-3.7l0-1.4c0-0.8,0.4-1.8,1.4-1.8c0.8,0,1.2,0.7,1.2,2c0,2,0,3.6-0.2,4.8
		c0.3-0.1,0.6,0,1.1,0c0.5,0,1.1,0,1.4,0.1c0-0.9-0.1-1.8-0.1-2.5c0-0.9,0.1-1.7,0.1-2.8c0-2.1-1.1-3-2.8-3c-1,0-1.8,0.5-2.4,1.5
		c-0.4-1-1.1-1.6-2.1-1.6c-1.1,0-1.9,0.4-2.5,1.4l0,0l0-1.2c-0.4,0-1,0.2-1.4,0.2c-0.4,0-0.7-0.1-1.1-0.1c0.1,1.2,0.2,2.3,0.2,3.7
		l0,1.3c0,1.4,0,2-0.1,3.1c0.3,0,0.6,0,1.1,0s1.1,0,1.4,0.1C140,14.1,140,12.9,140,11.5z"/>
	<path class="st0" d="M157.1,14.7l0.4-0.9l-0.2-0.2c-0.6,0.5-1.5,0.8-2.2,0.7c-1.7,0-2.1-2.2-2.1-3.2l4.8-0.1c0,0,0-0.6,0-0.9
		c0-2-1.3-3.3-3.5-3.3c-2.2,0-3.8,1.4-3.8,4.3c0,2.9,1.8,4.3,3.9,4.3C155.7,15.4,156.6,15.1,157.1,14.7z M154.3,7.7
		c0.9,0,1.2,0.8,1.2,2.8l-2.6,0C153,9.4,153.4,7.7,154.3,7.7z"/>
	<path class="st0" d="M159,15.2c0.3,0,0.6,0,1.1,0c0.5,0,1.1,0,1.4,0c-0.1-1.2-0.1-2.4-0.1-3.7l0-0.8c0-0.9,0.6-1.5,1.6-1.5
		c0.4,0,0.6,0.1,0.9,0.2l0.2-0.1c0-0.4-0.1-0.9-0.1-1.2c0-0.5,0.1-0.8,0.1-1.1c-0.1,0-0.3,0-0.4,0c-1.1,0-1.8,0.7-2.4,2.2l0-0.1l0-2
		c-0.4,0-0.8,0.1-1.2,0.1c-0.4,0-0.8,0-1.1-0.1c0.1,1.2,0,2.4,0,3.8v0.7C159,12.9,159.1,14.1,159,15.2z"/>
	<path class="st0" d="M166.6,5.3c0.7,0,1.3-0.6,1.3-1.3c0-0.7-0.5-1.3-1.2-1.3c-0.9,0-1.5,0.6-1.5,1.3
		C165.3,4.7,165.9,5.3,166.6,5.3z"/>
	<path class="st0" d="M167.9,7.1c-0.3,0-0.6,0.1-1.1,0.1c-0.5,0-1.1-0.1-1.4-0.1c0.1,1.2,0.1,1.7,0.1,3.1l0,1.3
		c0,1.4-0.1,2.5-0.2,3.7c0.3,0,0.3,0,0.8,0c0.5,0,1.4,0,1.7,0c-0.1-1.2-0.1-0.5-0.1-1.9l0-2.2C167.7,9.8,167.8,8.3,167.9,7.1z"/>
	<path class="st0" d="M173.5,15.4c1,0,1.8-0.3,2.3-0.7c0.1-0.3,0.2-0.7,0.4-1l-0.2-0.2c-0.3,0.4-1.1,0.8-1.8,0.8
		c-1.6,0-2.4-1.2-2.4-3.3c0-2.2,0.7-3.3,2-3.3c1,0,1.5,0.6,1.7,1.6l0.4,0c0.3-1,0.4-1.3,0.7-1.7c-0.8-0.5-1.7-0.8-3-0.8
		c-2.7,0-4.3,1.8-4.3,4.3C169.1,13.2,170.2,15.4,173.5,15.4z"/>
	<path class="st0" d="M184.6,14.6c0,0-1.1,0.4-1-1.8c0.1-1.2,0-2.1,0-3.5c0-2-2-2.3-3-2.3c-1.1-0.1-2.2,0.4-3.1,1.2l0.2,1l0.1,0.1
		c0.5-0.8,1.4-1,2.2-1c1,0,1.9,1.6,1.1,2.1c-0.2,0.1-0.2,0.2-2.1,0.7c-1.5,0.4-2.2,1-2.2,2.4c0,1.1,0.7,2.1,2.4,2.1
		c1,0,1.7-0.5,2.2-1.2c0.3,0.8,0.5,0.9,1.1,1.1c0.5,0.2,2-0.2,2-0.3L184.6,14.6z M181.4,12.8c0,1.1-0.7,1.5-1.4,1.5
		c-0.6,0-0.8-0.6-0.8-1.4c0-1.7,1.3-1.5,2.2-2.1C181.4,11.3,181.4,11.8,181.4,12.8z"/>
	<path class="st0" d="M192.9,10c0-2.1-0.9-3.1-2.6-3.1c-1.1,0-2.1,0.6-2.5,1.5l0-0.4l0-0.9c-0.4,0-0.8,0.1-1.2,0.1
		c-0.4,0-0.7-0.1-1.1-0.2c0.1,1.2,0.1,1.6,0.1,3l0,1.4c0,1.4-0.1,2.5-0.2,3.7c0.3,0,0.6,0,1.1,0c0.5,0,1.2,0,1.5,0
		c-0.1-1.2-0.1-2.4-0.1-3.7l0-1c0-1.5,0.6-2.1,1.6-2.1c0.9,0,1.2,0.6,1.2,2c0,2,0,3.6-0.1,4.8c0.3-0.1,0.5,0,1,0c0.5,0,1.2,0,1.5,0
		c0-0.9-0.1-2-0.1-2.7C192.8,11.7,192.9,11.1,192.9,10z"/>
	<path class="st0" d="M202.2,13.6c0-1-0.2-2.1-0.2-3V8.4c0-1.9,0-3.2,0.1-4.6c-0.4,0-0.8,0.1-1.4,0.1s-0.8-0.1-1.2-0.1
		c0.1,1.5,0.1,2.2,0.1,4.1l0,2.8c0,1.9-0.1,3.4-0.2,4.9c-0.1,1.2-0.4,1.3-1.3,1.7l0.2,0.7C200.9,17.5,202.2,16.3,202.2,13.6z"/>
	<path class="st0" d="M207.2,15.5c2.4,0,4.3-1.8,4.3-4.5c0-2.5-1.7-4.1-4.3-4.1c-2.1,0-3.9,1.4-3.9,4.4
		C203.3,14.3,205.2,15.5,207.2,15.5z M207.2,7.7c1.1,0,1.8,1.1,1.8,3.1c0,2.6-0.7,4-1.8,4c-1.2,0-1.5-1.6-1.5-3.5
		C205.7,8.7,206.2,7.7,207.2,7.7z"/>
	<path class="st0" d="M212.5,12.4c0,2.1,0.8,3.1,2.4,3.1c1.1,0,1.7-0.2,2.2-0.9l0.5-0.6l-0.1,1.3c0.4,0,0.6-0.2,1-0.2
		c0.4,0,1,0.1,1.4,0.1c-0.1-1.2-0.2-1.9-0.2-3.2l0-1.2c0-1.4,0.1-2.5,0.2-3.7c-0.3,0-0.8,0.1-1.4,0.1s-0.9-0.1-1.2-0.1
		c0.1,1.2,0.1,2.2,0.1,3.5l0,1c0,1.5-0.4,2.3-1.4,2.3c-0.9,0-1.4-0.8-1.4-2.1c0-2,0-3.5,0.2-4.7c-0.3,0.1-1,0.1-1.5,0.1
		s-0.8-0.1-1.1-0.1c0,0.9,0.1,1.9,0.1,2.6C212.6,10.6,212.5,11.2,212.5,12.4z"/>
	<path class="st0" d="M224,11.6l0-0.9c0-0.9,0.6-1.5,1.6-1.5c0.4,0,0.5,0.1,0.8,0.2l0.2-0.2c0-0.4,0-0.8,0-1.1c0-0.5,0-0.9,0.1-1.2
		c-0.1,0-0.3,0-0.4,0c-1.1,0-1.4,0.6-2,1.5l-0.3,0.7l0-2c-0.4,0-0.9,0.1-1.3,0.1c-0.4,0-0.6-0.1-1-0.1c0.1,1.2,0.1,1.8,0.1,3.1l0,2
		c0,1.4,0,1.8-0.1,2.9c0.3,0,0.5-0.1,1.1-0.1c0.5,0,1.2,0,1.5,0.1C224,14.1,224,13,224,11.6z"/>
	<path class="st0" d="M233.8,15.2c0.5,0,1.1,0,1.4,0c0-0.9-0.1-1.8-0.1-2.6c0-0.9,0.1-1.6,0.1-2.8c0-2.1-0.9-3-2.6-3
		c-1.1,0-1.9,0.5-2.5,1.5l0,0l0-1.3c-0.4,0-1,0.1-1.4,0.1c-0.4,0-0.7,0-1.1-0.1c0.1,1.2,0.1,2.1,0.1,3.4l0,1.5c0,1.4,0,2.1-0.1,3.2
		c0.3,0,0.8,0,1.3,0c0.5,0,0.9,0,1.2,0.1c-0.1-1.2-0.2-2.4-0.2-3.7v-0.7c0-1.5,0.4-2.5,1.4-2.5c0.9,0,1.5,0.5,1.5,1.9
		c0,2,0,3.7-0.2,4.9C233,15.2,233.3,15.2,233.8,15.2z"/>
	<path class="st0" d="M238.4,10.8c-1.5,0.4-2.3,0.9-2.3,2.4c0,1.1,0.7,2.2,2.4,2.2c1,0,1.6-0.5,2.2-1.2c0.3,0.8,0.8,1.3,1.7,1.3
		c0.5,0,0.5-0.2,1.5-0.5l0-0.4c-0.6,0-0.9-0.1-0.9-1.2c0-1.2-0.1-2.4-0.1-3.8c0-2-1.4-2.7-3.1-2.7c-1.1,0-2.1,0.4-3,1.1l0.2,1l0.2,0
		c0.4-0.6,1.2-0.9,2-0.9c1,0,1.5,0.7,1.5,1.5C240.6,10.2,240.3,10.4,238.4,10.8z M240.6,10.9c0,0.4,0,1,0,1.9c0,1.1-0.5,1.4-1.2,1.4
		c-0.6,0-1-0.4-1-1.2C238.4,11.3,239.7,11.4,240.6,10.9z"/>
	<path class="st0" d="M244.8,15.3c0.3-0.1,0.7-0.1,1.2-0.1c0.5,0,1.1,0,1.4,0c-0.1-1.9-0.1-3.6-0.1-5.8l0-3.4c0-2.2,0-1.5,0.1-3.4
		c-0.3,0.1-1,0.1-1.5,0.1c-0.4,0-0.7,0-1-0.1c0.1,1.9,0.1,3.6,0.1,5.8v1.1C245,11.7,244.9,13.4,244.8,15.3z"/>
	<path class="st0" d="M255.7,15.4c1.7,0,2.9-1.2,2.9-3.1c0-1.8-1.1-2.9-2.9-2.9c-1.5,0-2.9,1-2.9,3.2
		C252.8,14.6,254.3,15.4,255.7,15.4z M255.7,9.8c0.8,0,1.1,0.8,1.1,2.2c0,1.8-0.4,2.8-1.2,2.8c-0.9,0-1.2-1-1.2-2.3
		C254.5,10.7,255,9.8,255.7,9.8z"/>
	<path class="st0" d="M259.4,9.5l-0.8-0.1c0,0.1,0,0.2,0,0.3c0,0.1,0,0.2,0,0.3l0.8,0l0,1.5c0,1.6,0,2.3-0.1,3.6c0.2,0,0,0,0.4,0
		c0.3,0,1.2,0,1.4,0c-0.1-1.3-0.1-1.9-0.1-3.5l0-1.6l1.1,0c0-0.1,0-0.2,0-0.3c0-0.1,0-0.2,0-0.3l-1.1,0c-0.3-0.5-0.6-1.2-0.6-1.5
		c0-0.4,0.2-0.5,0.7-0.5c0.4,0,0.8,0.2,1.1,0.3l0.1,0c0-0.5,0-1.2,0-1.5c-0.2,0-0.5,0-0.7,0C260.1,6.2,259.7,7.6,259.4,9.5z"/>
	<path class="st0" d="M38,40.9l-0.4-0.9c-4.6-9.9-11.8-28.8-15.6-39.1l-0.2-0.5l-1.1,0.2c-1,0.2-1.9,0.2-2.9,0l-1.1-0.2l-0.2,0.5
		c-4.7,12.4-13,32.3-16,39.1l-0.4,1l1-0.1c0.4,0,0.7-0.1,1-0.1c1.3-0.2,2.4-0.2,3.6,0l1.2,0.2L7,40.4c1.1-4,2.3-7.7,3.7-11.1
		c4.1-0.1,8.1-0.1,12.2,0c1.3,3.5,2.5,7.3,3.7,11.1l0.1,0.5l1.6-0.1c2.3-0.2,4.5-0.2,6.9,0c0.5,0,1,0.1,1.6,0.1L38,40.9z M12.6,25
		c1.4-4,2.9-7.8,4.4-11.4c1.5,3.6,2.8,7.3,4.1,11.2l0,0.2H12.6z"/>
	<path class="st0" d="M45.5,1c-1.6,0-2.9-0.1-4.1-0.2l-1.2-0.1l0.2,0.7c0.3,4.8,0.6,9,0.6,15.6v7.7c0,6.5-0.3,10.7-0.6,15.6
		c-0.3,3.8-1.1,4.6-4.1,5.9l-0.5,0.2l1.2,3.7l0.5-0.1c9-1.5,13-6.1,13-15c0-1.8-0.2-3.7-0.2-5.5c0-1.7-0.2-3.3-0.2-4.8v-7.7
		c0-6.5,0.3-10.8,0.6-15.6l0.1-0.7l-1.2,0.1C48.4,0.9,47.1,1,45.5,1z"/>
	<path class="st0" d="M89.1,22.5c-2.3,0-3.4-0.2-4.1-0.3l-0.7-0.1l0,0.7c0,0.2,0,0.5,0.1,0.9c0.1,1.4,0.3,4,0.3,8.8
		c0,1.4,0,2.7-0.1,3.6c-1,0.4-3.7,0.8-5.6,0.8c-7.9,0-13.1-5.9-13.1-15.1c0-11.7,7-17,13.6-17c4.5,0,8.1,2.1,10.6,5.7l0.2,0.6h1.6
		l0.1-0.8c0.3-1.9,1-4,1.6-5.8l0.2-0.6l-0.5-0.3C88.6,1,84.6,0,79.4,0C64.7,0,55.5,8.5,55.5,22.1c0,11.7,9.2,19.5,22.9,19.5
		c4.4,0,9.4-0.8,15.2-2.5l0.5-0.1L94,38.4c-0.1-0.8-0.2-3.8-0.2-6.1c0-3.6,0.2-8.2,0.4-9.3l0.2-0.9l-0.9,0.1
		C92.9,22.3,91.8,22.5,89.1,22.5z"/>
</g>
</svg>
