<?xml version="1.0" encoding="utf-8"?>
<!-- Generator: Adobe Illustrator 18.1.1, SVG Export Plug-In . SVG Version: 6.00 Build 0)  -->
<svg version="1.1" id="Layer_1" xmlns="http://www.w3.org/2000/svg" xmlns:xlink="http://www.w3.org/1999/xlink" x="0px" y="0px"
	 width="269px" height="50px" viewBox="0 0 269 50" enable-background="new 0 0 269 50" xml:space="preserve">
<g>
	<path fill="#FFFFFF" stroke="#FFFFFF" stroke-width="0.5" stroke-miterlimit="10" d="M17,15.3c-0.4,1.2-1,3.5-1.6,4.1
		c-0.6,0.2-3.3,0.6-4.9,0.6c-6.9,0-10-4.5-10-9c0-5.5,4.1-9.4,10.4-9.4c2.2,0,3.9,0.6,4.7,0.8c0.2,1.4,0.4,2.9,0.6,4.1l-1,0.2
		c-0.8-3.3-2.9-3.9-4.9-3.9C6.4,2.9,4,6.5,4,10.6c0,4.7,2.9,8.1,6.7,8.1c2.4,0,3.9-1.4,5.3-4.1L17,15.3z"/>
	<path fill="#FFFFFF" stroke="#FFFFFF" stroke-width="0.5" stroke-miterlimit="10" d="M17.6,19.6v-0.8c1.6-0.2,1.8-0.4,1.8-2.2V4.1
		c0-1.8,0-1.8-1.6-2V1.5c1.4-0.2,3.5-0.6,4.5-1v16c0,1.8,0.2,2,1.8,2.2v0.8L17.6,19.6L17.6,19.6z"/>
	<path fill="#FFFFFF" stroke="#FFFFFF" stroke-width="0.5" stroke-miterlimit="10" d="M24.9,19.6v-0.8c1.6-0.2,1.8-0.2,1.8-2.2v-5.3
		c0-1.8-0.2-1.8-1.6-2V8.5c1.6-0.2,3.3-0.6,4.5-1v9c0,1.8,0,2,1.8,2.2v0.8L24.9,19.6L24.9,19.6z M26.4,4.1c0-1,0.8-1.8,1.8-1.8
		S30,3.1,30,4.1c0,0.8-0.8,1.8-1.8,1.8C27.2,5.5,26.4,4.7,26.4,4.1z"/>
	<path fill="#FFFFFF" stroke="#FFFFFF" stroke-width="0.5" stroke-miterlimit="10" d="M40,19.6v-0.8c1.2-0.2,1.4-0.2,1.4-2.2v-4.5
		c0-2-0.8-2.9-2-2.9c-0.8,0-1.6,0.4-2.4,1v6.5c0,1.8,0.2,1.8,1.4,2v0.8h-6.1V19c1.8-0.2,1.8-0.2,1.8-2.1v-5.7c0-1.6,0-1.8-1.6-2V8.4
		c1.4-0.2,3.1-0.4,4.3-1v2c0.6-0.4,1-0.8,1.8-1.2c0.8-0.4,1.4-0.8,2.2-0.8c2.2,0,3.5,1.6,3.5,4.1v5c0,1.8,0.2,1.8,1.6,2v0.8
		C45.7,19.6,40,19.6,40,19.6z"/>
	<path fill="#FFFFFF" stroke="#FFFFFF" stroke-width="0.5" stroke-miterlimit="10" d="M46.7,19.6v-0.8c1.6-0.2,1.8-0.2,1.8-2.2v-5.3
		c0-1.8-0.2-1.8-1.6-2V8.5c1.6-0.2,3.3-0.6,4.5-1v9c0,1.8,0,2,1.8,2.2v0.8L46.7,19.6L46.7,19.6z M48.1,4.1c0-1,0.8-1.8,1.8-1.8
		s1.8,0.8,1.8,1.8c0,0.8-0.8,1.8-1.8,1.8C49,5.5,48.1,4.7,48.1,4.1z"/>
	<path fill="#FFFFFF" stroke="#FFFFFF" stroke-width="0.5" stroke-miterlimit="10" d="M64,17.3c-1.2,1.6-3.1,3.1-4.5,3.1
		c-3.5,0-5.7-2.9-5.7-5.7c0-2,1-3.7,2.9-5.1C58.3,8.4,60.2,8,61,8l0,0c1,0,1.8,0.2,2.4,0.6c0.4,0.2,0.4,0.6,0.4,0.8
		c0,0.6-0.6,1.4-1,1.4c-0.2,0-0.2,0-0.6-0.2c-1-0.8-1.8-1.2-2.9-1.2c-1.4,0-2.6,1.2-2.6,3.9c0,3.5,2.6,4.7,3.7,4.7
		c1.2,0,2-0.2,3.1-1.2L64,17.3z"/>
	<path fill="#FFFFFF" stroke="#FFFFFF" stroke-width="0.5" stroke-miterlimit="10" d="M73.6,20c-0.6,0-1.2-0.2-1.6-0.6
		c-0.4-0.4-0.6-0.6-0.6-1C70.4,19,69,20,68.3,20c-2.2,0-3.5-1.8-3.5-3.5c0-1.4,0.6-2.2,2.2-2.6c1.6-0.6,3.5-1.2,4.1-1.8v-0.6
		c0-1.8-0.8-2.9-1.8-2.9c-0.4,0-0.8,0.2-1,0.4c-0.2,0.4-0.6,1-0.8,1.8c-0.2,0.6-0.4,0.8-1,0.8s-1.4-0.6-1.4-1.2
		c0-0.4,0.2-0.8,0.8-1.2c0.8-0.6,2.9-1.6,4.1-2c1,0,1.8,0.2,2.6,0.8c1,0.8,1.2,2,1.2,3.5V16c0,1.2,0.4,1.6,0.8,1.6
		c0.2,0,0.6,0,0.8-0.2l0.2,0.8L73.6,20z M71.4,13.3c-0.6,0.2-1.2,0.6-1.8,1c-0.8,0.4-1.4,1-1.4,2c0,1.4,1,2,1.8,2
		c0.4,0,1-0.2,1.6-0.6L71.4,13.3L71.4,13.3z"/>
	<path fill="#FFFFFF" stroke="#FFFFFF" stroke-width="0.5" stroke-miterlimit="10" d="M76.6,19.6v-0.8c1.6-0.2,1.8-0.4,1.8-2.2V4.1
		c0-1.8,0-1.8-1.6-2V1.5c1.4,0,3.5-0.6,4.5-1v16c0,1.8,0.2,2,1.8,2.2v0.8L76.6,19.6L76.6,19.6z"/>
	<path fill="#FFFFFF" stroke="#FFFFFF" stroke-width="0.5" stroke-miterlimit="10" d="M96.6,20c-0.6,0-1-0.2-1.4-0.4
		c-0.2-0.2-0.4-0.6-0.6-1c-1,0.6-2,1.4-2.6,1.4c-2,0-3.3-1.6-3.3-3.1c0-1.2,0.6-1.8,1.8-2.4c1.4-0.4,3.3-1,3.7-1.6v-0.6
		c0-1.6-0.6-2.6-1.6-2.6c-0.4,0-0.6,0-0.8,0.4c-0.2,0.2-0.4,0.8-0.6,1.6c0,0.6-0.4,0.6-0.8,0.6c-0.6,0-1.4-0.4-1.4-1.2
		c0-0.4,0.2-0.6,0.8-1c0.8-0.6,2.4-1.4,3.7-1.8c0.8,0,1.6,0.2,2.2,0.6c1,0.8,1.2,1.8,1.2,3.3v4.1c0,1,0.4,1.4,0.8,1.4
		c0.2,0,0.6,0,0.8-0.2l0.2,0.6L96.6,20z M94.6,14.1c-0.4,0.2-1.2,0.6-1.6,0.8c-0.9,0.4-1.3,0.8-1.3,1.6c0,1.2,0.8,1.8,1.6,1.8
		c0.4,0,0.8-0.2,1.4-0.6L94.6,14.1L94.6,14.1z"/>
	<path fill="#FFFFFF" stroke="#FFFFFF" stroke-width="0.5" stroke-miterlimit="10" d="M105.8,19.6V19c1.2,0,1.2-0.2,1.2-2v-3.9
		c0-1.8-0.8-2.4-1.8-2.4c-0.8,0-1.4,0.4-2,0.8v5.7c0,1.6,0,1.6,1.2,1.8v0.6h-5.5V19c1.6-0.2,1.6-0.2,1.6-1.8v-4.9
		c0-1.4,0-1.6-1.4-1.8v-0.4c1.2-0.2,2.9-0.4,3.9-1v1.8c0.4-0.2,1-0.6,1.6-1s1.2-0.6,2-0.6c2,0,3.3,1.4,3.3,3.7v4.5
		c0,1.6,0,1.6,1.4,1.8v0.6C111.3,19.6,105.8,19.6,105.8,19.6z"/>
	<path fill="#FFFFFF" stroke="#FFFFFF" stroke-width="0.5" stroke-miterlimit="10" d="M123.5,19c-0.6,0-2.6,0.4-4.3,1v-1.4l-1.4,0.8
		c-0.6,0.4-1.2,0.4-1.4,0.4c-2,0-4.7-1.8-4.7-5.1s3.1-5.9,6.3-5.9c0.2,0,0.6,0,1.2,0.2V5.7c0-1.4,0-1.4-1.6-1.6V3.5
		c1.4-0.2,3.3-0.4,4.3-0.8v13.8c0,1.4,0,1.4,1,1.6h0.6L123.5,19L123.5,19z M119,11.2c-0.4-0.8-1.2-1.2-2-1.2s-2.6,0.8-2.6,4.3
		c0,3.1,1.8,4.1,3.1,4.1c0.6,0,1.2-0.2,1.6-0.6v-6.6C119.1,11.2,119,11.2,119,11.2z"/>
	<path fill="#FFFFFF" stroke="#FFFFFF" stroke-width="0.5" stroke-miterlimit="10" d="M143.4,6.7c-0.2-1.4-0.6-2.2-1-2.6
		c-0.4-0.6-1-0.6-2.9-0.6h-1.4v12.8c0,2.2,0.2,2.4,2.9,2.6v0.8h-8.3V19c2.4-0.2,2.6-0.4,2.6-2.6V3.5h-1.2c-2.2,0-2.9,0.2-3.3,0.8
		c-0.4,0.4-0.6,1.4-1,2.6H129c0-1.8,0.2-3.7,0.2-5.1h0.6c0.4,0.6,0.8,0.6,1.6,0.6H142c0.6,0,1-0.2,1.4-0.6h0.6c0,1.2,0,3.5,0.2,4.9
		L143.4,6.7L143.4,6.7z"/>
	<path fill="#FFFFFF" stroke="#FFFFFF" stroke-width="0.5" stroke-miterlimit="10" d="M147.9,10.6c0.8-1.6,2-3.1,3.3-3.1
		c1.2,0,1.8,0.8,1.8,1.6c0,0.8-0.4,1.4-1.2,1.8c-0.4,0-0.6,0-0.8,0c-0.4-0.4-0.8-0.6-1.2-0.6c-0.6,0-1.2,0.4-1.8,1.8V17
		c0,1.8,0,1.8,2.2,2v0.8h-6.9v-0.6c1.6-0.2,1.8-0.2,1.8-2v-5.9c0-1.6-0.2-1.6-1.6-2V8.7c1.6-0.2,3.1-0.6,4.3-1L147.9,10.6
		L147.9,10.6z"/>
	<path fill="#FFFFFF" stroke="#FFFFFF" stroke-width="0.5" stroke-miterlimit="10" d="M162.2,20c-0.6,0-1.2-0.2-1.6-0.6
		c-0.4-0.4-0.6-0.6-0.6-1c-1,0.6-2.4,1.6-3.1,1.6c-2.2,0-3.5-1.8-3.5-3.5c0-1.4,0.6-2.2,2.2-2.6c1.6-0.6,3.5-1.2,4.1-1.8v-0.6
		c0-1.8-0.8-2.9-1.8-2.9c-0.4,0-0.8,0.2-1,0.4c-0.2,0.4-0.6,1-0.8,1.8c-0.2,0.6-0.4,0.8-1,0.8s-1.4-0.6-1.4-1.2
		c0-0.4,0.2-0.8,0.8-1.2c0.8-0.6,2.9-1.6,4.1-2c1,0,1.8,0.2,2.6,0.8c1,0.8,1.4,2,1.4,3.5V16c0,1.2,0.4,1.6,0.8,1.6
		c0.2,0,0.6,0,0.8-0.2l0.2,0.8L162.2,20z M160.1,13.3c-0.6,0.2-1.2,0.6-1.8,1c-0.8,0.4-1.4,1-1.4,2c0,1.4,1,2,1.8,2
		c0.4,0,1-0.2,1.6-0.6L160.1,13.3L160.1,13.3z"/>
	<path fill="#FFFFFF" stroke="#FFFFFF" stroke-width="0.5" stroke-miterlimit="10" d="M172.7,19.6v-0.8c1.2-0.2,1.4-0.2,1.4-2.2
		v-4.5c0-2-0.8-2.9-2-2.9c-0.8,0-1.6,0.4-2.4,1v6.5c0,1.8,0.2,1.8,1.4,2v0.8H165V19c1.8-0.2,1.8-0.2,1.8-2v-5.7c0-1.6,0-1.8-1.6-2
		V8.5c1.4-0.2,3.1-0.6,4.3-1v2c0.6-0.4,1-0.8,1.8-1.2c0.8-0.4,1.4-0.8,2.2-0.8c2.2,0,3.5,1.6,3.5,4.1v4.9c0,1.8,0.2,1.8,1.6,2v0.8
		C178.7,19.6,172.7,19.6,172.7,19.6z"/>
	<path fill="#FFFFFF" stroke="#FFFFFF" stroke-width="0.5" stroke-miterlimit="10" d="M186.8,11.2c-0.6-1.6-1.6-2.9-2.9-2.9
		c-0.8,0-1.6,0.6-1.6,1.6s0.8,1.6,2.2,2.2c2.2,0.8,3.5,1.8,3.5,3.7c0,2.6-2.4,3.7-4.5,3.7c-1.4,0-2.9-0.4-3.5-0.8
		c-0.2-0.4-0.4-2.4-0.4-3.5h0.8c0.6,1.8,1.8,3.5,3.5,3.5c0.8,0,1.6-0.6,1.6-1.6c0-0.8-0.6-1.6-2-2.4c-1.4-0.6-3.4-1.6-3.4-3.7
		s1.6-3.5,4.3-3.5c1.2,0,2,0.2,2.6,0.4c0.2,0.6,0.6,2.4,0.6,3.1L186.8,11.2z"/>
	<path fill="#FFFFFF" stroke="#FFFFFF" stroke-width="0.5" stroke-miterlimit="10" d="M188.6,19.6v-0.8c1.6-0.2,1.8-0.4,1.8-2.2V4.1
		c0-1.8,0-1.8-1.6-2V1.5c1.4-0.2,3.5-0.6,4.5-1v16c0,1.8,0.2,2,1.8,2.2v0.8L188.6,19.6L188.6,19.6z"/>
	<path fill="#FFFFFF" stroke="#FFFFFF" stroke-width="0.5" stroke-miterlimit="10" d="M204.5,20c-0.6,0-1.2-0.2-1.6-0.6
		s-0.6-0.6-0.6-1c-1,0.6-2.4,1.6-3.1,1.6c-2.2,0-3.5-1.8-3.5-3.5c0-1.4,0.6-2.2,2.2-2.6c1.6-0.6,3.5-1.2,4.1-1.8v-0.6
		c0-1.8-0.8-2.9-1.8-2.9c-0.4,0-0.8,0.2-1,0.4c-0.2,0.4-0.6,1-0.8,1.8c-0.2,0.6-0.4,0.8-1,0.8S196,11,196,10.4
		c0-0.4,0.2-0.8,0.8-1.2c0.8-0.6,2.9-1.6,4.1-2c1,0,1.8,0.2,2.6,0.8c1,0.8,1.4,2,1.4,3.5V16c0,1.2,0.4,1.6,0.8,1.6
		c0.2,0,0.6,0,0.8-0.2l0.2,0.8L204.5,20z M202.3,13.3c-0.6,0.2-1.2,0.6-1.8,1c-0.8,0.4-1.4,1-1.4,2c0,1.4,1,2,1.8,2
		c0.4,0,1-0.2,1.6-0.6L202.3,13.3L202.3,13.3z"/>
	<path fill="#FFFFFF" stroke="#FFFFFF" stroke-width="0.5" stroke-miterlimit="10" d="M213.1,19.6c-0.4,0.2-0.8,0.2-1,0.2
		c-2,0-3.1-1-3.1-3.5V9h-1.8L207,8.8l0.8-0.8h1.2V6l2.6-2h0.4v3.7h2.9c0.2,0.2,0.2,1-0.2,1.2h-2.9v6.6c0,2.2,1,2.4,1.6,2.4
		s1-0.2,1.4-0.4l0.2,0.8L213.1,19.6z"/>
	<path fill="#FFFFFF" stroke="#FFFFFF" stroke-width="0.5" stroke-miterlimit="10" d="M215.5,19.6v-0.8c1.6-0.2,1.8-0.2,1.8-2.2
		v-5.3c0-1.8-0.2-1.8-1.6-2V8.5c1.6-0.2,3.3-0.6,4.5-1v9c0,1.8,0,2,1.8,2.2v0.8L215.5,19.6L215.5,19.6z M216.7,4.1
		c0-1,0.8-1.8,1.8-1.8s1.8,0.8,1.8,1.8c0,0.8-0.8,1.8-1.8,1.8C217.5,5.5,216.7,4.7,216.7,4.1z"/>
	<path fill="#FFFFFF" stroke="#FFFFFF" stroke-width="0.5" stroke-miterlimit="10" d="M229.3,7.6c3.5,0,5.9,2.9,5.9,6.1
		c0,4.3-3.3,6.5-6.1,6.5c-3.9,0-6.1-3.1-6.1-5.9C223.2,9.8,226.3,7.6,229.3,7.6L229.3,7.6z M228.9,8.6c-1.2,0-2.6,1.6-2.6,4.5
		c0,3.5,1.2,5.9,3.3,5.9c1.2,0,2.4-0.8,2.4-4.7C231.6,11,230.6,8.6,228.9,8.6L228.9,8.6z"/>
	<path fill="#FFFFFF" stroke="#FFFFFF" stroke-width="0.5" stroke-miterlimit="10" d="M243.6,19.6v-0.8c1.2-0.2,1.4-0.2,1.4-2.2
		v-4.5c0-2-0.8-2.9-2-2.9c-0.8,0-1.6,0.4-2.4,1v6.5c0,1.8,0.2,1.8,1.4,2v0.8h-6.1V19c1.8-0.2,1.8-0.2,1.8-2v-5.7c0-1.6,0-1.8-1.6-2
		V8.5c1.4-0.2,3.1-0.6,4.3-1v2c0.6-0.4,1-0.8,1.8-1.2c0.8-0.4,1.4-0.8,2.2-0.8c2.2,0,3.5,1.6,3.5,4.1v4.9c0,1.8,0.2,1.8,1.6,2v0.8
		C249.3,19.6,243.6,19.6,243.6,19.6z"/>
	<path fill="#FFFFFF" stroke="#FFFFFF" stroke-width="0.5" stroke-miterlimit="10" d="M258.5,20c-0.6,0-1.2-0.2-1.6-0.6
		s-0.6-0.6-0.6-1c-1,0.6-2.4,1.6-3.1,1.6c-2.2,0-3.5-1.8-3.5-3.5c0-1.4,0.6-2.2,2.2-2.6c1.6-0.6,3.5-1.2,4.1-1.8v-0.6
		c0-1.8-0.8-2.9-1.8-2.9c-0.4,0-0.8,0.2-1,0.4c-0.2,0.4-0.6,1-0.8,1.8c-0.2,0.6-0.4,0.8-1,0.8S250,11,250,10.4
		c0-0.4,0.2-0.8,0.8-1.2c0.8-0.6,2.9-1.6,4.1-2c1,0,1.8,0.2,2.6,0.8c1,0.8,1.4,2,1.4,3.5V16c0,1.2,0.4,1.6,0.8,1.6
		c0.2,0,0.6,0,0.8-0.2l0.2,0.8L258.5,20z M256.4,13.3c-0.6,0.2-1.2,0.6-1.8,1c-0.8,0.4-1.4,1-1.4,2c0,1.4,1,2,1.8,2
		c0.4,0,1-0.2,1.6-0.6L256.4,13.3L256.4,13.3z"/>
	<path fill="#FFFFFF" stroke="#FFFFFF" stroke-width="0.5" stroke-miterlimit="10" d="M261.5,19.6v-0.8c1.6-0.2,1.8-0.4,1.8-2.2V4.1
		c0-1.8,0-1.8-1.6-2V1.5c1.4-0.2,3.5-0.6,4.5-1v16c0,1.8,0.2,2,1.8,2.2v0.8L261.5,19.6L261.5,19.6z"/>
	<path fill="#FFFFFF" stroke="#FFFFFF" stroke-width="0.5" stroke-miterlimit="10" d="M18.2,34.8c-1.4,0.2-1.6,0.4-1.6,2V39
		c0,1,0,1.8,0.2,2.6c-1.6,0.4-3.9,1-6.1,1c-6.1,0-10.2-3.5-10.2-9c0-6.1,4.9-9.4,10.4-9.4c2.2,0,4.1,0.6,5.1,0.8
		c0,1,0.2,2.4,0.4,4.3l-1,0.2c-0.6-3.3-2.9-4.1-5.1-4.1c-3.5,0-6.3,3.1-6.3,7.7c0,3.9,2.2,8.3,6.7,8.3c0.6,0,1.4,0,1.8-0.4
		c0.4-0.2,0.6-0.6,0.6-1.6v-2.6c0-2-0.2-2-3.1-2.4v-0.8h7.5L18.2,34.8L18.2,34.8z"/>
	<path fill="#FFFFFF" stroke="#FFFFFF" stroke-width="0.5" stroke-miterlimit="10" d="M27.8,42.6c-0.6,0-1.2-0.2-1.6-0.6
		s-0.6-0.6-0.6-1c-1,0.6-2.4,1.6-3.1,1.6c-2.2,0-3.5-1.8-3.5-3.5c0-1.4,0.6-2.2,2.2-2.6c1.6-0.6,3.5-1.2,4.1-1.8v-0.6
		c0-1.8-0.8-2.9-1.8-2.9c-0.4,0-0.8,0.2-1,0.4c-0.2,0.4-0.6,1-0.8,1.8c-0.2,0.6-0.6,0.8-1,0.8c-0.6,0-1.4-0.6-1.4-1.2
		c0-0.4,0.2-0.8,0.8-1.2c0.8-0.6,2.9-1.6,4.1-2c1,0,1.8,0.2,2.6,0.8c1,0.8,1.4,2,1.4,3.5v4.4c0,1.2,0.4,1.6,0.8,1.6
		c0.2,0,0.6,0,0.8-0.2l0.2,0.8L27.8,42.6z M25.7,35.9c-0.6,0.2-1.2,0.6-1.8,1c-0.8,0.4-1.4,1-1.4,2c0,1.4,1,2,1.8,2
		c0.4,0,1-0.2,1.6-0.6L25.7,35.9L25.7,35.9z"/>
	<path fill="#FFFFFF" stroke="#FFFFFF" stroke-width="0.5" stroke-miterlimit="10" d="M38.2,33.6c-0.6-1.6-1.6-2.9-2.9-2.9
		c-0.8,0-1.6,0.6-1.6,1.6c0,1,0.8,1.6,2.2,2.2c2.2,0.8,3.5,1.8,3.5,3.7c0,2.6-2.4,3.7-4.5,3.7c-1.4,0-2.9-0.4-3.5-0.8
		c-0.2-0.4-0.4-2.4-0.4-3.5h0.8c0.6,1.8,1.8,3.5,3.5,3.5c0.8,0,1.6-0.6,1.6-1.6c0-0.8-0.6-1.6-2-2.4c-1.4-0.6-3.5-1.6-3.5-3.7
		c0-2.1,1.6-3.5,4.3-3.5c1.2,0,2,0.2,2.6,0.4c0.2,0.6,0.6,2.4,0.6,3.1L38.2,33.6z"/>
	<path fill="#FFFFFF" stroke="#FFFFFF" stroke-width="0.5" stroke-miterlimit="10" d="M46.1,42.2c-0.4,0.2-0.8,0.2-1,0.2
		c-2,0-3.1-1-3.1-3.5v-7.5h-1.8v-0.2l0.8-0.8h1.2v-2l2.6-2h0.4v3.7h2.9c0.2,0.2,0.2,1-0.2,1.2h-2.6V38c0,2.2,1,2.4,1.6,2.4
		s1-0.2,1.4-0.4l0.2,0.8L46.1,42.2z"/>
	<path fill="#FFFFFF" stroke="#FFFFFF" stroke-width="0.5" stroke-miterlimit="10" d="M53.4,32.8c0.8-1.6,2-3.1,3.3-3.1
		s1.8,0.8,1.8,1.6c0,0.8-0.4,1.4-1.2,1.8c-0.4,0-0.6,0-0.8,0c-0.4-0.4-0.8-0.6-1.2-0.6c-0.6,0-1.2,0.4-1.8,1.8v4.9
		c0,1.8,0,1.8,2.2,2V42h-6.9v-0.8c1.6-0.2,1.8-0.2,1.8-2v-5.7c0-1.6-0.2-1.6-1.6-2v-0.6c1.6-0.2,3.1-0.6,4.3-1L53.4,32.8L53.4,32.8z
		"/>
	<path fill="#FFFFFF" stroke="#FFFFFF" stroke-width="0.5" stroke-miterlimit="10" d="M64.6,30.2c3.5,0,5.9,2.9,5.9,6.1
		c0,4.3-3.3,6.5-6.1,6.5c-3.9,0-6.1-3.1-6.1-5.9C58.3,32,62,30.2,64.6,30.2L64.6,30.2z M64.4,31.2c-1.2,0-2.6,1.6-2.6,4.5
		c0,3.5,1.2,5.9,3.3,5.9c1.2,0,2.4-0.8,2.4-4.7C67.3,33.2,66.5,31.2,64.4,31.2L64.4,31.2z"/>
	<path fill="#FFFFFF" stroke="#FFFFFF" stroke-width="0.5" stroke-miterlimit="10" d="M81.7,39.7c-1.6,2.4-3.5,2.9-4.5,2.9
		c-3.5,0-5.3-2.9-5.3-5.7c0-2,0.8-3.5,2-4.7s2.6-2,3.9-2l0,0c2.4,0,4.1,2,4.1,4.1c0,0.6-0.2,0.8-0.6,1c-0.4,0.2-3.7,0.2-6.5,0.4
		c0,3.3,1.8,4.5,3.7,4.5c1,0,2-0.4,3.1-1.2L81.7,39.7z M77.1,31.2c-1,0-2.2,1.2-2.4,3.5c1.2,0,2.4,0,3.5,0c0.4,0,0.6,0,0.6-0.4
		C78.9,32.4,78.1,31.2,77.1,31.2L77.1,31.2z"/>
	<path fill="#FFFFFF" stroke="#FFFFFF" stroke-width="0.5" stroke-miterlimit="10" d="M90.1,42.2v-0.8c1.2-0.2,1.4-0.2,1.4-2.2v-4.5
		c0-2-0.8-2.9-2-2.9c-0.8,0-1.6,0.4-2.4,1v6.5c0,1.8,0.2,1.8,1.4,2v0.8h-6.1v-0.8c1.8-0.2,1.8-0.2,1.8-2v-5.5c0-1.6,0-1.8-1.6-2V31
		c1.4-0.2,3.1-0.6,4.3-1v2c0.6-0.4,1-0.8,1.8-1.2c0.8-0.4,1.4-0.8,2.2-0.8c2.2,0,3.5,1.6,3.5,4.1v5.1c0,1.8,0.2,1.8,1.6,2V42
		L90.1,42.2L90.1,42.2z"/>
	<path fill="#FFFFFF" stroke="#FFFFFF" stroke-width="0.5" stroke-miterlimit="10" d="M101.7,42.2c-0.4,0.2-0.8,0.2-1,0.2
		c-2,0-3.1-1-3.1-3.5v-7.5h-1.8v-0.2l0.8-0.8h1.2v-2l2.6-2h0.4v3.7h2.9c0.2,0.2,0.2,1-0.2,1.2h-2.6V38c0,2.2,1,2.4,1.6,2.4
		s1-0.2,1.4-0.4l0.2,0.8L101.7,42.2z"/>
	<path fill="#FFFFFF" stroke="#FFFFFF" stroke-width="0.5" stroke-miterlimit="10" d="M113.9,39.7c-1.6,2.4-3.5,2.9-4.5,2.9
		c-3.5,0-5.3-2.9-5.3-5.7c0-2,0.8-3.5,2-4.7s2.6-2,3.9-2l0,0c2.4,0,4.1,2,4.1,4.1c0,0.6-0.2,0.8-0.6,1c-0.4,0-3.7,0.2-6.5,0.4
		c0,3.3,1.8,4.5,3.7,4.5c1,0,2-0.4,3.1-1.2L113.9,39.7z M109.2,31.2c-1,0-2.2,1.2-2.4,3.5c1.2,0,2.4,0,3.5,0c0.4,0,0.6,0,0.6-0.4
		C111.3,32.4,110.4,31.2,109.2,31.2L109.2,31.2z"/>
	<path fill="#FFFFFF" stroke="#FFFFFF" stroke-width="0.5" stroke-miterlimit="10" d="M119.4,32.8c0.8-1.6,2-3.1,3.3-3.1
		c1,0,1.8,0.8,1.8,1.6c0,0.8-0.4,1.4-1.2,1.8c-0.4,0-0.6,0-0.8,0c-0.4-0.4-0.8-0.6-1.2-0.6c-0.6,0-1.2,0.4-1.8,1.8v4.9
		c0,1.8,0,1.8,2.2,2V42h-6.9v-0.8c1.6-0.2,1.8-0.2,1.8-2v-5.7c0-1.6-0.2-1.6-1.6-2v-0.6c1.6-0.2,3.1-0.6,4.3-1L119.4,32.8
		L119.4,32.8z"/>
	<path fill="#FFFFFF" stroke="#FFFFFF" stroke-width="0.5" stroke-miterlimit="10" d="M130.4,30.2c3.5,0,5.9,2.9,5.9,6.1
		c0,4.3-3.3,6.5-6.1,6.5c-3.9,0-6.1-3.1-6.1-5.9C124.3,32,127.5,30.2,130.4,30.2L130.4,30.2z M130.2,31.2c-1.2,0-2.6,1.6-2.6,4.5
		c0,3.5,1.2,5.9,3.3,5.9c1.2,0,2.4-0.8,2.4-4.7C133,33.2,132,31.2,130.2,31.2L130.2,31.2z"/>
	<path fill="#FFFFFF" stroke="#FFFFFF" stroke-width="0.5" stroke-miterlimit="10" d="M136.7,42.2v-0.8c1.6-0.2,1.8-0.4,1.8-2.2
		V26.7c0-1.8,0-1.8-1.6-2v-0.8c1.4-0.2,3.5-0.6,4.5-1v16.3c0,1.8,0.2,2,1.8,2.2v0.8L136.7,42.2L136.7,42.2z"/>
	<path fill="#FFFFFF" stroke="#FFFFFF" stroke-width="0.5" stroke-miterlimit="10" d="M149.9,30.2c3.5,0,5.9,2.9,5.9,6.1
		c0,4.3-3.3,6.5-6.1,6.5c-3.9,0-6.1-3.1-6.1-5.9C143.4,32,146.7,30.2,149.9,30.2L149.9,30.2z M149.3,31.2c-1.2,0-2.6,1.6-2.6,4.5
		c0,3.5,1.2,5.9,3.3,5.9c1.2,0,2.4-0.8,2.4-4.7C152.4,33.2,151.2,31.2,149.3,31.2L149.3,31.2z"/>
	<path fill="#FFFFFF" stroke="#FFFFFF" stroke-width="0.5" stroke-miterlimit="10" d="M168.5,30.8c-0.2,0.4-0.6,1.2-1.2,1.6h-1.6
		c0.4,0.6,0.6,1.2,0.6,2.2c0,3.1-2.6,4.1-4.9,4.1c-0.4,0-0.8,0-1.4,0c-0.2,0.2-0.4,0.6-0.4,0.8c0,0.4,0.4,1,1.6,1c0.8,0,1.8,0,2.6,0
		c1.6,0,3.9,0.4,3.9,3.5s-3.5,5.5-6.9,5.5c-3.5,0-4.9-1.8-4.9-3.5c0-0.6,0.2-1,0.8-1.4c0.6-0.6,1.4-1,2.2-1.6c-1-0.4-1.6-0.8-2-1.6
		c-0.2-0.4-0.4-1-0.4-1.4c1.2-0.4,2.2-1.2,2.6-1.8c-1.4-0.6-2.6-1.8-2.6-3.5c0-3.3,2.9-4.3,4.9-4.3l0,0c1,0,1.8,0.2,2.9,0.6
		C166.2,30.8,167.5,30.8,168.5,30.8L168.5,30.8z M162.2,42.6c-1.2,0-1.8,0-2.4,0.6c-0.6,0.6-0.8,1-0.8,1.6c0,1.4,1.4,2.6,3.5,2.6
		c2.2,0,3.5-1.2,3.5-2.9c0-1-0.6-1.6-1.4-1.8C163.8,42.6,163.2,42.6,162.2,42.6L162.2,42.6z M161.5,31.2c-0.8,0-1.8,1-1.8,3.3
		c0,2,0.8,3.5,2.2,3.5c1,0,1.8-1,1.8-3.3S163.2,31.2,161.5,31.2L161.5,31.2z"/>
	<path fill="#FFFFFF" stroke="#FFFFFF" stroke-width="0.5" stroke-miterlimit="10" d="M181.5,31.2c-1.4,0.2-1.6,0.4-2.4,2
		c-0.6,1.4-1.6,3.5-3.3,7.5c-1.8,4.3-2.4,5.9-2.9,7.3c-0.2,0.6-0.4,0.8-1,0.8c-0.8,0-1.8-0.8-1.8-1.6c0-0.4,0.2-0.6,0.6-1
		c1-0.6,1.6-1.2,2.2-2.2c0.4-0.6,0.4-1,0.6-1.4c0-0.4,0-0.8,0-1.2c-1.2-3.5-2.6-7.1-3.5-8.8c-0.4-1.2-0.8-1.6-2.2-1.8V30h6.1v0.8
		c-1.2,0.2-1.4,0.4-1,1.4l2.2,6.3c0.6-1.6,1.6-4.5,2.2-6.1c0.2-1,0-1.2-1.4-1.6v-0.6h4.7v1L181.5,31.2L181.5,31.2z"/>
</g>
</svg>
